<?xml version="1.0" encoding="UTF-8"?><svg id="Layer_1" xmlns="http://www.w3.org/2000/svg" viewBox="0 0 1600 1600"><defs><style>.cls-1{fill:#838b6a;}.cls-2{fill:#fff;}</style></defs><rect class="cls-1" width="1600" height="1600"/><g><g><polygon class="cls-2" points="288.83 972.42 290.65 977.13 252.8 977.13 254.62 972.42 288.83 972.42"/><rect class="cls-2" x="462.43" y="970.25" width="32.91" height="6.89"/><path class="cls-2" d="M629.16,970.85c1.88,1.91,3.34,4.01,4.37,6.28h-38.42c1.01-2.33,2.51-4.47,4.43-6.4,3.16-3.17,6.82-5.12,11.01-5.82h7.52c4.2,.72,7.9,2.7,11.09,5.95Z"/><rect class="cls-2" x="863.98" y="972.42" width="97.97" height="4.71"/><rect class="cls-2" x="1297.58" y="967.96" width="32.65" height="9.17"/><polygon class="cls-2" points="295.44 989.6 300.14 1001.81 243.27 1001.81 247.99 989.6 295.44 989.6"/><rect class="cls-2" x="462.43" y="989.6" width="32.91" height="12.22"/><path class="cls-2" d="M593.75,989.6h41.33c-.68,4.36-2.63,8.17-5.86,11.44-.26,.27-.53,.53-.8,.78h-27.9c-.31-.28-.62-.58-.91-.89-3.17-3.25-5.12-7.02-5.85-11.33Z"/><rect class="cls-2" x="863.98" y="989.6" width="97.97" height="12.22"/><rect class="cls-2" x="1297.58" y="989.6" width="32.65" height="12.22"/><polygon class="cls-2" points="309.96 1027.35 275.01 1027.35 271.94 1019.42 268.84 1027.35 233.43 1027.35 238.15 1015.12 305.26 1015.12 309.96 1027.35"/><rect class="cls-2" x="371.8" y="1018.57" width="28.2" height="8.77"/><path class="cls-2" d="M428.8,1015.2c4.26,0,8.71,1.12,13.38,3.37l-3.17,8.77h-34.36c2.2-2.85,4.7-5.21,7.52-7.08,5.07-3.37,10.61-5.06,16.63-5.06Z"/><polygon class="cls-2" points="495.34 1018.57 514.86 1018.57 514.86 1027.35 445.56 1027.35 445.56 1018.57 462.43 1018.57 462.43 1015.12 495.34 1015.12 495.34 1018.57"/><rect class="cls-2" x="597.87" y="1018.57" width="32.9" height="8.77"/><rect class="cls-2" x="660.66" y="1018.57" width="32.91" height="8.77"/><path class="cls-2" d="M732.43,1015.2c12.27,0,22.79,4.05,31.55,12.14h-64.53c5.17-3.85,9.97-6.66,14.39-8.45,6.05-2.47,12.25-3.69,18.58-3.69Z"/><rect class="cls-2" x="895.43" y="1015.12" width="34.22" height="12.23"/><path class="cls-2" d="M1043.16,1015.2c16.17,0,29.96,4.05,41.4,12.14h-81.04c11.2-8.1,24.41-12.14,39.64-12.14Z"/><path class="cls-2" d="M1242.36,1022.98c2.63,1.32,5.15,2.78,7.53,4.37h-85.79c1.63-1.06,3.32-2.05,5.06-2.99,11.37-6.11,24.08-9.16,38.13-9.16,13.02,0,24.71,2.59,35.07,7.77Z"/><rect class="cls-2" x="1297.58" y="1015.12" width="32.65" height="12.23"/><path class="cls-2" d="M1400.89,1027.35h-65.03c4.57-3.36,9.17-6.02,13.78-7.98,6.5-2.78,13.09-4.16,19.76-4.16,12.34,0,22.83,4.05,31.49,12.14Z"/><polygon class="cls-2" points="263.64 1040.65 258.86 1052.87 223.59 1052.87 228.31 1040.65 263.64 1040.65"/><polygon class="cls-2" points="319.77 1052.87 284.94 1052.87 280.18 1040.65 315.08 1040.65 319.77 1052.87"/><path class="cls-2" d="M371.8,1040.65h62.39l-2.26,6.24c-3.86-1.93-7.03-2.89-9.53-2.89-4.91,0-9.08,2.95-12.51,8.86h-38.09v-12.22Z"/><polygon class="cls-2" points="445.56 1040.65 514.86 1040.65 514.86 1046.89 495.34 1046.89 495.34 1052.87 462.43 1052.87 462.43 1046.89 445.56 1046.89 445.56 1040.65"/><rect class="cls-2" x="597.87" y="1040.65" width="32.9" height="12.22"/><path class="cls-2" d="M773.17,1040.65c1.48,3.65,2.53,7.73,3.13,12.22h-37.86c-1.01-1.33-2.16-2.51-3.46-3.5-3.49-2.69-7.8-4.04-12.92-4.04-6.66,0-12.36,2.23-17.14,6.69-.3,.28-.59,.57-.88,.85h-43.39v-12.22h112.51Z"/><rect class="cls-2" x="895.43" y="1040.65" width="34.22" height="12.22"/><path class="cls-2" d="M1105.92,1052.87h-35.24c-1.12-1.05-2.33-2.04-3.63-2.96-6.39-4.58-13.82-6.86-22.27-6.86-9.17,0-17.21,2.57-24.14,7.71-.83,.62-1.65,1.32-2.46,2.11h-36.08c2.06-4.32,4.6-8.39,7.61-12.22h108.73c2.94,3.78,5.43,7.85,7.48,12.22Z"/><path class="cls-2" d="M1267.79,1045.09l-14.14,7.77h-21.55c-2.33-1.65-4.66-2.96-6.97-3.92-5.02-2.09-10.91-3.13-17.67-3.13-9.84,0-18.18,2.36-25.01,7.06h-41.71c.57-1.12,1.18-2.22,1.84-3.32,1.89-3.17,4-6.13,6.32-8.9h115.57c1.16,1.42,2.27,2.9,3.33,4.44Z"/><path class="cls-2" d="M1413.1,1052.87h-37.85c-1.01-1.38-2.18-2.57-3.49-3.55-3.5-2.65-7.82-3.99-12.96-3.99-6.68,0-12.4,2.21-17.18,6.63-.32,.3-.63,.59-.94,.91h-43.1v-12.22h112.38c1.49,3.67,2.53,7.74,3.13,12.22Z"/><polygon class="cls-2" points="254 1065.32 249.21 1077.55 214.08 1077.55 218.79 1065.32 254 1065.32"/><polygon class="cls-2" points="329.27 1077.55 294.52 1077.55 289.77 1065.32 324.56 1065.32 329.27 1077.55"/><path class="cls-2" d="M371.8,1065.32h34.16c-.59,3.52-1.01,7.6-1.28,12.23h-32.87v-12.23Z"/><rect class="cls-2" x="462.43" y="1065.32" width="32.91" height="12.23"/><rect class="cls-2" x="597.87" y="1065.32" width="32.9" height="12.23"/><path class="cls-2" d="M660.66,1065.32h35.86c-.58,1.63-1.09,3.36-1.52,5.17-.38,1.62-.68,3.96-.9,7.06h-33.44v-12.23Z"/><path class="cls-2" d="M743.15,1065.32h33.8v12.23h-32.8c-.21-5.01-.54-9.08-1-12.23Z"/><rect class="cls-2" x="895.43" y="1065.32" width="34.22" height="12.23"/><path class="cls-2" d="M1112.46,1077.55h-136.85c.35-4.25,1.02-8.32,2-12.23h32.12c-.39,.79-.78,1.59-1.16,2.43h71.34c-.25-.83-.52-1.64-.83-2.43h31.26c.99,3.89,1.7,7.97,2.12,12.23Z"/><path class="cls-2" d="M1135.74,1065.32h35.27c-2.1,3.7-3.49,7.79-4.22,12.23h-33.39c.41-4.18,1.18-8.27,2.34-12.23Z"/><path class="cls-2" d="M1297.58,1065.32h35.5c-.54,1.49-1.01,3.07-1.41,4.71-.39,1.63-.72,4.13-.95,7.52h-33.15v-12.23Z"/><path class="cls-2" d="M1413.75,1065.32v12.23h-32.71c-.22-4.97-.58-9.06-1.09-12.23h33.8Z"/><polygon class="cls-2" points="334.06 1090.01 338.76 1102.23 204.55 1102.23 209.26 1090.01 334.06 1090.01"/><polygon class="cls-2" points="404.34 1090.28 404.45 1096.66 404.45 1102.23 371.8 1102.23 371.8 1090.01 404.34 1090.01 404.34 1090.28"/><rect class="cls-2" x="462.43" y="1090.01" width="32.91" height="12.22"/><rect class="cls-2" x="597.87" y="1090.01" width="32.9" height="12.22"/><path class="cls-2" d="M660.66,1090.01h32.96c-.04,2.2-.05,4.55-.05,7.08v5.13h-32.91v-12.22Z"/><path class="cls-2" d="M744.41,1090.01h32.54v12.22h-32.53v-9.96c0-.77,0-1.52-.01-2.26Z"/><rect class="cls-2" x="895.43" y="1090.01" width="34.22" height="12.22"/><path class="cls-2" d="M1112.81,1093.65h-105.68c.51,3.07,1.28,5.92,2.33,8.58h-32.26c-.9-3.91-1.48-7.98-1.74-12.22h137.42l-.07,3.64Z"/><path class="cls-2" d="M1166.46,1090.01c.46,4.44,1.58,8.51,3.37,12.22h-34.58c-1.04-3.94-1.7-8.01-2-12.22h33.21Z"/><path class="cls-2" d="M1297.58,1090.01h32.7c-.04,2.18-.05,4.52-.05,7.02v5.2h-32.65v-12.22Z"/><path class="cls-2" d="M1413.75,1090.01v12.22h-32.42v-10.02c0-.74,0-1.48-.01-2.2h32.43Z"/><polygon class="cls-2" points="199.43 1115.53 234.82 1115.53 229.98 1127.76 194.7 1127.76 199.43 1115.53"/><polygon class="cls-2" points="343.87 1115.53 348.59 1127.76 313.63 1127.76 308.99 1115.53 343.87 1115.53"/><rect class="cls-2" x="371.8" y="1115.53" width="32.65" height="12.23"/><rect class="cls-2" x="462.43" y="1115.53" width="32.91" height="12.23"/><rect class="cls-2" x="597.87" y="1115.53" width="32.9" height="12.23"/><rect class="cls-2" x="660.66" y="1115.53" width="32.91" height="12.23"/><rect class="cls-2" x="744.43" y="1115.53" width="32.53" height="12.23"/><rect class="cls-2" x="895.43" y="1115.53" width="34.22" height="12.23"/><path class="cls-2" d="M1085.54,1115.53l18.6,8.74c-.85,1.21-1.72,2.37-2.6,3.49h-112.04c-3.04-3.83-5.59-7.91-7.66-12.23h37.12c.14,.14,.27,.25,.41,.36,6.63,5.5,15.08,8.26,25.36,8.26s18.95-2.88,26.69-8.61h14.13Z"/><path class="cls-2" d="M1266.35,1125.64c-.56,.73-1.12,1.43-1.69,2.12h-116.27c-3.17-3.9-5.86-7.97-8.03-12.23h40.62c6.74,4.94,15.09,7.4,25.04,7.4s19.04-2.47,26.16-7.4h19.4l14.77,10.11Z"/><rect class="cls-2" x="1297.58" y="1115.53" width="32.65" height="12.23"/><rect class="cls-2" x="1381.33" y="1115.53" width="32.42" height="12.23"/><polygon class="cls-2" points="189.58 1141.06 224.73 1141.06 221.32 1149.69 186.25 1149.69 189.58 1141.06"/><polygon class="cls-2" points="353.7 1141.06 357.01 1149.69 321.96 1149.69 318.67 1141.06 353.7 1141.06"/><rect class="cls-2" x="371.8" y="1141.06" width="32.65" height="8.63"/><rect class="cls-2" x="462.43" y="1141.06" width="32.91" height="8.63"/><rect class="cls-2" x="597.87" y="1141.06" width="32.9" height="8.63"/><rect class="cls-2" x="660.66" y="1141.06" width="32.91" height="8.63"/><rect class="cls-2" x="744.43" y="1141.06" width="32.53" height="8.63"/><rect class="cls-2" x="895.43" y="1141.06" width="34.22" height="8.63"/><path class="cls-2" d="M1003.57,1141.06h84.09c-2.65,1.89-5.44,3.53-8.35,4.95-9.64,4.7-21.09,7.06-34.34,7.06-16.15,0-29.95-4-41.39-12.01Z"/><path class="cls-2" d="M1162.65,1141.06h87.42c-11.9,8.01-26.31,12.01-43.27,12.01s-32.37-4.01-44.15-12.01Z"/><rect class="cls-2" x="1297.58" y="1141.06" width="32.65" height="8.63"/><rect class="cls-2" x="1381.33" y="1141.06" width="32.42" height="8.63"/></g><g><path class="cls-2" d="M439.04,1243.34c1.1,.56,2.22,1.2,3.34,1.91h-51.41c7.27-4.93,15.77-7.39,25.49-7.39,7.9,0,15.43,1.83,22.58,5.49Z"/><path class="cls-2" d="M853.81,1245.25h-33.55c.88-1.76,2.08-3.41,3.58-4.92,3.65-3.66,8.04-5.49,13.2-5.49s9.57,1.86,13.25,5.59c1.45,1.48,2.63,3.09,3.52,4.82Z"/><path class="cls-2" d="M462.26,1263.37l-4.72,4.17h-36.05c-1.82-.56-3.65-.84-5.49-.84-2.03,0-3.87,.28-5.51,.84h-36.19c1.08-3.92,2.82-7.59,5.2-11.03h76.45c2.06,2.08,4.17,4.38,6.3,6.87Z"/><path class="cls-2" d="M855.67,1256.5c-.5,4.18-2.27,7.81-5.32,10.9l-.13,.13h-26.07l-.24-.24c-3-3.06-4.78-6.67-5.33-10.79h37.1Z"/><path class="cls-2" d="M411.05,1290.58h-35.79c-1.34-3.68-2.1-7.36-2.28-11.04h29.84c.37,1.74,1.18,3.42,2.4,5.01,1.05,1.34,2.99,3.36,5.83,6.03Z"/><path class="cls-2" d="M437.26,1279.54h6.67l-3.98,3.52c-.89-1.25-1.79-2.41-2.69-3.52Z"/><path class="cls-2" d="M545.68,1280.04c14.22,0,26.39,3.52,36.52,10.55h-71.49c9.92-7.03,21.57-10.55,34.97-10.55Z"/><rect class="cls-2" x="624.76" y="1283.06" width="25.18" height="7.53"/><path class="cls-2" d="M675.67,1280.04c3.8,0,7.79,1,11.95,3.02l-2.72,7.53h-30.54c1.9-2.41,4.06-4.42,6.47-6.03,4.52-3.01,9.47-4.52,14.84-4.52Z"/><polygon class="cls-2" points="719.54 1283.06 722.75 1290.58 692.8 1290.58 689.59 1283.06 719.54 1283.06"/><polygon class="cls-2" points="778.63 1283.06 808.41 1283.06 805.21 1290.58 775.41 1290.58 778.63 1283.06"/><rect class="cls-2" x="822.35" y="1283.06" width="29.38" height="7.53"/><path class="cls-2" d="M970.34,1286.98c2.18,1.09,4.26,2.29,6.26,3.6h-75.7c1.31-.83,2.67-1.62,4.07-2.37,10.15-5.44,21.5-8.18,34.06-8.18,11.62,0,22.05,2.31,31.31,6.94Z"/><path class="cls-2" d="M1074.61,1280.04c14.23,0,26.4,3.52,36.52,10.55h-71.48c9.91-7.03,21.57-10.55,34.96-10.55Z"/><path class="cls-2" d="M1223.84,1290.58h-58.21c.24-.24,.48-.46,.73-.69,7.14-6.57,16.27-9.85,27.39-9.85,7.6,0,14.77,1.68,21.47,5,3.1,1.53,5.97,3.38,8.63,5.54Z"/><path class="cls-2" d="M427.33,1304.9c3.99,3.34,7.43,6.25,10.33,8.73h-46.05c-4.22-4.18-7.49-7.86-9.84-11.04h42.85c.87,.75,1.79,1.52,2.72,2.31Z"/><path class="cls-2" d="M601.71,1313.63h-31.51c-.98-.91-2.05-1.77-3.18-2.59-5.71-4.09-12.34-6.14-19.88-6.14-8.2,0-15.38,2.3-21.57,6.89-.73,.54-1.44,1.16-2.15,1.84h-32.23c1.87-3.91,4.18-7.59,6.91-11.04h96.8c2.69,3.42,4.95,7.1,6.81,11.04Z"/><path class="cls-2" d="M624.76,1302.59h55.78l-2.08,5.76c-3.44-1.73-6.28-2.59-8.5-2.59-4.37,0-8.1,2.62-11.15,7.87h-34.05v-11.04Z"/><polygon class="cls-2" points="727.9 1302.59 732.63 1313.63 702.63 1313.63 697.93 1302.59 727.9 1302.59"/><polygon class="cls-2" points="770.28 1302.59 800.1 1302.59 795.4 1313.63 765.57 1313.63 770.28 1302.59"/><rect class="cls-2" x="822.35" y="1302.59" width="29.38" height="11.04"/><path class="cls-2" d="M993.06,1306.73l-12.54,6.9h-19.41c-2.06-1.47-4.1-2.61-6.14-3.45-4.5-1.87-9.75-2.8-15.79-2.8-8.75,0-16.18,2.07-22.26,6.25h-37.3c.51-.98,1.05-1.96,1.62-2.92,1.72-2.89,3.65-5.6,5.79-8.12h102.92c1.09,1.32,2.13,2.71,3.12,4.14Z"/><path class="cls-2" d="M1123.83,1302.59c2.68,3.42,4.95,7.1,6.81,11.04h-31.51c-.99-.91-2.05-1.77-3.18-2.59-5.71-4.09-12.34-6.14-19.89-6.14-8.19,0-15.37,2.3-21.56,6.89-.73,.54-1.44,1.16-2.15,1.84h-32.24c1.88-3.91,4.19-7.59,6.93-11.04h96.79Z"/><path class="cls-2" d="M1229.1,1302.59l-11.04,11.04h-8.34c-5.69-4.67-10.93-7.01-15.75-7.01-3.31,0-5.88,.71-7.75,2.1-1.77,1.33-2.7,2.96-2.78,4.9h-27.79c0-3.93,.64-7.6,1.93-11.04h71.52Z"/><path class="cls-2" d="M449.95,1324.86c3.56,3.78,6.45,7.46,8.64,11.03h-41.57c-.99-.83-2.03-1.69-3.12-2.58-3.63-2.95-6.99-5.77-10.07-8.45h46.12Z"/><path class="cls-2" d="M607.58,1335.89h-122.24c.31-3.82,.9-7.5,1.8-11.03h28.65c-.34,.68-.67,1.38-1,2.1h63.71c-.21-.72-.45-1.42-.72-2.1h27.9c.89,3.5,1.52,7.19,1.9,11.03Z"/><path class="cls-2" d="M624.76,1324.86h30.49c-.53,3.17-.9,6.85-1.15,11.03h-29.35v-11.03Z"/><polygon class="cls-2" points="737.43 1324.86 742.15 1335.89 712.13 1335.89 707.43 1324.86 737.43 1324.86"/><polygon class="cls-2" points="760.77 1324.86 790.63 1324.86 785.93 1335.89 756.06 1335.89 760.77 1324.86"/><rect class="cls-2" x="822.35" y="1324.86" width="29.38" height="11.03"/><path class="cls-2" d="M875.11,1324.86h31.48c-1.87,3.34-3.13,7.01-3.76,11.03h-29.81c.35-3.78,1.05-7.46,2.08-11.03Z"/><path class="cls-2" d="M1134.62,1324.86c.89,3.5,1.52,7.19,1.9,11.03h-122.24c.3-3.82,.9-7.5,1.79-11.03h28.66c-.34,.68-.67,1.38-1,2.1h63.71c-.21-.72-.45-1.42-.72-2.1h27.9Z"/><path class="cls-2" d="M1216.62,1335.89h-51.67c-3.23-3.47-5.62-7.14-7.16-11.03h38.43l8.51,4.25c4.54,2.24,8.51,4.5,11.9,6.78Z"/><path class="cls-2" d="M390.84,1354.51c.69,1.29,1.41,2.51,2.13,3.67h-8.21l6.08-3.67Z"/><path class="cls-2" d="M463.51,1347.15c.95,3.49,1.47,7.17,1.54,11.03h-29.79c-.45-2.81-1.72-5.6-3.79-8.41-.57-.78-1.31-1.65-2.2-2.62h34.24Z"/><path class="cls-2" d="M485.26,1347.15h122.68l-.06,2.95h-94.38c.47,2.9,1.22,5.59,2.26,8.08h-28.86c-.86-3.53-1.4-7.21-1.64-11.03Z"/><polygon class="cls-2" points="653.82 1347.15 653.93 1352.79 653.93 1358.18 624.76 1358.18 624.76 1347.15 653.82 1347.15"/><polygon class="cls-2" points="781.14 1347.15 776.44 1358.18 721.64 1358.18 716.94 1347.15 746.98 1347.15 749.11 1352.14 751.25 1347.15 781.14 1347.15"/><rect class="cls-2" x="822.35" y="1347.15" width="29.38" height="11.03"/><path class="cls-2" d="M902.6,1347.15c.45,4.01,1.51,7.69,3.18,11.03h-30.98c-.96-3.56-1.59-7.24-1.87-11.03h29.67Z"/><path class="cls-2" d="M1136.81,1350.1h-94.39c.47,2.9,1.23,5.59,2.27,8.08h-28.87c-.86-3.53-1.4-7.21-1.64-11.03h122.69l-.06,2.95Z"/><path class="cls-2" d="M1233.51,1358.18h-33.19c-1.75-1.27-3.87-2.53-6.35-3.78l-9.91-4.95c-1.49-.75-2.93-1.52-4.3-2.3h48.96c2.28,3.35,3.88,7.03,4.78,11.03Z"/><path class="cls-2" d="M463.87,1370.19c-.89,3.93-2.3,7.6-4.23,11.03h-87.3c-2.36-3.31-4.56-6.98-6.61-11.03h37.34c4.4,3.54,9.09,5.3,14.07,5.3s9.52-1.5,13.05-4.52c.3-.25,.58-.52,.85-.78h32.84Z"/><path class="cls-2" d="M600.13,1377.43c-.93,1.31-1.88,2.58-2.87,3.79h-98.96c-2.82-3.45-5.19-7.13-7.11-11.03h33.53c5.86,4.76,13.31,7.13,22.35,7.13s16.31-2.37,23.03-7.13h14.6l15.42,7.24Z"/><rect class="cls-2" x="624.76" y="1370.19" width="29.17" height="11.03"/><polygon class="cls-2" points="726.77 1370.19 771.33 1370.19 766.64 1381.23 731.47 1381.23 726.77 1370.19"/><rect class="cls-2" x="822.35" y="1370.19" width="29.38" height="11.03"/><path class="cls-2" d="M991.77,1378.66c-.67,.88-1.37,1.73-2.08,2.57h-102.71c-2.93-3.52-5.41-7.19-7.44-11.03h36.77c5.88,4.04,13.07,6.06,21.58,6.06s16.33-2.02,22.53-6.06h18.99l12.36,8.46Z"/><path class="cls-2" d="M1113.65,1370.19l15.42,7.24c-.93,1.31-1.88,2.58-2.88,3.79h-98.96c-2.82-3.45-5.19-7.13-7.11-11.03h33.55c5.87,4.76,13.31,7.13,22.34,7.13s16.31-2.37,23.04-7.13h14.6Z"/><path class="cls-2" d="M1234.28,1370.19c-.34,3.95-1.28,7.61-2.81,11.03h-78.35l10.12-11.03h13.52c1.52,1.1,3.11,2.09,4.78,2.99,4.63,2.48,8.73,3.71,12.32,3.71,3.88,0,7-.93,9.37-2.8,1.5-1.18,2.52-2.48,3.06-3.9h27.99Z"/><path class="cls-2" d="M383.47,1393.24h66.08c-8.68,7.26-19.7,10.89-33.07,10.89-11.28,0-21.1-2.77-29.47-8.29-1.2-.79-2.38-1.65-3.54-2.6Z"/><path class="cls-2" d="M511.51,1393.24h72.77c-2.03,1.36-4.12,2.57-6.3,3.63-8.62,4.2-18.83,6.29-30.68,6.29-13.86,0-25.8-3.31-35.78-9.92Z"/><rect class="cls-2" x="624.76" y="1393.24" width="29.17" height="6.91"/><polygon class="cls-2" points="736.6 1393.24 761.52 1393.24 758.58 1400.15 739.54 1400.15 736.6 1393.24"/><rect class="cls-2" x="822.35" y="1393.24" width="29.38" height="6.91"/><path class="cls-2" d="M900.39,1393.24h75.62c-10.38,6.61-22.86,9.92-37.41,9.92s-27.89-3.31-38.21-9.92Z"/><path class="cls-2" d="M1040.44,1393.24h72.76c-2.03,1.36-4.12,2.57-6.3,3.63-8.61,4.2-18.83,6.29-30.67,6.29-13.87,0-25.8-3.31-35.78-9.92Z"/><path class="cls-2" d="M1222.37,1393.24c-7.58,6.61-17.62,9.92-30.14,9.92s-22.33-3.31-30.92-9.92h61.06Z"/></g><g><path class="cls-2" d="M186.71,349.86v137.64H736.8v-137.64H186.71Zm0,236.2v137.69H736.8v-137.69H186.71Z"/><path class="cls-2" d="M1315.02,425.3l-119.59-60.78-109.89-55.82-119.59-60.78-102.45-52.04v137.24l60.61,31.41,117.28,60.78,107.86,55.88,106.85,55.37-2.82,1.47-107.81,55.88-109.89,56.95-107.81,55.88-64.28,33.32v137.69l106.85-54.41,109.61-55.82,119.37-60.78,109.72-55.88,104.54-53.23v-122.24l-98.56-50.07Z"/></g></g></svg>