<?xml version="1.0" encoding="UTF-8"?><svg id="Layer_1" xmlns="http://www.w3.org/2000/svg" viewBox="0 0 499.86 107.7"><defs><style>.cls-1{fill:#ffe9c0;}.cls-2{fill:#353e36;}.cls-3{fill:none;stroke:#353e36;stroke-miterlimit:10;stroke-width:4px;}</style></defs><polygon class="cls-2" points="499.86 42.3 434.95 79.78 386.6 107.7 0 107.7 113.26 42.3 499.86 42.3"/><line class="cls-3" x1="64.91" y1="72" x2="64.91"/><line class="cls-3" x1="434.95" y1="77" x2="434.95"/><line class="cls-3" x1="178.46" y1="46" x2="178.46" y2="0"/><line class="cls-3" x1="321.41" y1="46" x2="321.41" y2="0"/><g><path class="cls-1" d="M200.49,69.39l-4.22,2.32c-.79-.83-1.58-1.4-2.35-1.73-.77-.32-1.68-.48-2.72-.48-1.9,0-3.43,.56-4.6,1.7-1.17,1.13-1.76,2.58-1.76,4.34s.56,3.12,1.69,4.21,2.61,1.63,4.44,1.63c2.27,0,4.03-.77,5.29-2.32l3.99,2.73c-2.17,2.82-5.22,4.22-9.17,4.22-3.55,0-6.33-1.05-8.34-3.15-2.01-2.1-3.01-4.56-3.01-7.39,0-1.95,.49-3.75,1.47-5.4,.98-1.65,2.34-2.94,4.09-3.88,1.75-.94,3.71-1.41,5.87-1.41,2,0,3.8,.4,5.4,1.2s2.9,1.93,3.92,3.4Z"/><path class="cls-1" d="M214.53,64.79c1.9,0,3.7,.48,5.37,1.43,1.68,.95,2.98,2.25,3.92,3.88,.94,1.63,1.41,3.4,1.41,5.29s-.47,3.69-1.42,5.34c-.95,1.66-2.24,2.95-3.87,3.89-1.63,.93-3.43,1.4-5.4,1.4-2.89,0-5.37-1.03-7.41-3.09-2.05-2.06-3.07-4.56-3.07-7.51,0-3.15,1.16-5.78,3.47-7.89,2.03-1.83,4.36-2.75,7-2.75Zm.08,4.77c-1.57,0-2.88,.55-3.93,1.64s-1.57,2.5-1.57,4.2,.52,3.18,1.55,4.27c1.03,1.09,2.34,1.63,3.93,1.63s2.91-.55,3.96-1.65c1.05-1.1,1.58-2.52,1.58-4.25s-.52-3.14-1.55-4.22c-1.04-1.08-2.36-1.62-3.97-1.62Z"/><path class="cls-1" d="M229.38,65.31h5.07v2.07c1.15-.97,2.19-1.64,3.12-2.02,.93-.38,1.89-.57,2.86-.57,2,0,3.7,.7,5.1,2.1,1.17,1.19,1.76,2.94,1.76,5.27v13.34h-5.01v-8.84c0-2.41-.11-4.01-.32-4.8-.22-.79-.59-1.39-1.13-1.81s-1.2-.62-1.99-.62c-1.02,0-1.9,.34-2.64,1.03-.73,.69-1.24,1.63-1.53,2.84-.15,.63-.22,2-.22,4.1v8.1h-5.07v-20.19Z"/><path class="cls-1" d="M252.79,57.87h5.07v7.44h3.01v4.36h-3.01v15.83h-5.07v-15.83h-2.6v-4.36h2.6v-7.44Z"/><path class="cls-1" d="M278.47,65.31h5.07v20.19h-5.07v-2.13c-.99,.94-1.98,1.62-2.97,2.03-1,.41-2.07,.62-3.23,.62-2.61,0-4.86-1.01-6.76-3.03-1.9-2.02-2.85-4.54-2.85-7.54s.92-5.67,2.76-7.66c1.84-1.99,4.08-2.99,6.71-2.99,1.21,0,2.35,.23,3.41,.69,1.06,.46,2.04,1.14,2.95,2.06v-2.23Zm-5.33,4.16c-1.57,0-2.87,.55-3.9,1.66-1.04,1.11-1.55,2.53-1.55,4.26s.53,3.18,1.58,4.31c1.05,1.13,2.35,1.69,3.89,1.69s2.91-.55,3.96-1.66c1.05-1.11,1.57-2.56,1.57-4.35s-.52-3.18-1.57-4.27c-1.05-1.09-2.37-1.63-3.98-1.63Z"/><path class="cls-1" d="M308.42,69.39l-4.22,2.32c-.79-.83-1.58-1.4-2.35-1.73-.77-.32-1.68-.48-2.72-.48-1.9,0-3.43,.56-4.6,1.7-1.17,1.13-1.76,2.58-1.76,4.34s.56,3.12,1.69,4.21,2.61,1.63,4.44,1.63c2.27,0,4.03-.77,5.29-2.32l3.99,2.73c-2.17,2.82-5.22,4.22-9.17,4.22-3.55,0-6.33-1.05-8.34-3.15-2.01-2.1-3.01-4.56-3.01-7.39,0-1.95,.49-3.75,1.47-5.4,.98-1.65,2.34-2.94,4.09-3.88,1.75-.94,3.71-1.41,5.87-1.41,2,0,3.8,.4,5.4,1.2s2.9,1.93,3.92,3.4Z"/><path class="cls-1" d="M313.6,57.87h5.07v7.44h3.01v4.36h-3.01v15.83h-5.07v-15.83h-2.6v-4.36h2.6v-7.44Z"/></g></svg>