<?xml version="1.0" encoding="UTF-8"?><svg id="Layer_1" xmlns="http://www.w3.org/2000/svg" viewBox="0 0 499.86 107.7"><defs><style>.cls-1{fill:#353e36;}.cls-2{fill:#bbceff;}.cls-3{fill:none;stroke:#bbceff;stroke-miterlimit:10;stroke-width:4px;}</style></defs><polygon class="cls-2" points="499.86 107.7 113.26 107.7 64.91 79.78 0 42.3 386.6 42.3 434.95 70.22 499.86 107.7"/><line class="cls-3" x1="321.4" y1="97" x2="321.4" y2="0"/><line class="cls-3" x1="434.95" y1="89" x2="434.95" y2="0"/><line class="cls-3" x1="64.91" y1="79" x2="64.91" y2="0"/><line class="cls-3" x1="178.46" y1="99" x2="178.46" y2="0"/><g><path class="cls-1" d="M213.1,65.31h5.07v20.19h-5.07v-2.13c-.99,.94-1.98,1.62-2.97,2.03-1,.41-2.07,.62-3.23,.62-2.61,0-4.86-1.01-6.76-3.03-1.9-2.02-2.85-4.54-2.85-7.54s.92-5.67,2.76-7.66c1.84-1.99,4.08-2.99,6.71-2.99,1.21,0,2.35,.23,3.41,.69,1.06,.46,2.04,1.14,2.95,2.06v-2.23Zm-5.33,4.16c-1.57,0-2.87,.55-3.9,1.66-1.04,1.11-1.55,2.53-1.55,4.26s.53,3.18,1.58,4.31c1.05,1.13,2.35,1.69,3.89,1.69s2.91-.55,3.96-1.66c1.05-1.11,1.57-2.56,1.57-4.35s-.52-3.18-1.57-4.27c-1.05-1.09-2.37-1.63-3.98-1.63Z"/><path class="cls-1" d="M228.32,57.51v10.02c.92-.92,1.9-1.6,2.97-2.06,1.06-.46,2.2-.69,3.41-.69,2.63,0,4.87,1,6.72,2.99,1.84,1.99,2.76,4.55,2.76,7.66s-.95,5.52-2.86,7.54c-1.91,2.02-4.16,3.03-6.77,3.03-1.16,0-2.25-.21-3.25-.62-1-.42-2-1.09-2.99-2.03v2.13h-5.03v-27.98h5.03Zm5.33,11.95c-1.6,0-2.92,.54-3.97,1.63-1.05,1.09-1.58,2.51-1.58,4.27s.53,3.24,1.58,4.35c1.05,1.11,2.38,1.66,3.97,1.66s2.85-.56,3.91-1.69c1.06-1.12,1.59-2.56,1.59-4.31s-.52-3.15-1.56-4.26c-1.04-1.11-2.35-1.66-3.93-1.66Z"/><path class="cls-1" d="M257.86,64.79c1.9,0,3.7,.48,5.37,1.43,1.68,.95,2.98,2.25,3.92,3.88,.94,1.63,1.41,3.4,1.41,5.29s-.47,3.69-1.42,5.34c-.95,1.66-2.24,2.95-3.87,3.89-1.63,.93-3.43,1.4-5.4,1.4-2.89,0-5.37-1.03-7.41-3.09-2.05-2.06-3.07-4.56-3.07-7.51,0-3.15,1.16-5.78,3.47-7.89,2.03-1.83,4.36-2.75,7-2.75Zm.08,4.77c-1.57,0-2.88,.55-3.93,1.64s-1.57,2.5-1.57,4.2,.52,3.18,1.55,4.27c1.03,1.09,2.34,1.63,3.93,1.63s2.91-.55,3.96-1.65c1.05-1.1,1.58-2.52,1.58-4.25s-.52-3.14-1.55-4.22c-1.04-1.08-2.36-1.62-3.97-1.62Z"/><path class="cls-1" d="M272.68,65.31h5.12v9.72c0,1.89,.13,3.21,.39,3.94,.26,.74,.68,1.31,1.26,1.72,.58,.41,1.29,.61,2.13,.61s1.56-.2,2.15-.6c.59-.4,1.03-.99,1.31-1.77,.21-.58,.32-1.82,.32-3.73v-9.89h5.07v8.55c0,3.53-.28,5.94-.83,7.24-.68,1.58-1.68,2.8-3.01,3.65-1.32,.85-3.01,1.27-5.05,1.27-2.21,0-4-.5-5.37-1.48-1.37-.99-2.33-2.37-2.89-4.14-.4-1.22-.59-3.45-.59-6.68v-8.41Z"/><path class="cls-1" d="M296.12,57.87h5.07v7.44h3.01v4.36h-3.01v15.83h-5.07v-15.83h-2.6v-4.36h2.6v-7.44Z"/></g></svg>