<?xml version="1.0" encoding="UTF-8"?><svg id="Layer_1" xmlns="http://www.w3.org/2000/svg" viewBox="0 0 499.86 107.7"><defs><style>.cls-1{fill:#6a7b6c;}.cls-2{fill:none;stroke:#6a7b6c;stroke-miterlimit:10;stroke-width:4px;}</style></defs><path class="cls-1" d="M211.75,71.57c1.05,1.09,1.58,2.51,1.58,4.27s-.53,3.24-1.58,4.35c-1.04,1.1-2.36,1.66-3.95,1.66s-2.84-.56-3.9-1.69c-1.05-1.13-1.58-2.56-1.58-4.3s.52-3.16,1.56-4.26c1.03-1.11,2.33-1.66,3.9-1.66s2.93,.54,3.97,1.63Z"/><path class="cls-1" d="M237.58,71.6c-1.04-1.11-2.35-1.66-3.94-1.66s-2.92,.54-3.97,1.63c-1.05,1.09-1.57,2.51-1.57,4.27s.52,3.24,1.57,4.35c1.05,1.1,2.38,1.66,3.97,1.66s2.85-.56,3.91-1.69,1.59-2.56,1.59-4.3-.52-3.16-1.56-4.26Zm0,0c-1.04-1.11-2.35-1.66-3.94-1.66s-2.92,.54-3.97,1.63c-1.05,1.09-1.57,2.51-1.57,4.27s.52,3.24,1.57,4.35c1.05,1.1,2.38,1.66,3.97,1.66s2.85-.56,3.91-1.69,1.59-2.56,1.59-4.3-.52-3.16-1.56-4.26Zm0,0c-1.04-1.11-2.35-1.66-3.94-1.66s-2.92,.54-3.97,1.63c-1.05,1.09-1.57,2.51-1.57,4.27s.52,3.24,1.57,4.35c1.05,1.1,2.38,1.66,3.97,1.66s2.85-.56,3.91-1.69,1.59-2.56,1.59-4.3-.52-3.16-1.56-4.26Zm24.33,.05c-1.04-1.08-2.36-1.62-3.97-1.62s-2.88,.55-3.93,1.64c-1.05,1.1-1.57,2.5-1.57,4.2s.52,3.18,1.55,4.27c1.04,1.09,2.35,1.63,3.93,1.63s2.91-.55,3.96-1.65c1.05-1.1,1.58-2.51,1.58-4.25s-.52-3.13-1.55-4.22Zm0,0c-1.04-1.08-2.36-1.62-3.97-1.62s-2.88,.55-3.93,1.64c-1.05,1.1-1.57,2.5-1.57,4.2s.52,3.18,1.55,4.27c1.04,1.09,2.35,1.63,3.93,1.63s2.91-.55,3.96-1.65c1.05-1.1,1.58-2.51,1.58-4.25s-.52-3.13-1.55-4.22Zm-24.33-.05c-1.04-1.11-2.35-1.66-3.94-1.66s-2.92,.54-3.97,1.63c-1.05,1.09-1.57,2.51-1.57,4.27s.52,3.24,1.57,4.35c1.05,1.1,2.38,1.66,3.97,1.66s2.85-.56,3.91-1.69,1.59-2.56,1.59-4.3-.52-3.16-1.56-4.26Zm-124.32-29.3l-48.35,27.92L0,107.7H386.6l48.35-27.92,64.91-37.48H113.26Zm104.91,43.67h-5.07v-2.14c-.99,.94-1.98,1.62-2.97,2.04-1,.41-2.07,.62-3.24,.62-2.6,0-4.86-1.01-6.76-3.04-1.9-2.02-2.85-4.53-2.85-7.54s.92-5.67,2.76-7.66c1.84-1.99,4.07-2.99,6.71-2.99,1.21,0,2.34,.23,3.41,.69,1.06,.46,2.04,1.14,2.94,2.06v-2.23h5.07v20.19Zm23.15-2.52c-1.9,2.03-4.16,3.04-6.77,3.04-1.16,0-2.24-.21-3.24-.62-1.01-.42-2-1.1-2.99-2.04v2.14h-5.03v-27.98h5.03v10.02c.91-.92,1.9-1.6,2.97-2.06,1.06-.46,2.2-.69,3.41-.69,2.64,0,4.87,1,6.72,2.99,1.84,1.99,2.76,4.54,2.76,7.66s-.95,5.52-2.86,7.54Zm25.82-2.25c-.94,1.66-2.23,2.95-3.86,3.89-1.64,.93-3.44,1.4-5.4,1.4-2.9,0-5.37-1.03-7.42-3.09-2.04-2.06-3.07-4.56-3.07-7.51,0-3.15,1.16-5.78,3.47-7.88,2.03-1.83,4.36-2.75,7-2.75,1.9,0,3.69,.48,5.37,1.43s2.98,2.24,3.92,3.88c.94,1.63,1.41,3.39,1.41,5.29s-.47,3.68-1.42,5.34Zm23.28-6.87c0,3.53-.28,5.94-.83,7.24-.68,1.58-1.69,2.8-3.01,3.65-1.32,.84-3.01,1.27-5.05,1.27-2.21,0-4-.5-5.37-1.49s-2.33-2.37-2.88-4.13c-.4-1.23-.6-3.46-.6-6.68v-8.41h5.12v9.72c0,1.9,.13,3.21,.39,3.95,.26,.73,.68,1.3,1.26,1.71,.58,.41,1.29,.61,2.13,.61s1.56-.2,2.15-.6c.59-.4,1.02-.99,1.31-1.77,.21-.58,.32-1.82,.32-3.73v-9.89h5.06v8.55Zm13.77-4.19h-3.01v15.83h-5.06v-15.83h-2.6v-4.36h2.6v-7.44h5.06v7.44h3.01v4.36Zm-46.25-.11c-1.57,0-2.88,.55-3.93,1.64-1.05,1.1-1.57,2.5-1.57,4.2s.52,3.18,1.55,4.27c1.04,1.09,2.35,1.63,3.93,1.63s2.91-.55,3.96-1.65c1.05-1.1,1.58-2.51,1.58-4.25s-.52-3.13-1.55-4.22c-1.04-1.08-2.36-1.62-3.97-1.62Zm-24.3-.09c-1.59,0-2.92,.54-3.97,1.63-1.05,1.09-1.57,2.51-1.57,4.27s.52,3.24,1.57,4.35c1.05,1.1,2.38,1.66,3.97,1.66s2.85-.56,3.91-1.69,1.59-2.56,1.59-4.3-.52-3.16-1.56-4.26c-1.04-1.11-2.35-1.66-3.94-1.66Zm3.94,1.66c-1.04-1.11-2.35-1.66-3.94-1.66s-2.92,.54-3.97,1.63c-1.05,1.09-1.57,2.51-1.57,4.27s.52,3.24,1.57,4.35c1.05,1.1,2.38,1.66,3.97,1.66s2.85-.56,3.91-1.69,1.59-2.56,1.59-4.3-.52-3.16-1.56-4.26Zm24.33,.05c-1.04-1.08-2.36-1.62-3.97-1.62s-2.88,.55-3.93,1.64c-1.05,1.1-1.57,2.5-1.57,4.2s.52,3.18,1.55,4.27c1.04,1.09,2.35,1.63,3.93,1.63s2.91-.55,3.96-1.65c1.05-1.1,1.58-2.51,1.58-4.25s-.52-3.13-1.55-4.22Zm0,0c-1.04-1.08-2.36-1.62-3.97-1.62s-2.88,.55-3.93,1.64c-1.05,1.1-1.57,2.5-1.57,4.2s.52,3.18,1.55,4.27c1.04,1.09,2.35,1.63,3.93,1.63s2.91-.55,3.96-1.65c1.05-1.1,1.58-2.51,1.58-4.25s-.52-3.13-1.55-4.22Zm-24.33-.05c-1.04-1.11-2.35-1.66-3.94-1.66s-2.92,.54-3.97,1.63c-1.05,1.09-1.57,2.51-1.57,4.27s.52,3.24,1.57,4.35c1.05,1.1,2.38,1.66,3.97,1.66s2.85-.56,3.91-1.69,1.59-2.56,1.59-4.3-.52-3.16-1.56-4.26Z"/><line class="cls-2" x1="178.46" y1="76" x2="178.46"/><line class="cls-2" x1="64.91" y1="76" x2="64.91"/><line class="cls-2" x1="434.95" y1="72" x2="434.95"/><line class="cls-2" x1="321.4" y1="75" x2="321.4"/></svg>