<?xml version="1.0" encoding="UTF-8"?>
<svg id="Layer_1" xmlns="http://www.w3.org/2000/svg" viewBox="0 0 237.24 43.54">
  <path d="M55.28,13.31c.66-.52,1.27-1.02,1.91-1.48,2.24-1.61,4.73-2.66,7.44-3.15,1.11-.2,2.23-.3,3.35-.42,4.09-.42,8.19-.22,12.29-.25,2.85-.02,5.69-.04,8.54,0,4.46.07,8.82.67,12.98,2.39,2.37.98,4.27,2.53,5.74,4.6,1.75,2.46,2.66,5.22,2.96,8.21.36,3.6-.19,7.04-1.84,10.27-1.19,2.34-2.82,4.32-5.17,5.56-1.38.73-2.85,1.29-4.32,1.83-2.15.78-4.4,1.11-6.67,1.34-2.06.2-4.12.36-6.19.37-2.57.02-5.14.09-7.71.12-1.69.01-3.39,0-5.08-.04-3.41-.09-6.8-.37-10.11-1.22-2.97-.76-5.61-2.16-7.88-4.22-.06-.05-.13-.1-.21-.16-.38.31-.74.63-1.11.92-2.49,1.97-5.32,3.23-8.44,3.78-1.39.25-2.81.38-4.22.51-1.7.16-3.41.29-5.12.39-1.5.09-3,.14-4.51.16-2.43.03-4.86.03-7.29,0-3.94-.04-7.84-.41-11.66-1.39-2.46-.64-4.82-1.53-6.91-3.02-1.58-1.12-2.81-2.57-3.75-4.24C.5,31.01-.17,27.59.04,23.98c.14-2.36.69-4.62,1.72-6.75,1.19-2.44,2.9-4.39,5.21-5.88,2.24-1.44,4.7-2.14,7.27-2.58,1.95-.34,3.92-.59,5.91-.65,1.11-.04,2.21-.11,3.32-.12,4.33-.01,8.67-.03,13,0,1.58.01,3.17.15,4.75.24.88.05,1.75.09,2.63.14,2.11.13,4.12.64,6.06,1.47,1.92.82,3.67,1.91,5.21,3.32.05.04.1.07.18.13ZM80.69,34c3.98,0,7.95-.02,11.93.01,1.62.01,3.15-.31,4.66-.84,1.41-.49,2.59-1.27,3.34-2.59,1.61-2.87,1.98-5.85.78-8.97-.6-1.56-1.62-2.75-3.08-3.58-1.74-.98-3.6-1.44-5.58-1.44-7.18-.02-14.36,0-21.54,0-.65,0-1.29.05-1.94.08-1.89.07-3.72.48-5.52,1.06-2.42.79-3.99,2.84-4.17,5.21-.09,1.28-.05,2.58-.01,3.87.03,1.14.34,2.22.9,3.23.75,1.35,1.74,2.48,3.21,3.04,1.51.58,3.07.93,4.71.92,4.1-.01,8.21,0,12.31,0ZM29.55,34.04c4.21,0,8.42,0,12.62,0,.37,0,.76-.01,1.12-.1,1.12-.27,2.24-.52,3.33-.88,2-.67,3.28-2.07,3.92-4.08.45-1.4.55-2.82.52-4.27-.03-1.2-.21-2.34-.73-3.46-.77-1.64-1.94-2.81-3.62-3.45-.82-.32-1.65-.59-2.5-.82-.56-.16-1.15-.27-1.72-.29-1.63-.06-3.26-.09-4.89-.09-2.61,0-5.23.06-7.84.07-3.56.01-7.12.02-10.68,0-1.86-.01-3.67.27-5.43.8-1.17.35-2.26.86-3.16,1.73-1.28,1.23-1.87,2.75-1.89,4.49-.02,1.13.06,2.25.11,3.38.11,2.14,1.03,3.84,2.8,5.06,1.8,1.25,3.75,1.95,5.98,1.93,4.02-.04,8.04-.01,12.06-.01Z"/>
  <path d="M134.02,11.79h4.71c.05.65.02,1.31.02,1.97,0,.67,0,1.34,0,2.04.28-.03.35-.26.46-.41,1.62-2.09,3.7-3.49,6.3-4.05,2.29-.5,4.57-.41,6.78.42,2.07.77,3.51,2.2,4.4,4.21.04.1.08.19.12.29,0,.02.03.03.09.11.17-.21.33-.41.49-.61,1.3-1.74,2.91-3.11,4.95-3.92,1.72-.68,3.5-.9,5.35-.72,1.01.1,1.99.25,2.94.59,2.52.91,4.13,2.69,4.9,5.23.32,1.04.51,2.11.54,3.2.02.94.08,1.88.08,2.82,0,6.34,0,12.68,0,19.02v.83c-1.79.02-3.54.01-5.36,0,0-.3,0-.54,0-.78,0-6.42.01-12.85-.01-19.27,0-1.02-.11-2.04-.26-3.05-.37-2.42-2.33-3.67-4.17-3.91-2.39-.32-4.51.27-6.29,1.94-.95.89-1.49,1.99-1.85,3.22-.33,1.13-.47,2.29-.47,3.46-.01,5.86,0,11.72,0,17.58v.78h-5.32c0-.24,0-.48,0-.72,0-6.53.01-13.06-.01-19.59,0-1.46-.19-2.91-.85-4.26-.62-1.28-1.63-2.05-3.01-2.32-2.62-.51-4.93.12-6.87,1.98-.98.94-1.51,2.14-1.82,3.45-.35,1.47-.51,2.96-.51,4.47,0,5.4,0,10.8,0,16.2,0,.25,0,.5,0,.73-.47.14-4.37.19-5.32.06V11.79Z"/>
  <path d="M237.24,28.64h-23.17c.05.53.08,1,.14,1.47.3,2.1.89,4.08,2.26,5.76,1.49,1.82,3.39,2.93,5.76,3.21,1.31.15,2.59.06,3.84-.32,2.14-.66,3.62-2.1,4.63-4.05.31-.61.58-1.24.88-1.9,1.8.23,3.59.46,5.41.69-.18.98-.52,1.81-.9,2.61-1.37,2.95-3.52,5.1-6.55,6.34-1.44.59-2.95.88-4.5,1.02-1.8.16-3.59.06-5.36-.28-2.66-.51-4.97-1.7-6.89-3.61-1.85-1.85-2.98-4.11-3.6-6.64-.51-2.08-.68-4.2-.59-6.34.1-2.47.44-4.91,1.46-7.2,2.04-4.59,5.51-7.35,10.5-8.14,2.52-.4,5.01-.26,7.42.58,3.72,1.31,6.3,3.86,7.82,7.47.83,1.96,1.22,4.03,1.31,6.15.05,1.02.08,2.04.12,3.17ZM231.56,24.21c-.04-1.09-.35-2.59-.77-3.66-.81-2.07-2.26-3.54-4.29-4.41-1.4-.6-2.88-.78-4.41-.61-2.09.23-3.84,1.11-5.26,2.63-1.57,1.68-2.28,3.74-2.44,6.05h17.16Z"/>
  <path d="M197.03,42.78V0h5.25v42.78h-5.25Z"/>
  <path d="M183.85,11.8h5.17c.13.43.18,30.05.04,30.99h-5.21V11.8Z"/>
  <path d="M189.11,0v5.89c-.46.13-4.22.16-5.19.06-.13-.44-.16-5.15-.03-5.95h5.23Z"/>
</svg>