<?xml version="1.0" encoding="UTF-8"?>
<svg xmlns="http://www.w3.org/2000/svg" viewBox="0 0 967.16 967.16">
    <defs>
        <style>
            .logo_01 {
                fill:#4c4239;
            }
            .logo_02 {
                fill:inherit;
            }
        </style>
    </defs>
    <g>
        <circle class="logo_01" cx="483.58" cy="483.58" r="483.58"/>
        <path class="logo_02" d="M201.5,438.08l44.5-44.5-44.73-44.73H112.6v-.19C167.72,197.13,313.01,88.93,483.58,88.93c202.56,0,369.5,152.63,392.06,349.15H201.5Z"/>
        <path class="logo_02" d="M854.56,617.55v.19c-55.11,151.52-200.4,259.73-370.98,259.73-202.56,0-369.5-152.63-392.06-349.15H765.66l-44.5,44.5,44.73,44.73h88.66Z"/>
    </g>
    <path class="logo_01" d="M965.03,438.08c-.19-1.91-.37-3.84-.57-5.75-.2-1.91-.42-3.83-.63-5.72-.23-1.91-.46-3.81-.71-5.71-.99-7.6-2.14-15.15-3.47-22.63-.34-1.87-.68-3.73-1.03-5.6-.35-1.87-.73-3.73-1.1-5.58-.32-1.59-.65-3.19-.99-4.77-.51-2.34-1.02-4.67-1.54-7-.37-1.62-.76-3.22-1.14-4.83-.35-1.48-.71-2.95-1.08-4.41-.12-.52-.26-1.05-.4-1.59-.42-1.65-.83-3.3-1.28-4.95-.46-1.74-.93-3.47-1.4-5.21-.05-.14-.09-.29-.12-.45-.42-1.47-.83-2.95-1.25-4.41-.15-.54-.32-1.11-.48-1.67-.45-1.5-.89-2.99-1.34-4.47-.54-1.8-1.1-3.58-1.65-5.37-.56-1.77-1.14-3.55-1.71-5.32-.59-1.76-1.17-3.52-1.76-5.26-.73-2.13-1.47-4.24-2.22-6.36-.51-1.4-1.02-2.81-1.53-4.21-2.56-6.97-5.28-13.88-8.16-20.7-.71-1.71-1.43-3.41-2.17-5.11-.62-1.42-1.23-2.84-1.87-4.24-.88-1.96-1.77-3.92-2.67-5.88-.73-1.56-1.47-3.13-2.21-4.69-.09-.19-.17-.37-.26-.56-.52-1.11-1.05-2.21-1.59-3.29-.49-1.03-1-2.07-1.51-3.1-.22-.43-.43-.86-.65-1.3-.57-1.16-1.16-2.33-1.76-3.49-.76-1.48-1.51-2.96-2.28-4.43-.57-1.11-1.16-2.21-1.74-3.3-10.46-19.67-22.24-38.53-35.23-56.46-1.02-1.4-2.04-2.81-3.07-4.2-.09-.14-.19-.26-.29-.4-.93-1.25-1.87-2.5-2.81-3.75-.2-.26-.4-.54-.6-.8-.79-1.02-1.56-2.04-2.34-3.04-.42-.54-.83-1.08-1.26-1.64-.94-1.22-1.9-2.42-2.87-3.64-1-1.26-2.02-2.53-3.04-3.78-.88-1.08-1.76-2.16-2.64-3.22s-1.76-2.13-2.65-3.19c-1.6-1.9-3.21-3.79-4.84-5.66-.96-1.13-1.93-2.24-2.92-3.33-6.54-7.42-13.3-14.62-20.28-21.61-.99-1-1.99-1.99-2.99-2.98-1.59-1.57-3.19-3.13-4.83-4.67-1.31-1.26-2.64-2.51-3.96-3.76-1.33-1.25-2.67-2.48-4.01-3.72-1.33-1.22-2.67-2.42-4.01-3.64-.02-.02-.05-.03-.08-.06-1.02-.91-2.05-1.84-3.09-2.73-1.96-1.74-3.95-3.47-5.95-5.17-.91-.77-1.84-1.54-2.75-2.31-.43-.37-.86-.74-1.31-1.1-1.16-.97-2.33-1.93-3.5-2.88-1.4-1.16-2.82-2.31-4.24-3.44-1.43-1.14-2.87-2.28-4.3-3.39-1.43-1.13-2.88-2.25-4.33-3.35-1.45-1.11-2.92-2.21-4.38-3.3-5.85-4.37-11.82-8.59-17.88-12.69-.93-.65-1.88-1.28-2.82-1.9-.77-.52-1.56-1.05-2.34-1.56-1.62-1.08-3.25-2.13-4.89-3.18-1.84-1.19-3.69-2.34-5.54-3.5-1.4-.88-2.82-1.74-4.24-2.59-3.67-2.25-7.37-4.43-11.11-6.57-1.37-.79-2.75-1.56-4.13-2.33-1.59-.89-3.18-1.76-4.77-2.62-.2-.12-.42-.23-.63-.34-1.33-.74-2.67-1.45-4.01-2.16-2.05-1.1-4.1-2.17-6.19-3.22-1.7-.88-3.39-1.73-5.11-2.58-5.26-2.62-10.57-5.14-15.92-7.56-.94-.43-1.9-.85-2.85-1.26-.85-.39-1.71-.77-2.58-1.14-.77-.34-1.54-.68-2.31-1-1-.45-2.02-.88-3.02-1.3-1.87-.79-3.73-1.57-5.61-2.33-1.76-.73-3.53-1.43-5.31-2.13-1.71-.68-3.42-1.34-5.15-2.01-2.33-.89-4.66-1.76-7-2.61-1.48-.54-2.98-1.06-4.46-1.59-1.3-.46-2.59-.91-3.9-1.36-1.31-.46-2.62-.89-3.95-1.33-.56-.2-1.11-.39-1.67-.56-1.16-.39-2.3-.76-3.46-1.13-.71-.23-1.4-.45-2.1-.66-1.14-.37-2.28-.72-3.42-1.06-.71-.23-1.4-.43-2.1-.65-1.2-.37-2.41-.72-3.61-1.06-1.51-.45-3.02-.89-4.54-1.33-1.77-.49-3.55-.99-5.34-1.47-1.64-.45-3.27-.88-4.91-1.3-2.22-.59-4.44-1.14-6.68-1.68-1.51-.37-3.02-.74-4.54-1.08-6.56-1.54-13.17-2.95-19.84-4.2-1.68-.34-3.38-.65-5.07-.94-2.59-.46-5.2-.91-7.79-1.33-1.3-.22-2.59-.42-3.9-.62-.32-.05-.63-.09-.94-.14-1.54-.25-3.1-.46-4.66-.69-1.62-.23-3.25-.45-4.87-.65-1.36-.19-2.71-.35-4.07-.52-.63-.08-1.28-.15-1.93-.23-1.45-.17-2.9-.34-4.35-.49-1.62-.19-3.24-.35-4.86-.51-1.16-.12-2.33-.23-3.5-.32-.77-.08-1.53-.15-2.28-.22-1.2-.11-2.42-.2-3.64-.29-.85-.08-1.7-.14-2.55-.2-1.36-.11-2.71-.2-4.09-.28-2.47-.17-4.95-.32-7.43-.43-2.01-.11-4.01-.2-6.03-.28-1.56-.06-3.12-.11-4.67-.15-.76-.02-1.51-.05-2.25-.06-3.9-.09-7.84-.14-11.77-.14-2.22,0-4.44,.02-6.66,.05-1.51,.02-3.02,.05-4.52,.09-1.25,.02-2.51,.05-3.76,.09-.37,0-.74,.02-1.11,.05-1.26,.03-2.55,.08-3.81,.12-1.68,.06-3.35,.14-5.01,.23-2.07,.11-4.12,.22-6.17,.35-1.59,.09-3.18,.2-4.75,.32-1.17,.08-2.34,.17-3.5,.26-1.17,.09-2.34,.2-3.5,.29-.31,.03-.62,.06-.93,.09-1.74,.15-3.47,.31-5.18,.49-1.05,.09-2.08,.2-3.12,.32-2.99,.31-5.95,.66-8.93,1.03-1.93,.23-3.84,.49-5.77,.76-1.19,.17-2.38,.34-3.56,.51-1.36,.2-2.71,.4-4.07,.62-1.23,.19-2.45,.37-3.67,.57-.93,.15-1.84,.31-2.75,.46-1.65,.26-3.29,.56-4.92,.85-1.96,.34-3.9,.71-5.85,1.08-1.74,.34-3.47,.68-5.21,1.03-.51,.09-1,.2-1.5,.31-1.68,.34-3.36,.69-5.04,1.06-.03,0-.06,.02-.08,.02-1.94,.42-3.89,.86-5.83,1.31-3.49,.8-6.97,1.65-10.43,2.53-.8,.2-1.62,.42-2.42,.63-1.36,.34-2.7,.69-4.04,1.06-4.24,1.14-8.44,2.33-12.62,3.58-2.92,.86-5.82,1.77-8.7,2.7-.28,.08-.54,.17-.8,.25-1.48,.48-2.95,.96-4.41,1.45-1.13,.37-2.25,.76-3.38,1.14-1.34,.45-2.7,.91-4.04,1.39-7.03,2.47-13.99,5.09-20.87,7.88-1.16,.45-2.3,.91-3.44,1.4-1.3,.52-2.59,1.06-3.87,1.6-1.59,.66-3.18,1.36-4.77,2.04-3.15,1.37-6.28,2.78-9.39,4.23-1.47,.66-2.93,1.36-4.38,2.05-6.56,3.1-13.02,6.34-19.4,9.73-1.45,.76-2.88,1.53-4.32,2.31-1.71,.93-3.42,1.87-5.12,2.82-1.5,.83-2.99,1.68-4.49,2.53-6.94,4-13.79,8.14-20.53,12.46-1.64,1.05-3.27,2.1-4.89,3.18-3.56,2.34-7.1,4.74-10.6,7.17-.97,.68-1.94,1.36-2.9,2.04-6,4.24-11.89,8.62-17.69,13.14-1.05,.8-2.08,1.62-3.12,2.44-.54,.43-1.08,.86-1.62,1.3-.93,.74-1.85,1.48-2.76,2.22-1.13,.91-2.25,1.82-3.38,2.76-1.36,1.11-2.68,2.22-4.01,3.33-.14,.12-.29,.26-.45,.39-1.48,1.25-2.95,2.51-4.41,3.78-2.16,1.87-4.3,3.75-6.42,5.66-1.05,.93-2.08,1.87-3.1,2.81-2.36,2.14-4.69,4.32-7,6.52-.73,.68-1.43,1.36-2.14,2.04-.89,.86-1.79,1.74-2.68,2.61-1.05,1-2.08,2.02-3.1,3.05-.69,.68-1.37,1.37-2.05,2.05l-3.05,3.1c-1.13,1.14-2.24,2.28-3.33,3.44-2.39,2.5-4.75,5.03-7.1,7.59-.86,.94-1.73,1.88-2.58,2.82-5.8,6.42-11.43,13-16.88,19.73-.79,.96-1.56,1.93-2.33,2.9-.97,1.2-1.91,2.41-2.87,3.61-4.95,6.34-9.75,12.8-14.39,19.39-.93,1.3-1.84,2.61-2.75,3.93-1.82,2.62-3.61,5.28-5.37,7.94-2.01,3.01-3.95,6.05-5.88,9.1-.63,.99-1.25,1.99-1.85,2.98-1.71,2.75-3.39,5.52-5.03,8.3-.82,1.37-1.64,2.76-2.44,4.15-.8,1.37-1.59,2.76-2.36,4.13-1.03,1.82-2.05,3.64-3.05,5.48-.56,1-1.1,2.01-1.64,3.01-3.09,5.71-6.06,11.49-8.92,17.34-.68,1.4-1.36,2.79-2.02,4.2-.69,1.47-1.39,2.92-2.07,4.38-1.36,2.93-2.68,5.88-4,8.84-.65,1.48-1.3,2.96-1.93,4.46-.63,1.48-1.26,2.98-1.88,4.47-.59,1.4-1.17,2.82-1.74,4.24-.8,1.97-1.59,3.95-2.36,5.94-1.51,3.87-2.98,7.77-4.38,11.69-.8,2.19-1.57,4.41-2.33,6.62-.4,1.16-.79,2.3-1.17,3.44-1.56,4.64-3.04,9.32-4.46,14.02-.46,1.56-.93,3.13-1.39,4.7-.45,1.53-.88,3.05-1.31,4.6-.17,.6-.34,1.22-.51,1.84-.4,1.47-.8,2.95-1.19,4.43-.45,1.65-.86,3.3-1.3,4.95-.37,1.45-.73,2.92-1.08,4.38-.35,1.4-.69,2.82-1.02,4.24-.56,2.39-1.1,4.78-1.62,7.19-.37,1.65-.72,3.3-1.05,4.97-1.67,8.02-3.13,16.13-4.38,24.31-.59,3.78-1.13,7.56-1.6,11.37-.25,1.9-.49,3.81-.71,5.71-.23,1.91-.43,3.83-.63,5.74-.2,1.91-.39,3.84-.57,5.75-1.42,14.98-2.13,30.16-2.13,45.5,0,267.07,216.51,483.58,483.58,483.58s483.58-216.51,483.58-483.58c0-15.35-.71-30.53-2.13-45.5Zm-110.48,179.66c-55.11,151.52-200.4,259.73-370.98,259.73-199.91,0-365.12-148.65-391.09-341.44H757.95l-36.79,36.79,44.73,44.73h88.66v.19ZM208.44,431.14l37.56-37.56-44.73-44.73H112.6v-.19C167.72,197.13,313.01,88.93,483.58,88.93c200.17,0,365.55,149.05,391.2,342.21H208.44Z"/>
    <g>
        <path class="logo_02" d="M387.37,477.18c.51-3.24,.36-6.04-.06-8.8-.89-5.79-4.43-8.98-10.27-9.85-5.56-.83-10.52,.3-14.88,3.88-2.61,2.15-5.2,4.34-7.82,6.48-.87,.71-1.82,1.34-2.99,2.2-.24-1.07-.47-1.76-.54-2.46-.41-4.12-.31-8.22,.23-12.33,.27-2.01,1.14-3.58,2.58-4.96,2.81-2.69,6.04-4.7,9.69-5.98,7.43-2.6,14.99-2.85,22.59-.88,7.41,1.92,12.29,6.62,14.78,13.85,1.9,5.52,2.2,11.25,2.27,16.99,.12,10.3,.13,20.61,.19,30.92,.01,1.77,.04,3.53,.09,5.3,.02,.73,.06,1.48,.24,2.19,.4,1.62,1.76,2.44,3.36,1.89,1.52-.52,2.96-1.28,4.43-1.93,.9-.4,1.8-.8,2.64-1.17,.33,.47,.6,.69,.61,.91,.51,9.38-.59,10.85-9.58,13.3-3.05,.83-6.05,.99-9.15,.31-3.06-.67-5.43-2.16-6.9-4.97-.27-.51-.62-.98-1.08-1.7-1.21,.67-2.34,1.26-3.43,1.92-3.29,1.98-6.72,3.59-10.47,4.55-15.18,3.88-25.9-8.3-24.11-22.31,.52-4.04,2.27-7.57,4.59-10.87,1.39-1.98,3.23-3.44,5.33-4.54,2.61-1.36,5.25-2.67,7.95-3.82,5.14-2.18,10.34-4.23,15.52-6.34,1.35-.55,2.69-1.14,4.21-1.79Zm-.18,9.88c-.57,.03-1.05-.07-1.42,.09-4.56,2.05-9.13,4.07-13.62,6.25-1.43,.69-2.76,1.71-3.94,2.79-3.15,2.89-4.35,6.56-3.8,10.78,.69,5.28,4.88,9.03,10.2,9.22,3.19,.12,6.06-.84,8.8-2.41,3.06-1.75,4.79-4.12,4.62-7.83-.26-5.73-.3-11.47-.47-17.2-.02-.55-.23-1.09-.37-1.68Z"/>
        <path class="logo_02" d="M604.7,465.39c-2.93-1.57-5.51-2.95-8.08-4.34-3.66-1.98-7.52-3.38-11.71-3.61-1.6-.09-3.27-.04-4.81,.35-5.91,1.49-7.61,7.36-3.66,11.54,1.3,1.38,2.79,2.62,4.35,3.71,2.66,1.84,5.48,3.45,8.16,5.25,3.05,2.05,6.09,4.12,9.02,6.34,2.59,1.96,4.72,4.4,6.68,7.01,8.97,11.94,3.06,31.15-13.16,35.01-4.95,1.18-9.89,1.14-14.88,.23-6.95-1.26-13.91-3.58-18.62-6.4-.46-2.86-.44-11.53,.07-16.52,.84,.32,1.64,.54,2.36,.93,4.01,2.16,7.93,4.49,12.02,6.49,3.47,1.69,7.21,2.49,11.13,2.2,2.74-.21,5.17-1.11,7.18-3,3.3-3.11,3.49-7.76,.35-11.02-1.21-1.26-2.68-2.29-4.14-3.28-3.42-2.3-6.97-4.39-10.34-6.77-3.6-2.54-7.19-5.14-10.51-8.02-3.99-3.45-6.58-7.87-7.55-13.14-1.53-8.33,1.18-15.05,7.79-20.23,2.71-2.12,5.85-3.46,9.21-4.06,10.44-1.87,20.12,.24,28.97,5.66,.96,4.68,1.09,11.84,.19,15.68Z"/>
        <path class="logo_02" d="M549.43,508.44c.87,3.76,.86,10.29,.25,12.89-.34,1.43-1.24,2.2-2.44,2.82-3.12,1.6-6.47,2.45-9.9,2.98-4.89,.75-9.77,.77-14.61-.46-3.41-.86-6.56-2.28-9.22-4.58-3.71-3.2-6.48-6.97-6.73-12.13-.21-4.18-.6-8.35-.66-12.53-.15-10.54-.14-21.09-.22-31.63,0-1.42-.11-2.83-.17-4.39-2.27-.83-4.44-.35-6.55-.48-2.12-.13-4.28,.26-6.73-.4,.33-.8,.47-1.5,.86-2.01,1.04-1.38,2.08-2.79,3.3-4.01,7.37-7.33,14.79-14.61,22.21-21.89,.49-.48,1.12-.83,2.01-1.48,1.23,5.12,.3,10.04,.96,15.07,.98,.15,1.94,.41,2.89,.42,5.49,.04,10.97,0,16.46,.04,1.4,.01,2.89-.34,4.41,.7,.51,4.15,.23,8.43,.21,12.95-1.14,.21-2.08,.52-3.02,.53-5.34,.05-10.68,.03-16.03,.03-1.43,0-2.87,0-4.48,0-.23,1-.55,1.8-.58,2.61-.45,11.84-.77,23.68,.06,35.51,.17,2.44,.5,4.89,1.03,7.28,.93,4.26,3.41,6.37,7.75,6.98,2.63,.37,5.21-.08,7.7-.77,2.63-.73,5.18-1.77,7.76-2.7,1.07-.38,2.12-.81,3.49-1.33Z"/>
        <path class="logo_02" d="M445.28,525.84h-15.04c-1.1-1.47-.76-3.14-.79-4.7-.15-9.12-.36-18.24-.32-27.36,.06-14.56,.3-29.12,.49-43.68,.02-1.45,.2-2.89,.33-4.57,4.96-.76,9.75-.26,14.77-.33,.2,1.17,.5,2.13,.5,3.09,0,3.09-.11,6.18-.16,9.26-.02,1.15,0,2.31,0,3.33,1.15,.68,1.58-.08,2-.61,1.53-1.98,2.99-4.01,4.51-5.99,2.34-3.06,5.04-5.73,8.22-7.93,4.71-3.26,9.82-3.7,15.16-2.18,5.06,1.44,9.24,4.39,13.15,8.15-.73,2.74-2.62,4.86-3.96,7.24-1.29,2.29-2.77,4.47-4.31,6.94-1.41-1-2.58-1.83-3.76-2.66-2.91-2.03-5.95-3.72-9.45-4.6-4.33-1.09-8.28-.3-11.61,2.49-5.37,4.5-9.07,10.14-9.34,17.33-.35,9.26-.39,18.52-.46,27.79-.04,5.15,.12,10.3,.17,15.44,.01,1-.05,2.01-.1,3.53Z"/>
    </g>
    <g>
        <path class="logo_01" d="M492.13,717.17c-4.42,.43-8.47,.43-12.45,.05-1.01-1.66-.85-3.32-.86-4.9-.04-4.12-.02-8.24,.11-12.36,.25-7.66,.33-15.31-.54-22.93-.27-2.31-.73-4.67-1.56-6.84-2.03-5.27-6.85-8.37-12.46-8.07-5.32,.28-9.97,2.33-13.92,5.93-1.5,1.37-2.22,2.98-2.08,5.08,.47,6.75,.82,13.51,1.25,20.27,.43,6.75,.91,13.51,1.35,20.26,.07,1.01,0,2.03,0,2.99-2.09,1.31-4.2,.77-6.2,.81-2.02,.04-4.1,.37-6.23-.46-.21-.68-.55-1.34-.62-2.04-.65-6-1.21-12-1.9-17.99-.87-7.6-1.81-15.19-2.76-22.78-.15-1.16-.46-2.31-.74-3.45-1.24-4.99-4.73-8.22-9.75-8.85-6.09-.76-11.3,1.19-15.72,5.38-1.58,1.5-2.38,3.28-2.09,5.53,.45,3.5,.72,7.03,1.23,10.52,1.54,10.48,3.17,20.94,4.73,31.41,.1,.69,.01,1.41,.01,2.05-3.48,.92-7.2,.99-11.73,.24-.26-.86-.64-1.81-.83-2.79-3.7-19.66-6.88-39.4-9.29-59.27-.1-.85-.01-1.71-.01-2.81,4.36-1.05,8.55-.59,12.7-.39,1.25,2.58,.99,5.18,1.74,7.83,.75-.43,1.4-.72,1.95-1.14,1.64-1.25,3.22-2.57,4.85-3.83,7.94-6.2,16.31-5.71,24.83-1.42,2.92,1.47,5.24,3.77,7.39,6.22,.75,.86,1.55,1.69,2.47,2.67,1.1-1.07,2.04-1.98,2.96-2.88,2.76-2.7,5.84-4.94,9.35-6.56,6.43-2.97,13.1-3.5,19.76-1.18,9.48,3.31,14.14,10.57,15.38,20.23,.32,2.47,.29,5,.27,7.5-.09,11.77-.23,23.55-.36,35.32,0,.73-.12,1.45-.23,2.66Z"/>
        <path class="logo_01" d="M371.6,717.24c-.37-1.15-.82-2.22-1.06-3.33-1.76-8.2-3.39-16.42-5.24-24.6-1.07-4.73-2.31-9.44-3.78-14.05-.79-2.49-1.95-4.97-3.44-7.11-5.29-7.57-15.06-8.04-21.29-1.23-1.6,1.74-2.37,3.58-1.73,6.03,1.46,5.55,2.64,11.17,4.13,16.7,2.19,8.09,4.56,16.14,6.84,24.21,.27,.96,.46,1.95,.69,2.91-2.44,.68-7.96,1.01-9.68,.46-.63-.2-1.31-.75-1.61-1.32-.53-1.04-.81-2.2-1.14-3.34-2.35-8.2-4.58-16.44-7.05-24.61-1.53-5.06-3.31-10.06-5.17-15.01-.77-2.04-1.89-3.99-3.1-5.82-1.59-2.4-3.89-4.02-6.67-4.83-4.45-1.29-8.45-.53-11.8,2.83-2.44,2.46-3.64,5.11-2.4,8.74,3.19,9.32,6.1,18.74,9.22,28.09,1.35,4.05,2.95,8.01,4.4,12.02,.34,.93,.56,1.91,.91,3.16-3.34,.59-6.37,.28-9.61,.24-.52-1.03-1.11-2.02-1.55-3.07-7.94-19.2-14.4-38.9-19.97-58.9-.2-.71-.34-1.43-.46-2.16-.04-.26,.05-.55,.12-1.1,3.37-.88,6.85-.33,10.27-.34,2.08,2.01,1.29,5.13,3.04,7.32,.43-.27,.84-.42,1.1-.7,.59-.66,1.09-1.39,1.64-2.08,4.43-5.52,10.49-7.84,19.07-5.05,3.43,1.12,6.26,3.23,8.83,5.7,1.58,1.52,3.13,3.07,4.67,4.57,1.18,.02,1.38-1.01,1.91-1.63,.95-1.12,1.8-2.34,2.8-3.41,5.7-6.13,12.68-7.74,20.55-5.44,8.57,2.5,13.96,8.52,17.09,16.6,1.53,3.96,2.57,8.14,3.6,12.27,2.76,11.14,4.96,22.41,6.86,33.73,.17,.99,.13,2.02,.2,3.23-3.73,1.03-7.34,.58-11.2,.33Z"/>
        <path class="logo_01" d="M672.44,699.47c.13-3.71,.72-7.31,1.8-10.86,3.1-10.22,8.51-19.02,16.28-26.33,5.68-5.34,12.21-9.23,20.02-10.47,2.58-.41,5.31-.58,7.89-.22,7.42,1.02,12.67,6.87,13.55,14.74,.63,5.65-.13,11.18-2.1,16.48-4.99,13.42-13.59,23.93-25.82,31.42-3.79,2.32-7.87,3.92-12.31,4.56-9.89,1.43-17.76-4.54-18.96-14.49-.19-1.6-.22-3.22-.33-4.84Zm11.55-4.94c.14,2,.12,3.19,.33,4.34,.88,4.93,4.51,8.05,9.54,8.11,1.45,.02,2.92-.24,4.35-.56,2.77-.62,5.23-1.96,7.51-3.61,7.18-5.18,12-12.08,14.46-20.54,.73-2.5,1.1-5.23,1-7.83-.28-7.38-6.03-11.71-13.3-10.34-3.86,.73-7.23,2.45-10.2,4.96-6.23,5.29-10.55,11.83-12.66,19.75-.56,2.11-.78,4.32-1.02,5.7Z"/>
        <path class="logo_01" d="M587.14,656.05c-.23,4.23-.82,8.4-1.86,12.5-1.68,.18-2.69-.75-3.83-1.3-2.64-1.28-5.21-2.74-7.92-3.84-3.33-1.35-6.84-1.88-10.33-.61-1.35,.49-2.69,1.23-3.77,2.16-1.94,1.68-2.27,4.21-.81,6.37,.88,1.31,2.07,2.5,3.34,3.43,2.48,1.83,5.15,3.4,7.69,5.15,2.42,1.67,4.91,3.27,7.11,5.2,7.65,6.74,8.32,14.98,2.97,23.33-3.7,5.78-9.24,9.02-15.97,9.92-8.91,1.2-17.17-1.06-25.09-5.21-.48-3.96,.83-7.66,1-11.44,.02-.52,.47-1.01,.81-1.7,2.3,1.32,4.46,2.56,6.62,3.78,3.09,1.76,6.33,3.11,9.84,3.75,3.17,.58,6.2,.05,8.91-1.61,1.21-.74,2.31-1.86,3.08-3.05,1.37-2.12,1.03-4.7-.73-6.48-1.02-1.04-2.22-1.93-3.43-2.76-2.67-1.82-5.46-3.47-8.1-5.34-2.63-1.87-5.31-3.74-7.65-5.95-7.69-7.28-7.66-18.04-.12-25.45,3.48-3.42,7.72-5.45,12.43-6.23,8.37-1.38,16.4-.2,23.89,3.98,.63,.35,1.17,.84,1.92,1.39Z"/>
        <path class="logo_01" d="M224.65,669.17c.06-1.32,.06-2.65,.21-3.96,.93-8.14,6.45-13.33,14.61-13.81,4.2-.25,8.19,.61,12.05,2.16,4,1.6,7.61,3.86,10.82,6.72,10.9,9.73,17.85,21.71,20.34,36.18,.66,3.81,.49,7.63-.55,11.37-2.18,7.8-8.05,10.86-13.79,10.85-3.12,0-6.21-.26-9.06-1.53-2.94-1.32-5.95-2.63-8.58-4.45-12.01-8.32-20.24-19.49-24.49-33.52-.99-3.25-1.58-6.57-1.54-9.99Zm46.94,26.41c-.01-.26,0-.85-.08-1.43-1.91-13.18-8.88-22.74-20.73-28.72-1.54-.78-3.32-1.23-5.04-1.5-5.16-.8-9.29,2.07-10.5,7.14-.45,1.87-.6,3.74-.26,5.67,2.11,11.79,8.38,20.8,18.24,27.4,1.32,.88,2.86,1.51,4.38,2.02,8.21,2.76,14.06-1.56,13.98-10.58Z"/>
        <path class="logo_01" d="M639.62,669.25c-1.88-1.22-3.1-2.01-4.31-2.8-3.11-2.03-6.43-3.52-10.13-4.15-2.74-.46-5.31,0-7.65,1.39-3.87,2.31-4.51,6.34-1.55,9.69,.97,1.09,2.13,2.03,3.28,2.94,2.43,1.9,4.94,3.71,7.38,5.61,2.34,1.82,4.43,3.89,5.92,6.49,1.98,3.45,2.59,7.07,1.7,11.04-2.11,9.48-11.17,18.98-23.54,19.16-6.97,.1-13.28-1.87-19.09-5.34,.07-4.45,1.21-9.54,2.97-13.26,1.48,.97,2.94,1.91,4.39,2.87,2.95,1.96,5.99,3.71,9.5,4.52,4.42,1.02,8.14-.35,11.37-3.27,2.68-2.43,2.9-6.63,.01-8.92-2.07-1.64-4.17-3.27-6.2-4.96-2.82-2.35-5.85-4.52-8.35-7.18-6.13-6.53-6.64-15.34-1.49-22.67,1.25-1.78,2.82-3.42,4.5-4.8,3.73-3.05,8.09-4.74,12.9-5.23,6.95-.71,13.47,.54,19.48,4.18,1.29,.78,1.85,1.77,1.49,3.3-.84,3.56-1.62,7.13-2.59,11.4Z"/>
        <path class="logo_01" d="M751.43,651.86c3.15-.17,5.77-.39,8.72,.16-.53,2.08-1.02,3.98-1.65,6.47,1.48-1.24,2.46-2.09,3.47-2.91,2.29-1.87,4.68-3.56,7.48-4.6,6.45-2.38,10.74,.49,11.09,7.39,.15,2.99-.41,5.89-1.45,8.64-1.67,4.39-3.36,8.79-5.36,13.04-5.44,11.59-11.68,22.75-18.3,33.71-2.5,4.13-3.04,4.32-8.24,3.19-.28-1.48,.83-2.43,1.44-3.54,4.31-7.86,8.79-15.64,12.93-23.59,2.57-4.94,4.73-10.12,6.9-15.26,.91-2.15,1.44-4.47,2.03-6.74,.22-.83,.27-1.76,.19-2.62-.21-2.16-1.71-3.57-3.85-3.35-1.57,.16-3.23,.56-4.6,1.31-4.75,2.6-8.49,6.16-10.65,11.32-5.56,13.31-11.95,26.21-18.92,38.84-.71,1.28-1.48,2.52-2.27,3.85-2.39,.47-4.71,.26-7.39,.2,.19-.98,.18-1.83,.51-2.51,2.12-4.36,4.31-8.7,6.5-13.02,7.46-14.7,13.79-29.89,19.57-45.32,.56-1.5,1.17-2.97,1.84-4.66Z"/>
        <path class="logo_01" d="M229.92,703.09c2.54,4.04,4.38,8,6.37,11.96-1.74,2.28-4,3.16-6.53,3.47-3.28,.41-6.44-.06-9.49-1.34-3.28-1.38-6.22-3.29-8.98-5.53-4.37-3.54-8.12-7.66-11.49-12.14-5.69-7.57-10.25-15.75-13.31-24.74-1.52-4.48-2.66-9.03-2.41-13.81,.07-1.31,.16-2.66,.51-3.92,1.17-4.22,3.83-6.51,8.19-6.77,2.47-.15,5.01,0,7.45,.42,3.28,.57,6.07,2.22,7.93,5.11,2.49,3.85,3.85,8.13,5.04,12.73-1.58,.11-2.41-.76-3.36-1.29-2.69-1.5-5.34-3.09-8.39-3.8-4.27-1-6.97,.68-7.48,5.01-.22,1.86-.13,3.86,.29,5.68,2.59,11.05,8.18,20.38,16.61,27.97,1.51,1.36,3.3,2.45,5.1,3.43,3.19,1.75,6.48,1.68,9.7-.05,1.29-.7,2.55-1.44,4.23-2.39Z"/>
        <path class="logo_01" d="M513.64,652.3c3.87-.85,10.41-.83,13.82,.01,.07,.53,.24,1.11,.2,1.67-1.51,20.53-3.04,41.06-4.58,61.58-.03,.41-.31,.8-.58,1.46-3.79,.84-7.69,.45-11.45,.26-1.25-1.29-.75-2.68-.69-3.93,.27-5.88,.68-11.74,.97-17.62,.57-11.46,1.09-22.91,1.64-34.37,.15-3.06,.18-6.14,.67-9.07Z"/>
        <path class="logo_01" d="M672.19,651.79c-.31,1.8-.43,2.94-.71,4.05-5,19.38-10.83,38.5-17.97,57.2-.37,.96-.73,1.93-1.11,2.88-.36,.9-1.02,1.46-1.99,1.48-2.77,.08-5.54,.33-8.21-.19-.12-.31-.19-.44-.23-.59-.04-.14-.07-.29-.06-.42,.03-.29,.05-.59,.13-.87,.13-.42,.31-.82,.45-1.24,3.62-11.34,7.42-22.64,10.81-34.05,2.72-9.15,4.95-18.44,7.42-27.76,1.78-1.02,3.73-.5,5.59-.57,1.75-.07,3.5,.04,5.87,.08Z"/>
        <path class="logo_01" d="M530.43,629.77c-.08,4.79-4.34,8.78-9.27,8.69-4.62-.09-8.46-4-8.31-8.48,.14-4.42,4.45-8.61,9.09-8.47,5.6,.16,8.63,4.36,8.49,8.27Z"/>
        <path class="logo_01" d="M678.91,629.14c-.46,3.51-2.31,6.55-5.8,8.39-4.39,2.32-8.81-.3-9.06-5.25-.21-4.16,2.65-8.68,6.41-10.16,4.25-1.67,8.12,.77,8.44,5.31,.03,.44,0,.88,0,1.71Z"/>
    </g>
    <g>
        <g>
            <path class="logo_01" d="M475.46,257.05c1.84-.73,3.19-1.26,4.54-1.81,3.42-1.39,6.93-2.37,10.61-2.85,9.48-1.23,17.39,1.77,23.77,8.8,4.87,5.37,7.57,11.82,9.04,18.86,1.13,5.42,1.12,10.82-.35,16.16-2.08,7.54-6.47,13.44-12.91,17.84-5.32,3.64-11.26,5.75-17.6,6.58-11.19,1.46-21.95-.36-32.27-4.68-1.03-1.57-.61-3.23-.56-4.8,.32-10.29,.6-20.58,1.06-30.87,.71-15.72,1.55-31.43,2.34-47.15,.16-3.22,.32-6.44,.49-9.87,.94-.2,1.75-.51,2.57-.52,2.93-.06,5.86-.02,8.52-.02,1.36,1.14,1.01,2.4,.99,3.52-.16,8.53-.36,17.06-.55,25.59-.04,1.59-.23,3.19,.32,5.24Zm-.85,48.54c5.99,1.54,11.64,2.5,17.41,1.9,7.47-.77,13.12-4.42,15.93-11.49,3.38-8.5,2.41-16.75-2.64-24.39-2.43-3.68-5.89-6.26-10.19-7.27-6.7-1.58-12.8,.13-18.34,4.08-1.14,.82-1.82,1.89-1.86,3.33-.02,.88-.07,1.76-.08,2.65-.13,8.97-.27,17.94-.38,26.91-.02,1.3,.09,2.61,.15,4.28Z"/>
            <path class="logo_01" d="M321.3,318.12c-3.06,12.65-4.85,25.16-7.19,37.45-4.19,.7-9.34,.64-12.4-.09-.24-13.34,17.58-83.14,26-101.68,.72-.12,1.56-.38,2.41-.37,6.63,.03,13.26-.07,19.87,.24,3.19,.15,6.45,.79,9.5,1.76,6.87,2.18,10.98,7.13,12.79,14.02,1.3,4.94,1.05,9.92,.08,14.89-1.88,9.62-5.97,18.14-12.79,25.24-5.92,6.17-13.09,9.9-21.68,10.72-4.01,.38-7.93-.09-11.82-.99-1.43-.33-2.84-.71-4.76-1.19Zm2.84-12.6c1.7,.8,2.95,1.57,4.31,1.99,6.59,2,12.94,1.24,18.53-2.74,9.65-6.88,13.88-16.51,12.91-28.27-.42-5.12-3.14-8.79-8.26-10.34-5.45-1.64-10.97-1.5-16.75-.84-4.09,13.18-7.67,26.33-10.74,40.21Z"/>
            <path class="logo_01" d="M391.93,253.76c4.06-.45,7.83-.59,11.82,.03-.13,3.96-1.17,7.63-1.73,11.36-1.22,8.15-2.67,16.26-3.81,24.41-.46,3.34-.58,6.76-.45,10.13,.19,4.9,2.85,7.76,7.61,8.97,2.51,.64,4.94,.4,7.42-.09,4.29-.86,8.07-2.68,11.3-5.63,1.93-1.76,2.89-3.89,3.13-6.57,1.12-12.31,2.38-24.61,3.64-36.9,.19-1.87,.6-3.72,.94-5.76,4.1-.48,8.01-.38,11.71-.12,.32,.3,.46,.38,.53,.5,.07,.12,.11,.28,.1,.42-1.46,20.7-2.93,41.39-4.4,62.09-.05,.71-.23,1.41-.34,2.06-3.76,.77-10.2,.75-13.76-.03v-6.52c-1.65-.03-2.45,1.17-3.44,1.91-4.07,3.03-8.51,5.22-13.51,6.24-4.12,.84-8.2,.69-12.2-.62-7.73-2.53-12.67-9.13-12.59-17.29,.04-4.25,.38-8.55,1.09-12.74,1.89-11.16,4.06-22.28,6.13-33.41,.13-.71,.45-1.39,.8-2.43Z"/>
            <path class="logo_01" d="M640.97,269.36c-2.69-1.17-4.69-2.07-6.72-2.91-3.41-1.42-6.92-2.47-10.66-2.55-7.14-.14-12.05,4.12-12.77,11.28-.86,8.57,1.34,16.39,6.5,23.25,5.9,7.86,13.95,10.48,23.44,8.65,2.86-.55,5.61-1.71,8.41-2.59,.81-.26,1.62-.51,2.63-.83,1.89,4.24,2.59,8.52,3.4,12.88-3.86,2.62-8.05,3.49-12.25,3.99-6.36,.74-12.62,.06-18.67-2.21-7.69-2.88-13.91-7.63-18.33-14.57-5.69-8.91-8.6-18.67-8.2-29.29,.09-2.48,.46-5.01,1.16-7.39,2.83-9.66,9.27-14.34,18.97-15.08,5.98-.45,11.69,1.01,17.14,3.43,.88,.39,1.84,1.13,2.24,1.97,1.68,3.57,2.92,7.31,3.73,11.96Z"/>
            <path class="logo_01" d="M554.87,319.01c-4.42,.51-8.63,.72-13.02-.08-1.13-3.92-.74-7.93-1.29-11.81-.57-4.07-.74-8.2-1.09-12.3-.34-3.96-.66-7.92-1.03-11.87-.37-3.95-.77-7.91-1.19-11.85-.42-3.95-.89-7.89-1.35-11.83-.48-4.09-.96-8.18-1.45-12.27-.47-3.94-.93-7.89-1.45-11.82-.51-3.92-1.09-7.84-1.67-11.94,3.82-1.11,7.42-.32,10.85-.56,3.09,7.07,13.57,87.29,12.7,96.34Z"/>
            <path class="logo_01" d="M588.68,318.99c-4.4,.27-8.46,.41-12.78-.08-1.36-7.32-1.95-14.62-3.03-21.86-1.07-7.13-2.17-14.25-3.31-21.37-1.16-7.23-2.39-14.44-3.59-21.64,3.93-.86,7.9-.87,11.54-.1,2.73,8,11.29,57.49,11.17,65.04Z"/>
        </g>
        <path class="logo_01" d="M566.26,228.09c3.97,.06,8.35,3.66,8.52,7.97,.14,3.61-2.41,6.15-6.02,5.88-3.77-.28-7.56-3.93-7.96-7.67-.34-3.14,2.29-6.11,5.47-6.17Z"/>
    </g>
</svg>