<?xml version="1.0" encoding="UTF-8"?><svg id="Layer_1" xmlns="http://www.w3.org/2000/svg" viewBox="0 0 986.51 507.37"><defs><style>.cls-1{fill:#6a7b6c;}.cls-2{fill:none;stroke:#6a7b6c;stroke-miterlimit:10;stroke-width:4px;}</style></defs><path class="cls-1" d="M.4,317.98H128.45v-73.93L.4,317.98ZM858.45,188.98v73.93l128.06-73.93h-128.06Z"/><path class="cls-1" d="M.4,128.98H128.45V55.05L.4,128.98Z"/><line class="cls-2" x1="352.45" y1="390.48" x2="352.45" y2="301.48"/><line class="cls-2" x1="352.45" y1="200.48" x2="352.45" y2="117.48"/><line class="cls-2" x1="128.45" y1="462.48" x2="128.45" y2=".48"/><polyline class="cls-2" points="858.45 .48 858.45 377.35 858.45 378.98"/><line class="cls-2" x1="634.45" y1="196.48" x2="634.45" y2="119.48"/><line class="cls-2" x1="634.45" y1="506.98" x2="634.45" y2="495.48"/><polyline class="cls-2" points="634.45 404.48 634.45 373.52 634.45 301.48"/><path class="cls-1" d="M.4,317.98H128.45v-73.93L.4,317.98ZM858.45,188.98v73.93l128.06-73.93h-128.06Z"/><path class="cls-1" d="M393.12,243.46c2.3,2.35,3.45,5.41,3.45,9.17s-1.14,6.9-3.43,9.26c-2.28,2.35-5.18,3.52-8.69,3.52s-6.59-1.2-8.97-3.61c-2.38-2.41-3.56-5.49-3.56-9.25s1.16-6.64,3.48-9.03c2.33-2.39,5.27-3.59,8.84-3.59s6.59,1.18,8.88,3.53Z"/><path class="cls-1" d="M449.04,243.46c-2.34-2.44-5.31-3.65-8.89-3.65s-6.41,1.23-8.73,3.71c-2.32,2.48-3.47,5.65-3.47,9.53s1.17,7.11,3.53,9.62c2.36,2.52,5.26,3.78,8.71,3.78s6.51-1.24,8.85-3.71c2.35-2.48,3.52-5.72,3.52-9.74s-1.17-7.11-3.52-9.54Zm0,0c-2.34-2.44-5.31-3.65-8.89-3.65s-6.41,1.23-8.73,3.71c-2.32,2.48-3.47,5.65-3.47,9.53s1.17,7.11,3.53,9.62c2.36,2.52,5.26,3.78,8.71,3.78s6.51-1.24,8.85-3.71c2.35-2.48,3.52-5.72,3.52-9.74s-1.17-7.11-3.52-9.54Zm0,0c-2.34-2.44-5.31-3.65-8.89-3.65s-6.41,1.23-8.73,3.71c-2.32,2.48-3.47,5.65-3.47,9.53s1.17,7.11,3.53,9.62c2.36,2.52,5.26,3.78,8.71,3.78s6.51-1.24,8.85-3.71c2.35-2.48,3.52-5.72,3.52-9.74s-1.17-7.11-3.52-9.54Zm0,0c-2.34-2.44-5.31-3.65-8.89-3.65s-6.41,1.23-8.73,3.71c-2.32,2.48-3.47,5.65-3.47,9.53s1.17,7.11,3.53,9.62c2.36,2.52,5.26,3.78,8.71,3.78s6.51-1.24,8.85-3.71c2.35-2.48,3.52-5.72,3.52-9.74s-1.17-7.11-3.52-9.54Zm0,0c-2.34-2.44-5.31-3.65-8.89-3.65s-6.41,1.23-8.73,3.71c-2.32,2.48-3.47,5.65-3.47,9.53s1.17,7.11,3.53,9.62c2.36,2.52,5.26,3.78,8.71,3.78s6.51-1.24,8.85-3.71c2.35-2.48,3.52-5.72,3.52-9.74s-1.17-7.11-3.52-9.54Zm109.66-2.16c-2.21-1.58-4.76-2.37-7.67-2.37-3.16,0-5.94,.89-8.32,2.66-1.5,1.11-2.88,3.06-4.16,5.85h24.57c-.74-2.52-2.22-4.56-4.42-6.14Zm0,0c-2.21-1.58-4.76-2.37-7.67-2.37-3.16,0-5.94,.89-8.32,2.66-1.5,1.11-2.88,3.06-4.16,5.85h24.57c-.74-2.52-2.22-4.56-4.42-6.14Zm-109.66,2.16c-2.34-2.44-5.31-3.65-8.89-3.65s-6.41,1.23-8.73,3.71c-2.32,2.48-3.47,5.65-3.47,9.53s1.17,7.11,3.53,9.62c2.36,2.52,5.26,3.78,8.71,3.78s6.51-1.24,8.85-3.71c2.35-2.48,3.52-5.72,3.52-9.74s-1.17-7.11-3.52-9.54Zm0,0c-2.34-2.44-5.31-3.65-8.89-3.65s-6.41,1.23-8.73,3.71c-2.32,2.48-3.47,5.65-3.47,9.53s1.17,7.11,3.53,9.62c2.36,2.52,5.26,3.78,8.71,3.78s6.51-1.24,8.85-3.71c2.35-2.48,3.52-5.72,3.52-9.74s-1.17-7.11-3.52-9.54Zm109.66-2.16c-2.21-1.58-4.76-2.37-7.67-2.37-3.16,0-5.94,.89-8.32,2.66-1.5,1.11-2.88,3.06-4.16,5.85h24.57c-.74-2.52-2.22-4.56-4.42-6.14Zm0,0c-2.21-1.58-4.76-2.37-7.67-2.37-3.16,0-5.94,.89-8.32,2.66-1.5,1.11-2.88,3.06-4.16,5.85h24.57c-.74-2.52-2.22-4.56-4.42-6.14Zm-109.66,2.16c-2.34-2.44-5.31-3.65-8.89-3.65s-6.41,1.23-8.73,3.71c-2.32,2.48-3.47,5.65-3.47,9.53s1.17,7.11,3.53,9.62c2.36,2.52,5.26,3.78,8.71,3.78s6.51-1.24,8.85-3.71c2.35-2.48,3.52-5.72,3.52-9.74s-1.17-7.11-3.52-9.54Zm0,0c-2.34-2.44-5.31-3.65-8.89-3.65s-6.41,1.23-8.73,3.71c-2.32,2.48-3.47,5.65-3.47,9.53s1.17,7.11,3.53,9.62c2.36,2.52,5.26,3.78,8.71,3.78s6.51-1.24,8.85-3.71c2.35-2.48,3.52-5.72,3.52-9.74s-1.17-7.11-3.52-9.54Zm109.66-2.16c-2.21-1.58-4.76-2.37-7.67-2.37-3.16,0-5.94,.89-8.32,2.66-1.5,1.11-2.88,3.06-4.16,5.85h24.57c-.74-2.52-2.22-4.56-4.42-6.14Zm0,0c-2.21-1.58-4.76-2.37-7.67-2.37-3.16,0-5.94,.89-8.32,2.66-1.5,1.11-2.88,3.06-4.16,5.85h24.57c-.74-2.52-2.22-4.56-4.42-6.14Zm-109.66,2.16c-2.34-2.44-5.31-3.65-8.89-3.65s-6.41,1.23-8.73,3.71c-2.32,2.48-3.47,5.65-3.47,9.53s1.17,7.11,3.53,9.62c2.36,2.52,5.26,3.78,8.71,3.78s6.51-1.24,8.85-3.71c2.35-2.48,3.52-5.72,3.52-9.74s-1.17-7.11-3.52-9.54Zm0,0c-2.34-2.44-5.31-3.65-8.89-3.65s-6.41,1.23-8.73,3.71c-2.32,2.48-3.47,5.65-3.47,9.53s1.17,7.11,3.53,9.62c2.36,2.52,5.26,3.78,8.71,3.78s6.51-1.24,8.85-3.71c2.35-2.48,3.52-5.72,3.52-9.74s-1.17-7.11-3.52-9.54Zm109.66-2.16c-2.21-1.58-4.76-2.37-7.67-2.37-3.16,0-5.94,.89-8.32,2.66-1.5,1.11-2.88,3.06-4.16,5.85h24.57c-.74-2.52-2.22-4.56-4.42-6.14Zm0,0c-2.21-1.58-4.76-2.37-7.67-2.37-3.16,0-5.94,.89-8.32,2.66-1.5,1.11-2.88,3.06-4.16,5.85h24.57c-.74-2.52-2.22-4.56-4.42-6.14Zm-109.66,2.16c-2.34-2.44-5.31-3.65-8.89-3.65s-6.41,1.23-8.73,3.71c-2.32,2.48-3.47,5.65-3.47,9.53s1.17,7.11,3.53,9.62c2.36,2.52,5.26,3.78,8.71,3.78s6.51-1.24,8.85-3.71c2.35-2.48,3.52-5.72,3.52-9.74s-1.17-7.11-3.52-9.54Zm-225.2-54.35l-95.39,55.07v73.93H763.07l95.38-55.07v-73.93H223.84Zm183.44,80.08c0,7.64-1.54,13.25-4.61,16.85-4.12,4.87-10.33,7.3-18.64,7.3-4.42,0-8.14-.55-11.16-1.66-3.02-1.1-5.56-2.73-7.64-4.87-2.07-2.15-3.61-4.75-4.6-7.83h12.49c1.11,1.28,2.53,2.24,4.27,2.89,1.75,.65,3.81,.97,6.19,.97,3.04,0,5.49-.47,7.34-1.41,1.86-.94,3.16-2.15,3.93-3.65,.76-1.49,1.14-4.07,1.14-7.72-1.99,1.99-4.08,3.43-6.27,4.3s-4.66,1.3-7.43,1.3c-6.06,0-11.18-2.18-15.36-6.55-4.17-4.37-6.26-9.91-6.26-16.6,0-7.17,2.21-12.93,6.64-17.27,4.01-3.93,8.8-5.89,14.36-5.89,2.6,0,5.06,.47,7.37,1.43,2.31,.95,4.62,2.52,6.95,4.71v-4.98h11.29v38.68Zm56.11,6.47h-11.33v-4.77c-2.21,2.1-4.43,3.62-6.65,4.55-2.23,.92-4.64,1.39-7.24,1.39-5.83,0-10.87-2.27-15.13-6.79-4.26-4.52-6.38-10.15-6.38-16.87s2.06-12.69,6.17-17.14c4.12-4.46,9.12-6.68,15.01-6.68,2.71,0,5.25,.51,7.63,1.53,2.37,1.03,4.57,2.56,6.59,4.61v-4.98h11.33v45.15Zm29.51-35.4c-1.33-.66-2.42-.99-3.28-.99-1.74,0-3.22,1.07-4.42,3.23-1.2,2.16-1.81,6.39-1.81,12.7l.05,2.2v18.26h-11.25v-45.15h9.71v5.68c1.05-2.24,2.45-3.94,4.19-5.1,1.75-1.16,3.65-1.74,5.73-1.74,1.47,0,3,.38,4.61,1.16l-3.53,9.75Zm27.18,0c-1.32-.66-2.42-.99-3.27-.99-1.75,0-3.22,1.07-4.42,3.23-1.21,2.16-1.81,6.39-1.81,12.7l.04,2.2v18.26h-11.25v-45.15h9.72v5.68c1.05-2.24,2.44-3.94,4.19-5.1,1.74-1.16,3.65-1.74,5.73-1.74,1.46,0,3,.38,4.6,1.16l-3.53,9.75Zm54.37,16.11h-36.39c.52,3.21,1.93,5.76,4.21,7.65,2.28,1.9,5.19,2.85,8.73,2.85,4.24,0,7.88-1.48,10.92-4.44l9.55,4.48c-2.38,3.37-5.23,5.87-8.55,7.49-3.32,1.62-7.27,2.43-11.83,2.43-7.09,0-12.86-2.24-17.31-6.71-4.45-4.46-6.68-10.06-6.68-16.78s2.22-12.61,6.66-17.17c4.44-4.55,10.01-6.82,16.71-6.82,7.11,0,12.89,2.27,17.34,6.82,4.46,4.56,6.69,10.57,6.69,18.04l-.05,2.16Zm28.6-16.11h-6.72v35.4h-11.33v-35.4h-5.81v-9.75h5.81v-16.64h11.33v16.64h6.72v9.75Zm25.48,0h-6.72v35.4h-11.33v-35.4h-5.81v-9.75h5.81v-16.64h11.33v16.64h6.72v9.75Zm-69.83,1.04c-2.21-1.58-4.76-2.37-7.67-2.37-3.16,0-5.94,.89-8.32,2.66-1.5,1.11-2.88,3.06-4.16,5.85h24.57c-.74-2.52-2.22-4.56-4.42-6.14Zm-118.55-1.49c-3.5,0-6.41,1.23-8.73,3.71-2.32,2.48-3.47,5.65-3.47,9.53s1.17,7.11,3.53,9.62c2.36,2.52,5.26,3.78,8.71,3.78s6.51-1.24,8.85-3.71c2.35-2.48,3.52-5.72,3.52-9.74s-1.17-7.11-3.52-9.54c-2.34-2.44-5.31-3.65-8.89-3.65Zm8.89,3.65c-2.34-2.44-5.31-3.65-8.89-3.65s-6.41,1.23-8.73,3.71c-2.32,2.48-3.47,5.65-3.47,9.53s1.17,7.11,3.53,9.62c2.36,2.52,5.26,3.78,8.71,3.78s6.51-1.24,8.85-3.71c2.35-2.48,3.52-5.72,3.52-9.74s-1.17-7.11-3.52-9.54Zm109.66-2.16c-2.21-1.58-4.76-2.37-7.67-2.37-3.16,0-5.94,.89-8.32,2.66-1.5,1.11-2.88,3.06-4.16,5.85h24.57c-.74-2.52-2.22-4.56-4.42-6.14Zm0,0c-2.21-1.58-4.76-2.37-7.67-2.37-3.16,0-5.94,.89-8.32,2.66-1.5,1.11-2.88,3.06-4.16,5.85h24.57c-.74-2.52-2.22-4.56-4.42-6.14Zm-109.66,2.16c-2.34-2.44-5.31-3.65-8.89-3.65s-6.41,1.23-8.73,3.71c-2.32,2.48-3.47,5.65-3.47,9.53s1.17,7.11,3.53,9.62c2.36,2.52,5.26,3.78,8.71,3.78s6.51-1.24,8.85-3.71c2.35-2.48,3.52-5.72,3.52-9.74s-1.17-7.11-3.52-9.54Zm0,0c-2.34-2.44-5.31-3.65-8.89-3.65s-6.41,1.23-8.73,3.71c-2.32,2.48-3.47,5.65-3.47,9.53s1.17,7.11,3.53,9.62c2.36,2.52,5.26,3.78,8.71,3.78s6.51-1.24,8.85-3.71c2.35-2.48,3.52-5.72,3.52-9.74s-1.17-7.11-3.52-9.54Zm109.66-2.16c-2.21-1.58-4.76-2.37-7.67-2.37-3.16,0-5.94,.89-8.32,2.66-1.5,1.11-2.88,3.06-4.16,5.85h24.57c-.74-2.52-2.22-4.56-4.42-6.14Zm0,0c-2.21-1.58-4.76-2.37-7.67-2.37-3.16,0-5.94,.89-8.32,2.66-1.5,1.11-2.88,3.06-4.16,5.85h24.57c-.74-2.52-2.22-4.56-4.42-6.14Zm-109.66,2.16c-2.34-2.44-5.31-3.65-8.89-3.65s-6.41,1.23-8.73,3.71c-2.32,2.48-3.47,5.65-3.47,9.53s1.17,7.11,3.53,9.62c2.36,2.52,5.26,3.78,8.71,3.78s6.51-1.24,8.85-3.71c2.35-2.48,3.52-5.72,3.52-9.74s-1.17-7.11-3.52-9.54Zm0,0c-2.34-2.44-5.31-3.65-8.89-3.65s-6.41,1.23-8.73,3.71c-2.32,2.48-3.47,5.65-3.47,9.53s1.17,7.11,3.53,9.62c2.36,2.52,5.26,3.78,8.71,3.78s6.51-1.24,8.85-3.71c2.35-2.48,3.52-5.72,3.52-9.74s-1.17-7.11-3.52-9.54Zm109.66-2.16c-2.21-1.58-4.76-2.37-7.67-2.37-3.16,0-5.94,.89-8.32,2.66-1.5,1.11-2.88,3.06-4.16,5.85h24.57c-.74-2.52-2.22-4.56-4.42-6.14Zm0,0c-2.21-1.58-4.76-2.37-7.67-2.37-3.16,0-5.94,.89-8.32,2.66-1.5,1.11-2.88,3.06-4.16,5.85h24.57c-.74-2.52-2.22-4.56-4.42-6.14Zm-109.66,2.16c-2.34-2.44-5.31-3.65-8.89-3.65s-6.41,1.23-8.73,3.71c-2.32,2.48-3.47,5.65-3.47,9.53s1.17,7.11,3.53,9.62c2.36,2.52,5.26,3.78,8.71,3.78s6.51-1.24,8.85-3.71c2.35-2.48,3.52-5.72,3.52-9.74s-1.17-7.11-3.52-9.54Zm0,0c-2.34-2.44-5.31-3.65-8.89-3.65s-6.41,1.23-8.73,3.71c-2.32,2.48-3.47,5.65-3.47,9.53s1.17,7.11,3.53,9.62c2.36,2.52,5.26,3.78,8.71,3.78s6.51-1.24,8.85-3.71c2.35-2.48,3.52-5.72,3.52-9.74s-1.17-7.11-3.52-9.54Zm109.66-2.16c-2.21-1.58-4.76-2.37-7.67-2.37-3.16,0-5.94,.89-8.32,2.66-1.5,1.11-2.88,3.06-4.16,5.85h24.57c-.74-2.52-2.22-4.56-4.42-6.14Zm0,0c-2.21-1.58-4.76-2.37-7.67-2.37-3.16,0-5.94,.89-8.32,2.66-1.5,1.11-2.88,3.06-4.16,5.85h24.57c-.74-2.52-2.22-4.56-4.42-6.14Zm-109.66,2.16c-2.34-2.44-5.31-3.65-8.89-3.65s-6.41,1.23-8.73,3.71c-2.32,2.48-3.47,5.65-3.47,9.53s1.17,7.11,3.53,9.62c2.36,2.52,5.26,3.78,8.71,3.78s6.51-1.24,8.85-3.71c2.35-2.48,3.52-5.72,3.52-9.74s-1.17-7.11-3.52-9.54Zm0,0c-2.34-2.44-5.31-3.65-8.89-3.65s-6.41,1.23-8.73,3.71c-2.32,2.48-3.47,5.65-3.47,9.53s1.17,7.11,3.53,9.62c2.36,2.52,5.26,3.78,8.71,3.78s6.51-1.24,8.85-3.71c2.35-2.48,3.52-5.72,3.52-9.74s-1.17-7.11-3.52-9.54Zm0,0c-2.34-2.44-5.31-3.65-8.89-3.65s-6.41,1.23-8.73,3.71c-2.32,2.48-3.47,5.65-3.47,9.53s1.17,7.11,3.53,9.62c2.36,2.52,5.26,3.78,8.71,3.78s6.51-1.24,8.85-3.71c2.35-2.48,3.52-5.72,3.52-9.74s-1.17-7.11-3.52-9.54Z"/><path class="cls-1" d="M374.02,433.7c2.35,2.43,3.52,5.61,3.52,9.54s-1.17,7.26-3.52,9.73c-2.34,2.48-5.29,3.72-8.85,3.72s-6.35-1.26-8.71-3.78-3.53-5.73-3.53-9.63,1.16-7.05,3.47-9.52c2.32-2.48,5.23-3.72,8.73-3.72s6.55,1.22,8.89,3.66Z"/><path class="cls-1" d="M429.31,431.54c-2.21-1.58-4.76-2.37-7.67-2.37-3.16,0-5.93,.89-8.32,2.66-1.49,1.1-2.88,3.06-4.16,5.85h24.57c-.74-2.52-2.22-4.57-4.42-6.14Zm0,0c-2.21-1.58-4.76-2.37-7.67-2.37-3.16,0-5.93,.89-8.32,2.66-1.49,1.1-2.88,3.06-4.16,5.85h24.57c-.74-2.52-2.22-4.57-4.42-6.14Zm0,0c-2.21-1.58-4.76-2.37-7.67-2.37-3.16,0-5.93,.89-8.32,2.66-1.49,1.1-2.88,3.06-4.16,5.85h24.57c-.74-2.52-2.22-4.57-4.42-6.14Zm171.7,0c-2.2-1.58-4.76-2.37-7.67-2.37-3.16,0-5.93,.89-8.32,2.66-1.49,1.1-2.88,3.06-4.15,5.85h24.57c-.75-2.52-2.23-4.57-4.43-6.14Zm0,0c-2.2-1.58-4.76-2.37-7.67-2.37-3.16,0-5.93,.89-8.32,2.66-1.49,1.1-2.88,3.06-4.15,5.85h24.57c-.75-2.52-2.23-4.57-4.43-6.14Zm-171.7,0c-2.21-1.58-4.76-2.37-7.67-2.37-3.16,0-5.93,.89-8.32,2.66-1.49,1.1-2.88,3.06-4.16,5.85h24.57c-.74-2.52-2.22-4.57-4.42-6.14Zm-205.87-53.17l-94.95,54.82L0,507.37H762.67l223.44-129H223.44Zm164.93,87.53h-11.33v-4.77c-2.21,2.1-4.43,3.62-6.65,4.54-2.23,.93-4.64,1.39-7.24,1.39-5.83,0-10.87-2.26-15.13-6.78-4.25-4.53-6.38-10.15-6.38-16.87s2.06-12.69,6.17-17.14c4.12-4.46,9.12-6.69,15.01-6.69,2.71,0,5.25,.52,7.63,1.54,2.38,1.02,4.57,2.56,6.59,4.61v-22.42h11.33v62.59Zm56.7-19.3h-36.4c.52,3.21,1.93,5.77,4.21,7.66,2.28,1.9,5.19,2.84,8.74,2.84,4.23,0,7.87-1.48,10.91-4.44l9.55,4.49c-2.38,3.37-5.23,5.87-8.55,7.49-3.32,1.61-7.27,2.42-11.83,2.42-7.08,0-12.85-2.23-17.31-6.7-4.45-4.47-6.68-10.06-6.68-16.79s2.22-12.61,6.66-17.16,10.01-6.83,16.71-6.83c7.11,0,12.89,2.28,17.35,6.83,4.45,4.55,6.68,10.56,6.68,18.04l-.04,2.15Zm54.26,19.3h-7.18l-9.63-25.73-9.92,25.73h-7.09l-16.27-45.15h11.09l9.08,25.69,9.77-25.69h6.78l9.6,25.4,9.09-25.4h11.16l-16.48,45.15Zm37.46,16.52h-11.7l9.29-19.89-17.17-41.78h11.58l11.73,28.33,12.94-28.33h11.61l-28.28,61.67Zm79.98-35.82h-36.4c.52,3.21,1.93,5.77,4.21,7.66,2.28,1.9,5.2,2.84,8.74,2.84,4.23,0,7.87-1.48,10.91-4.44l9.55,4.49c-2.38,3.37-5.23,5.87-8.55,7.49-3.32,1.61-7.26,2.42-11.83,2.42-7.08,0-12.85-2.23-17.31-6.7-4.45-4.47-6.68-10.06-6.68-16.79s2.22-12.61,6.66-17.16,10.01-6.83,16.71-6.83c7.11,0,12.89,2.28,17.35,6.83,4.45,4.55,6.68,10.56,6.68,18.04l-.04,2.15Zm27.22-16.1c-1.32-.66-2.42-1-3.27-1-1.75,0-3.22,1.08-4.42,3.24-1.21,2.16-1.81,6.39-1.81,12.7l.04,2.2v18.26h-11.25v-45.15h9.72v5.68c1.05-2.24,2.44-3.94,4.19-5.1,1.74-1.17,3.65-1.75,5.73-1.75,1.46,0,3,.39,4.6,1.17l-3.53,9.75Zm-42.98,1.04c-2.2-1.58-4.76-2.37-7.67-2.37-3.16,0-5.93,.89-8.32,2.66-1.49,1.1-2.88,3.06-4.15,5.85h24.57c-.75-2.52-2.23-4.57-4.43-6.14Zm-171.7,0c-2.21-1.58-4.76-2.37-7.67-2.37-3.16,0-5.93,.89-8.32,2.66-1.49,1.1-2.88,3.06-4.16,5.85h24.57c-.74-2.52-2.22-4.57-4.42-6.14Zm0,0c-2.21-1.58-4.76-2.37-7.67-2.37-3.16,0-5.93,.89-8.32,2.66-1.49,1.1-2.88,3.06-4.16,5.85h24.57c-.74-2.52-2.22-4.57-4.42-6.14Zm0,0c-2.21-1.58-4.76-2.37-7.67-2.37-3.16,0-5.93,.89-8.32,2.66-1.49,1.1-2.88,3.06-4.16,5.85h24.57c-.74-2.52-2.22-4.57-4.42-6.14Zm0,0c-2.21-1.58-4.76-2.37-7.67-2.37-3.16,0-5.93,.89-8.32,2.66-1.49,1.1-2.88,3.06-4.16,5.85h24.57c-.74-2.52-2.22-4.57-4.42-6.14Zm0,0c-2.21-1.58-4.76-2.37-7.67-2.37-3.16,0-5.93,.89-8.32,2.66-1.49,1.1-2.88,3.06-4.16,5.85h24.57c-.74-2.52-2.22-4.57-4.42-6.14Z"/><path class="cls-1" d="M433.71,59.31h-24.57c1.28-2.79,2.66-4.74,4.16-5.85,2.38-1.77,5.16-2.66,8.32-2.66,2.91,0,5.46,.79,7.67,2.37,2.2,1.58,3.68,3.63,4.42,6.14Z"/><path class="cls-1" d="M486.17,55.39c2.33,2.48,3.49,5.65,3.49,9.53s-1.18,7.11-3.55,9.63c-2.36,2.51-5.27,3.77-8.73,3.77s-6.53-1.24-8.89-3.71c-2.35-2.48-3.52-5.72-3.52-9.74s1.17-7.11,3.52-9.54c2.36-2.44,5.32-3.65,8.89-3.65s6.47,1.24,8.79,3.71Z"/><path class="cls-1" d="M454.58,40.48v1.9h10.89v4.98c2.04-2.05,4.26-3.58,6.64-4.61,2.38-1.02,4.92-1.53,7.63-1.53,5.9,0,10.9,2.23,15.03,6.68,4.12,4.45,6.18,10.17,6.18,17.14s-2.13,12.35-6.39,16.87c-4.26,4.53-9.31,6.79-15.15,6.79-2.6,0-5.02-.47-7.26-1.39-2.24-.93-4.47-2.44-6.68-4.55v21.29h-10.89v.43h47V40.48h-47Z"/><path class="cls-1" d="M595.25,59.31h-24.57c1.27-2.79,2.66-4.74,4.16-5.85,2.38-1.77,5.15-2.66,8.31-2.66,2.91,0,5.47,.79,7.67,2.37,2.2,1.58,3.68,3.63,4.43,6.14Z"/><path class="cls-1" d="M609.58,39.48V108.48h48V39.48h-48Zm46.22,48.06h-11.21v-19.78c0-5.39-.24-8.97-.72-10.74-.48-1.76-1.32-3.11-2.53-4.04-1.2-.92-2.68-1.39-4.45-1.39-2.29,0-4.25,.77-5.9,2.3-1.64,1.54-2.78,3.66-3.41,6.37-.33,1.41-.5,4.46-.5,9.16v18.12h-11.33V42.38h11.33v4.63c2.57-2.17,4.9-3.68,6.98-4.52,2.09-.85,4.22-1.27,6.41-1.27,4.47,0,8.27,1.56,11.39,4.69,2.63,2.65,3.94,6.58,3.94,11.78v29.85Z"/><path class="cls-1" d="M223.84,0l-95.39,55.07v73.93H763.07l95.38-55.07L986.51,0H223.84Zm230.74,40.48h47V104.48h-47V40.48Zm-93.6,44.19c-2.95,2.69-6.9,4.03-11.85,4.03-6.59,0-11.84-2.58-15.77-7.72l6.97-7.6c1.33,1.55,2.89,2.8,4.67,3.76,1.78,.95,3.37,1.43,4.75,1.43,1.5,0,2.7-.36,3.61-1.08,.92-.72,1.37-1.55,1.37-2.49,0-1.74-1.64-3.44-4.94-5.1l-3.81-1.91c-7.31-3.68-10.96-8.29-10.96-13.82,0-3.57,1.37-6.62,4.13-9.15,2.75-2.54,6.27-3.8,10.56-3.8,2.93,0,5.69,.64,8.28,1.93,2.59,1.28,4.78,3.13,6.58,5.54l-7.02,7.01c-2.85-2.82-5.43-4.23-7.76-4.23-1.27,0-2.27,.27-2.98,.81-.72,.54-1.08,1.21-1.08,2.01,0,.61,.22,1.17,.68,1.68,.46,.51,1.58,1.21,3.38,2.1l4.15,2.07c4.38,2.16,7.38,4.36,9.01,6.6,1.63,2.24,2.45,4.87,2.45,7.89,0,4.01-1.47,7.36-4.42,10.04Zm32.77-32.54h-6.73v35.41h-11.33V52.13h-5.81v-9.75h5.81V25.74h11.33v16.64h6.73v9.75Zm51.3,16.11h-36.4c.52,3.21,1.93,5.76,4.21,7.65,2.28,1.9,5.19,2.85,8.74,2.85,4.23,0,7.87-1.48,10.91-4.44l9.55,4.48c-2.38,3.37-5.23,5.87-8.55,7.49s-7.27,2.43-11.83,2.43c-7.09,0-12.85-2.24-17.31-6.71-4.45-4.46-6.68-10.06-6.68-16.78s2.22-12.61,6.66-17.17c4.44-4.55,10.01-6.82,16.71-6.82,7.11,0,12.89,2.27,17.34,6.82,4.46,4.56,6.69,10.57,6.69,18.04l-.04,2.16Zm105.33,19.3h-11.16v-19.8c0-5.23-.25-8.77-.75-10.63-.5-1.85-1.35-3.23-2.55-4.15-1.21-.91-2.69-1.37-4.46-1.37-2.3,0-4.27,.76-5.92,2.29-1.64,1.52-2.79,3.59-3.42,6.22-.33,1.36-.5,4.46-.5,9.3v18.14h-11.25V24.95h11.25v22c2.21-1.91,4.44-3.35,6.68-4.3,2.24-.95,4.51-1.43,6.81-1.43,4.48,0,8.26,1.55,11.33,4.65,2.63,2.68,3.94,6.62,3.94,11.82v29.85Zm56.2-19.3h-36.4c.52,3.21,1.93,5.76,4.21,7.65,2.28,1.9,5.2,2.85,8.74,2.85,4.23,0,7.87-1.48,10.91-4.44l9.55,4.48c-2.38,3.37-5.23,5.87-8.55,7.49s-7.26,2.43-11.83,2.43c-7.08,0-12.85-2.24-17.31-6.71-4.45-4.46-6.68-10.06-6.68-16.78s2.22-12.61,6.66-17.17c4.44-4.55,10.01-6.82,16.71-6.82,7.11,0,12.89,2.27,17.35,6.82,4.45,4.56,6.68,10.57,6.68,18.04l-.04,2.16Zm51,40.24h-48V39.48h48V108.48Z"/><g><path class="cls-1" d="M486.12,55.15c2.33,2.48,3.49,5.65,3.49,9.53s-1.18,7.11-3.55,9.63c-2.36,2.51-5.27,3.77-8.73,3.77s-6.53-1.24-8.89-3.71c-2.35-2.48-3.52-5.72-3.52-9.74s1.17-7.11,3.52-9.54c2.36-2.44,5.32-3.65,8.89-3.65s6.47,1.24,8.79,3.71Z"/><path class="cls-1" d="M445.58,7.48V119.48h9v-4h46v4h9V7.48h-64Zm54.96,62.17c-.77,4.71-2.78,8.78-6.02,12.22-4.26,4.53-9.31,6.79-15.15,6.79-2.6,0-5.02-.47-7.26-1.39-2.24-.93-4.47-2.44-6.68-4.55v21.29h-10.89V42.34h10.89v4.98c2.04-2.05,4.26-3.58,6.64-4.61,2.38-1.02,4.92-1.53,7.63-1.53,5.9,0,10.9,2.23,15.03,6.68,3.12,3.37,5.06,7.47,5.81,12.29,.25,1.54,.37,3.16,.37,4.85s-.12,3.16-.37,4.65Z"/></g><path class="cls-1" d="M607.58,5.48V117.48h59V5.48h-59Zm48.22,82.06h-11.21v-19.78c0-5.39-.24-8.97-.72-10.74-.48-1.76-1.32-3.11-2.53-4.04-1.2-.92-2.68-1.39-4.45-1.39-2.29,0-4.25,.77-5.9,2.3-1.64,1.54-2.78,3.66-3.41,6.37-.33,1.41-.5,4.46-.5,9.16v18.12h-11.33V42.38h11.33v4.63c2.57-2.17,4.9-3.68,6.98-4.52,2.09-.85,4.22-1.27,6.41-1.27,4.47,0,8.27,1.56,11.39,4.69,2.63,2.65,3.94,6.58,3.94,11.78v29.85Z"/></svg>