<?xml version="1.0" encoding="UTF-8"?><svg id="Layer_1" xmlns="http://www.w3.org/2000/svg" viewBox="0 0 986.51 507.37"><defs><style>.cls-1{fill:#353e36;}.cls-2{fill:#bbceff;}.cls-3{fill:none;}.cls-3,.cls-4{stroke:#bbceff;stroke-miterlimit:10;stroke-width:4px;}.cls-4{fill:#91aed8;}</style></defs><path class="cls-2" d="M858.46,55.05v73.93h128.05l-128.05-73.93Z"/><polygon class="cls-2" points="858.46 55.07 858.46 129 223.84 129 128.46 73.93 .4 0 763.07 0 858.46 55.07"/><line class="cls-3" x1="352.45" y1="384.48" x2="352.45" y2="306.48"/><line class="cls-3" x1="352.45" y1="199.48" x2="352.45" y2="119.48"/><line class="cls-4" x1="128.45" y1="449.48" x2="128.45" y2=".48"/><polyline class="cls-3" points="858.45 .98 858.45 195.14 858.45 501.48"/><line class="cls-3" x1="634.45" y1="199.48" x2="634.45" y2="113.48"/><polyline class="cls-3" points="634.45 404.48 634.45 375.02 634.45 306.48"/><path class="cls-2" d="M.4,188.98l128.05,73.92h.01v-73.92H.4Zm858.06,55.07v73.93h128.05l-128.05-73.93Z"/><polygon class="cls-2" points="858.46 244.18 858.46 318.11 223.84 318.11 128.46 263.04 128.46 189.11 763.07 189.11 858.45 244.17 858.46 244.18"/><polygon class="cls-2" points="986.11 507.37 223.44 507.37 0 378.37 762.67 378.37 857.62 433.19 858.45 433.67 986.11 507.37"/><g><g><path class="cls-1" d="M362.03,48.88l-7.01,7.01c-2.85-2.82-5.44-4.23-7.76-4.23-1.27,0-2.27,.27-2.99,.81-.72,.54-1.08,1.21-1.08,2.01,0,.61,.23,1.17,.68,1.68,.46,.51,1.58,1.21,3.38,2.1l4.15,2.08c4.37,2.16,7.37,4.36,9.01,6.6,1.63,2.24,2.45,4.87,2.45,7.89,0,4.01-1.47,7.36-4.42,10.04-2.95,2.68-6.9,4.03-11.85,4.03-6.59,0-11.84-2.57-15.77-7.72l6.97-7.6c1.33,1.55,2.88,2.8,4.67,3.76,1.79,.95,3.37,1.43,4.75,1.43,1.49,0,2.7-.36,3.61-1.08,.91-.72,1.37-1.55,1.37-2.49,0-1.74-1.65-3.44-4.94-5.1l-3.82-1.91c-7.3-3.68-10.96-8.29-10.96-13.82,0-3.57,1.38-6.62,4.13-9.15,2.75-2.53,6.27-3.8,10.56-3.8,2.93,0,5.69,.64,8.28,1.93,2.59,1.29,4.78,3.13,6.58,5.54Z"/><path class="cls-1" d="M373.16,25.93h11.33v16.64h6.72v9.75h-6.72v35.4h-11.33V52.32h-5.81v-9.75h5.81V25.93Z"/><path class="cls-1" d="M442.51,68.43h-36.4c.53,3.21,1.93,5.76,4.21,7.66,2.28,1.9,5.19,2.84,8.74,2.84,4.23,0,7.87-1.48,10.92-4.44l9.55,4.48c-2.38,3.38-5.23,5.87-8.55,7.49-3.32,1.62-7.26,2.43-11.83,2.43-7.08,0-12.85-2.23-17.31-6.7-4.46-4.47-6.68-10.06-6.68-16.79s2.22-12.61,6.66-17.16c4.44-4.55,10.01-6.83,16.71-6.83,7.11,0,12.89,2.28,17.35,6.83,4.45,4.55,6.68,10.56,6.68,18.03l-.04,2.16Zm-11.33-8.92c-.75-2.52-2.22-4.57-4.43-6.14s-4.76-2.37-7.67-2.37c-3.16,0-5.93,.89-8.31,2.66-1.5,1.11-2.88,3.06-4.16,5.85h24.57Z"/><path class="cls-1" d="M462.93,42.57v4.98c2.05-2.05,4.26-3.58,6.64-4.61,2.38-1.02,4.92-1.54,7.64-1.54,5.89,0,10.9,2.23,15.02,6.68,4.12,4.46,6.18,10.17,6.18,17.14s-2.13,12.35-6.39,16.87c-4.26,4.52-9.31,6.79-15.15,6.79-2.6,0-5.02-.46-7.26-1.39-2.24-.93-4.47-2.44-6.68-4.54v21.29h-11.25V42.57h11.25Zm11.91,9.3c-3.57,0-6.53,1.22-8.88,3.65-2.35,2.44-3.53,5.62-3.53,9.55s1.18,7.26,3.53,9.73c2.35,2.48,5.31,3.71,8.88,3.71s6.37-1.26,8.74-3.78c2.37-2.52,3.55-5.73,3.55-9.63s-1.16-7.05-3.49-9.52c-2.32-2.48-5.26-3.71-8.8-3.71Z"/><path class="cls-1" d="M507.84,25.14h11.25v22c2.21-1.91,4.44-3.34,6.68-4.3,2.24-.95,4.51-1.43,6.81-1.43,4.48,0,8.26,1.55,11.33,4.65,2.63,2.68,3.94,6.63,3.94,11.83v29.84h-11.16v-19.8c0-5.23-.25-8.77-.75-10.62-.5-1.85-1.35-3.24-2.55-4.15-1.2-.91-2.69-1.37-4.46-1.37-2.3,0-4.27,.76-5.91,2.28-1.65,1.52-2.79,3.6-3.42,6.23-.33,1.36-.5,4.46-.5,9.3v18.14h-11.25V25.14Z"/><path class="cls-1" d="M604.04,68.43h-36.4c.53,3.21,1.93,5.76,4.21,7.66,2.28,1.9,5.2,2.84,8.74,2.84,4.23,0,7.87-1.48,10.92-4.44l9.55,4.48c-2.38,3.38-5.23,5.87-8.55,7.49-3.32,1.62-7.26,2.43-11.83,2.43-7.08,0-12.85-2.23-17.31-6.7-4.46-4.47-6.68-10.06-6.68-16.79s2.22-12.61,6.66-17.16c4.44-4.55,10.01-6.83,16.71-6.83,7.11,0,12.89,2.28,17.35,6.83,4.46,4.55,6.68,10.56,6.68,18.03l-.04,2.16Zm-11.33-8.92c-.75-2.52-2.22-4.57-4.43-6.14-2.2-1.58-4.76-2.37-7.67-2.37-3.16,0-5.93,.89-8.31,2.66-1.5,1.11-2.88,3.06-4.16,5.85h24.57Z"/><path class="cls-1" d="M613.21,42.57h11.33v4.63c2.57-2.17,4.9-3.67,6.98-4.52,2.09-.85,4.22-1.27,6.4-1.27,4.48,0,8.28,1.56,11.4,4.69,2.62,2.66,3.94,6.59,3.94,11.79v29.84h-11.21v-19.77c0-5.39-.24-8.97-.72-10.74s-1.33-3.12-2.53-4.04c-1.2-.93-2.68-1.39-4.45-1.39-2.29,0-4.26,.77-5.9,2.3-1.64,1.53-2.78,3.66-3.42,6.36-.33,1.41-.5,4.46-.5,9.16v18.12h-11.33V42.57Z"/></g><g><path class="cls-1" d="M396.71,231.79h11.29v38.68c0,7.64-1.54,13.25-4.61,16.85-4.12,4.87-10.33,7.3-18.64,7.3-4.43,0-8.15-.55-11.16-1.66-3.02-1.11-5.56-2.73-7.64-4.88s-3.61-4.75-4.61-7.82h12.49c1.11,1.27,2.53,2.23,4.27,2.88,1.74,.65,3.8,.98,6.18,.98,3.04,0,5.49-.47,7.35-1.41,1.85-.94,3.16-2.16,3.92-3.65,.76-1.49,1.14-4.07,1.14-7.72-1.99,1.99-4.08,3.42-6.27,4.29-2.19,.87-4.66,1.31-7.43,1.31-6.06,0-11.18-2.19-15.36-6.56-4.18-4.37-6.27-9.91-6.27-16.6,0-7.17,2.21-12.92,6.64-17.27,4.01-3.93,8.8-5.89,14.36-5.89,2.6,0,5.06,.48,7.37,1.43,2.31,.96,4.63,2.53,6.95,4.71v-4.98Zm-11.75,9.42c-3.57,0-6.52,1.2-8.84,3.59-2.32,2.39-3.49,5.4-3.49,9.03s1.19,6.85,3.57,9.25c2.38,2.41,5.37,3.61,8.96,3.61s6.41-1.18,8.7-3.53c2.28-2.35,3.42-5.44,3.42-9.25s-1.15-6.82-3.44-9.17c-2.3-2.35-5.26-3.53-8.88-3.53Z"/><path class="cls-1" d="M452.78,231.79h11.33v45.16h-11.33v-4.77c-2.21,2.1-4.43,3.62-6.65,4.54-2.22,.93-4.64,1.39-7.23,1.39-5.83,0-10.88-2.26-15.13-6.79-4.26-4.52-6.38-10.15-6.38-16.87s2.06-12.69,6.18-17.14c4.12-4.45,9.12-6.68,15.01-6.68,2.71,0,5.25,.51,7.63,1.54,2.38,1.02,4.57,2.56,6.59,4.61v-4.98Zm-11.91,9.3c-3.5,0-6.41,1.24-8.73,3.71-2.32,2.48-3.47,5.65-3.47,9.52s1.18,7.11,3.54,9.63,5.26,3.78,8.71,3.78,6.51-1.24,8.85-3.71c2.34-2.48,3.52-5.72,3.52-9.73s-1.17-7.11-3.52-9.55c-2.34-2.43-5.31-3.65-8.89-3.65Z"/><path class="cls-1" d="M472.91,231.79h9.71v5.69c1.05-2.24,2.45-3.94,4.19-5.1s3.65-1.74,5.73-1.74c1.47,0,3,.39,4.61,1.16l-3.53,9.75c-1.33-.66-2.42-1-3.28-1-1.74,0-3.22,1.08-4.42,3.24-1.2,2.16-1.81,6.39-1.81,12.7l.04,2.2v18.26h-11.25v-45.16Z"/><path class="cls-1" d="M500.09,231.79h9.71v5.69c1.05-2.24,2.45-3.94,4.19-5.1s3.65-1.74,5.73-1.74c1.47,0,3,.39,4.61,1.16l-3.53,9.75c-1.33-.66-2.42-1-3.28-1-1.74,0-3.22,1.08-4.42,3.24-1.2,2.16-1.81,6.39-1.81,12.7l.04,2.2v18.26h-11.25v-45.16Z"/><path class="cls-1" d="M575.17,257.64h-36.4c.53,3.21,1.93,5.76,4.21,7.66,2.28,1.9,5.19,2.84,8.74,2.84,4.23,0,7.87-1.48,10.92-4.44l9.55,4.48c-2.38,3.38-5.23,5.87-8.55,7.49-3.32,1.62-7.26,2.43-11.83,2.43-7.08,0-12.85-2.23-17.31-6.7-4.46-4.47-6.68-10.06-6.68-16.79s2.22-12.61,6.66-17.16c4.44-4.55,10.01-6.83,16.71-6.83,7.11,0,12.89,2.28,17.35,6.83,4.45,4.55,6.68,10.56,6.68,18.03l-.04,2.16Zm-11.33-8.92c-.75-2.52-2.22-4.57-4.43-6.14-2.2-1.58-4.76-2.37-7.67-2.37-3.16,0-5.93,.89-8.31,2.66-1.5,1.11-2.88,3.06-4.16,5.85h24.57Z"/><path class="cls-1" d="M585.71,215.14h11.33v16.64h6.72v9.75h-6.72v35.4h-11.33v-35.4h-5.81v-9.75h5.81v-16.64Z"/><path class="cls-1" d="M611.2,215.14h11.33v16.64h6.72v9.75h-6.72v35.4h-11.33v-35.4h-5.81v-9.75h5.81v-16.64Z"/></g><g><path class="cls-1" d="M377.9,403.29h11.33v62.59h-11.33v-4.77c-2.21,2.1-4.43,3.62-6.65,4.54s-4.64,1.39-7.23,1.39c-5.83,0-10.88-2.26-15.13-6.79-4.26-4.52-6.38-10.15-6.38-16.87s2.06-12.69,6.18-17.14c4.12-4.45,9.12-6.68,15.01-6.68,2.71,0,5.25,.51,7.63,1.54,2.38,1.02,4.57,2.56,6.59,4.61v-22.41Zm-11.91,26.73c-3.5,0-6.41,1.24-8.73,3.71s-3.47,5.65-3.47,9.52,1.18,7.11,3.54,9.63c2.36,2.52,5.26,3.78,8.71,3.78s6.51-1.24,8.85-3.71c2.34-2.48,3.52-5.72,3.52-9.73s-1.17-7.11-3.52-9.55-5.31-3.65-8.89-3.65Z"/><path class="cls-1" d="M445.92,446.58h-36.4c.53,3.21,1.93,5.76,4.21,7.66,2.28,1.9,5.19,2.84,8.74,2.84,4.23,0,7.87-1.48,10.92-4.44l9.55,4.48c-2.38,3.38-5.23,5.87-8.55,7.49-3.32,1.62-7.26,2.43-11.83,2.43-7.08,0-12.85-2.23-17.31-6.7-4.46-4.47-6.68-10.06-6.68-16.79s2.22-12.61,6.66-17.16c4.44-4.55,10.01-6.83,16.71-6.83,7.11,0,12.89,2.28,17.35,6.83,4.45,4.55,6.68,10.56,6.68,18.03l-.04,2.16Zm-11.33-8.92c-.75-2.52-2.22-4.57-4.43-6.14s-4.76-2.37-7.67-2.37c-3.16,0-5.93,.89-8.31,2.66-1.5,1.11-2.88,3.06-4.16,5.85h24.57Z"/><path class="cls-1" d="M450.09,420.72h11.09l9.08,25.69,9.77-25.69h6.78l9.59,25.4,9.09-25.4h11.16l-16.48,45.16h-7.18l-9.63-25.73-9.92,25.73h-7.1l-16.27-45.16Z"/><path class="cls-1" d="M518.07,420.72h11.58l11.73,28.33,12.94-28.33h11.61l-28.28,61.67h-11.7l9.29-19.89-17.17-41.79Z"/><path class="cls-1" d="M617.62,446.58h-36.4c.53,3.21,1.93,5.76,4.21,7.66,2.28,1.9,5.2,2.84,8.74,2.84,4.23,0,7.87-1.48,10.92-4.44l9.55,4.48c-2.38,3.38-5.23,5.87-8.55,7.49-3.32,1.62-7.26,2.43-11.83,2.43-7.08,0-12.85-2.23-17.31-6.7-4.46-4.47-6.68-10.06-6.68-16.79s2.22-12.61,6.66-17.16c4.44-4.55,10.01-6.83,16.71-6.83,7.11,0,12.89,2.28,17.35,6.83,4.46,4.55,6.68,10.56,6.68,18.03l-.04,2.16Zm-11.33-8.92c-.75-2.52-2.22-4.57-4.43-6.14-2.2-1.58-4.76-2.37-7.67-2.37-3.16,0-5.93,.89-8.31,2.66-1.5,1.11-2.88,3.06-4.16,5.85h24.57Z"/><path class="cls-1" d="M624.14,420.72h9.71v5.69c1.05-2.24,2.45-3.94,4.19-5.1s3.65-1.74,5.73-1.74c1.47,0,3,.39,4.61,1.16l-3.53,9.75c-1.33-.66-2.42-1-3.28-1-1.74,0-3.22,1.08-4.42,3.24-1.2,2.16-1.81,6.39-1.81,12.7l.04,2.2v18.26h-11.25v-45.16Z"/></g></g></svg>