<?xml version="1.0" encoding="UTF-8"?><svg id="Layer_1" xmlns="http://www.w3.org/2000/svg" viewBox="0 0 2400 900"><defs><style>.cls-1{fill:#fff;}.cls-2{font-family:ArialMT, Arial;font-size:499.64px;}.cls-3{fill:#231f20;}</style></defs><rect class="cls-1" width="2400" height="900"/><path d="M1138.55,314.67c-.53-45.08-19.52-84.46-47.79-106.48-1.81-1.71-5.77-4.52-10.55-7.41-1.86-1.13-3.65-2.15-5.28-3.02-.04,0-.08-.03-.11-.05-2.97-1.68-6.55-3.29-10.68-4.83-.05,0-.09-.02-.13-.04-4.85-1.96-11.54-4.34-19-6.75-6.95-2.23-13.37-4.08-18.33-5.31-.07-.03-.14-.05-.22-.05-3.22-.85-6.49-1.6-9.79-2.23,0,0-.03,0-.05-.02-.38-.1-.84-.2-1.33-.29-.68-.14-1.29-.23-1.74-.27-1.41-.27-2.83-.5-4.25-.71-.05-.02-.13-.02-.23-.04-2.95-.37-6.79-.81-11.22-1.27-.03,0-.07-.02-.11-.02-3.96-.4-8.38-.83-13.05-1.25-9.33-.83-17.7-1.44-23.36-1.73-.43-.08-.96-.14-1.54-.17-.4-.02-.77-.04-1.11-.02v-.02c-.06,0-.11-.02-.16-.02h-139.31c-1.24,.06-2.52,.11-3.84,.15-5.5,.25-11.66,.58-18.14,1-11.33,.73-21.61,1.6-29.19,2.43-.73,.09-1.44,.17-2.13,.25-.22,.03-.45,.05-.67,.07-.66,.08-1.3,.16-1.91,.25-.54,.06-1.09,.14-1.63,.21-1.29,.2-2.56,.39-3.83,.6-.13,.02-.25,.04-.37,.06-32.02,5.4-60.58,19.86-82.41,40.38-23.4-22-54.55-37.04-89.42-41.4l-19.83-1.31-23.09-1.52-17.75-1.17h-109c-35.03,0-67.19,3.02-92.39,8.06,0,0-.02,0-.03,.02-19.41,3.86-34.7,8.94-43.99,14.76-.04,.02-.07,.04-.11,.08-1.34,.75-2.78,1.6-4.28,2.48-2.06,1.23-3.98,2.43-5.65,3.5-2.91,1.69-5.74,3.58-8.49,5.64-28.81,21.48-48.4,60.79-49.41,106,0,.52-.03,1.04-.03,1.55-.02,.72-.02,1.45-.02,2.16v.11c0,.72,0,1.43,.02,2.14,.71,52.29,26.25,96.88,62.27,115.52,0,0,.03,.02,.05,.02,3.81,2.59,13.68,7.09,25.53,11.5,11.48,4.27,21.61,7.25,26.39,7.92,26.12,6.51,62.13,10.54,101.89,10.54,5.44,0,10.81-.08,16.09-.22,6.78,.14,13.67,.22,20.66,.22,30.05,0,58.4-1.37,83.37-3.79,3.98-.25,12.63-1.08,22.65-2.21,7.93-.88,14.99-1.78,19.54-2.42l2.88-.28c31.92-5.44,60.38-19.88,82.15-40.34,19.01,17.88,43.13,31.15,70.19,37.84h0c3.65,.91,7.35,1.69,11.1,2.34,.89,.25,2.15,.53,3.71,.85,.48,.09,.96,.17,1.42,.26,5.71,1.04,14.59,2.3,24.57,3.45,12.56,1.43,23.44,2.3,28.55,2.3h4.72c4.26,.17,12.56,.34,22.1,.45,7.28,.08,13.83,.1,18.42,.09,9.74,.3,19.75,.46,29.95,.46,15.11,0,29.8-.34,43.83-1h8.77l37.45-2.42h.05c2.48-.33,4.65-.63,6.39-.91,5.87-.54,11.3-1.21,16.17-1.96,5.41-.58,10.73-1.42,15.95-2.5h.04s0,0,.02-.03c2.38-.48,4.74-1.02,7.07-1.63,.09,0,.19-.05,.29-.06,1.03-.27,2.04-.53,3.05-.82,.19-.04,.38-.1,.57-.16,.37-.1,.76-.22,1.16-.33,.82-.23,1.7-.5,2.61-.77,1.87-.57,3.72-1.18,5.56-1.83,.38-.08,.83-.18,1.35-.33h.03c1.7-.48,4.08-1.25,6.92-2.27l.18-.06c2.85-1.02,6.16-2.25,9.69-3.65,.06-.04,.12-.06,.18-.08,.58-.23,1.17-.46,1.77-.71,9.65-3.89,17.62-7.56,19.87-9.1,34.32-19.19,58.54-62.19,59.72-112.54,0-.38,.02-.76,.02-1.13,.02-.85,.03-1.69,.03-2.52,0-.73,0-1.46-.02-2.19Zm-614.03,148h-2.85l3.29-.16c-.15,.11-.27,.16-.44,.16Zm115.43-142.42v.13c0,.27-.01,.56-.01,.85-.03,1.88-.08,3.65-.13,5.17,0,.25,0,.52,.02,.81,.03,1.25-.16,3.8-.66,5.88-.5,2.08-1.5,7.92-1.5,7.92l-1.81,6.43-.02,.09c-3.01,11.77-10.14,21.91-19.76,28.77-1.33,.96-2.72,1.85-4.15,2.68-.02,0-.03,0-.05,.02-1.49,.86-3.03,1.65-4.61,2.36-2.6,1.29-7.73,3.04-14.08,4.79-.08,.04-.16,.06-.25,.08-.7,.21-1.4,.42-2.12,.63-9.06,2.58-17.29,4.19-22.6,4.54l-.09,.02c-.54,.02-1.03,.04-1.45,.09h-211.03c-.72,0-1.44,0-2.15-.03-3.54-.12-7.01-.47-10.4-1.06h-.02c-6.96-.98-14.74-3.52-22.51-7.54-.04-.02-.09-.04-.14-.06-.28-.13-.55-.27-.83-.42-5.65-2.83-10.71-6.06-14.96-9.4-2.43-1.83-4.68-3.87-6.74-6.1-.98-1.06-1.87-2.1-2.66-3.12-4.96-6.32-8.46-13.84-9.97-22.05-.02-.06-.03-.12-.04-.18-.59-2.57-1.16-7.8-1.44-13.86-.01-.16-.02-.33-.02-.48-.02-.46-.04-.93-.06-1.37-.21-2.17-.31-4.36-.31-6.59v-.37c-.04-2.13-.07-4.73-.07-7.52,0-2.94,.03-5.67,.08-7.9v-.14c-.01-.15-.01-.29-.01-.44,0-19.71,11.21-36.81,27.61-45.24,.18-.1,.37-.2,.56-.3,2.79-1.47,6.11-2.91,9.75-4.17,3.16-1.19,7.02-2.36,11.34-3.44,.02-.01,.05-.02,.07-.02,.7-.2,1.23-.33,1.82-.48,2.34-.6,.1-.13,2.81-.61,.04,0,.07-.01,.1-.02,.08-.01,.16-.03,.24-.05,2.01-.43,4.08-.84,6.22-1.22,8.8-1.57,16.9-2.34,22.98-2.33,1.53-.11,2.66-.17,3.6-.2,.65-.02,1.2-.04,1.73-.05h101.28c.09-.02,.17-.06,.26-.08h64.42c.27,.02,.57,.04,.9,.05h.07c.08,.01,.17,.02,.25,.03h24.59s.06,0,.09,.02c.29-.01,.58-.01,.89-.01,1.03,.01,1.97,.08,2.66,.18,.02,0,.05,0,.07,0,.48,.03,.99,.08,1.52,.14,1.05,.12,2.2,.27,3.41,.48,2.38,.37,5.04,.91,7.89,1.58,.01,0,.02,0,.03,.02,2.89,.67,5.97,1.5,9.15,2.46,1.44,.42,2.85,.87,4.21,1.31,4.71,1.56,8.95,3.17,12.4,4.73,3.7,1.67,6.5,3.25,7.99,4.56,7.54,4.92,13.68,11.78,17.74,19.88l.04,.08,1,2.11,2.77,5.89c.07,.13,.14,.29,.22,.46l.25,.52,.07,.25c.25,.65,.49,1.36,.7,2.13t0,.04c.2,.64,.43,1.5,.66,2.48,.05,.23,.1,.46,.15,.68,0,0,.01,.03,.01,.03,.37,1.5,.72,3.43,1.02,5.64,0,.02,0,.04,0,.08,.25,1.46,.48,2.86,.51,3.44,.03,.48,.1,1.17,.14,1.81,.05,.48,.1,1,.13,1.57,.09,1.31,.15,2.83,.17,4.43v.03c0,.08,0,.14,0,.23,.01,.25,.02,.56,.03,.93,.09,2.67,.09,5.13,0,7.31Zm427.83,0v.04c-.02,.68-.05,1.35-.09,2.02-.28,5.37-1.27,11.39-2.98,17.64-.02,.08-.04,.15-.06,.23-.21,.76-.43,1.52-.66,2.28-.36,1.19-.74,2.36-1.13,3.51,0,.03-.02,.06-.03,.08-1.43,4.14-3.06,7.99-4.83,11.45-.13,.25-.26,.5-.39,.74-1.89,3.64-3.94,6.83-6.05,9.44-.05,.05-.09,.11-.12,.16-1.02,1.31-2.07,2.55-3.14,3.71-1.46,1.57-2.96,3-4.5,4.27-2.92,2.05-6.96,4.21-11.75,6.26-3.42,1.47-7.23,2.88-11.28,4.15-9.07,2.84-17.52,4.41-23.56,4.59-.66,.07-1.29,.13-1.89,.18h-212.95c-.9,0-1.8-.03-2.69-.07-2.16-.08-4.3-.25-6.41-.52-1.52-.21-3.03-.46-4.51-.75-.3-.04-.6-.1-.9-.16-1.43-.26-2.92-.55-4.44-.88-4.96-1.06-9.45-2.25-12.81-3.35,0,0-.02,0-.02-.02-11.41-3.28-21.17-10.44-27.75-19.98-.09-.13-.18-.25-.27-.38-.84-1.14-1.71-2.44-2.56-3.83-.99-1.63-1.85-3.23-2.54-4.65-.51-.94-1-1.92-1.48-2.94-.79-1.7-1.46-3.37-2.02-4.97-.38-.88-.55-1.34-.55-1.34-1.75-6.25-2.69-11.64-3.15-18.08-.26-3.69-.36-5.63-.3-6.5l.04-2.79c-.04-.98-.06-1.98-.06-2.67l.38-14.75c0-.54,0-1.08,.03-1.63,.72-23.1,16.86-42.35,38.48-47.72l5.33-1.69s.33-.07,.79-.18c2.2-.67,4.98-1.4,8.01-2.09,1.25-.28,2.45-.54,3.6-.77,1.57-.35,3.15-.66,4.75-.91,.02,0,.04,0,.06,0l10.91-1.65h.02c.35-.08,.51-.12,.78-.16,.17-.02,.34-.04,.51-.04,.16-.02,.33-.02,.5-.02h.23c3.01-.31,5.94-.53,8.77-.67,.35-.08,.67-.13,1.16-.15,.15-.02,.31-.02,.5-.02h194.32c1.39-.05,3.03-.05,4.78,0,2.03,.06,3.9,.18,5.4,.34,.05,.01,.09,.01,.11,.01,6.8,.5,14.39,2.1,22.12,4.86,3.85,1.37,7.49,2.95,10.86,4.67,.05,.01,.09,.03,.12,.06,1,.48,2.11,1.04,2.72,1.44,.02,.01,.04,.03,.06,.04,.26,.14,.51,.28,.76,.43,1.93,1.1,3.75,2.25,5.45,3.43,4.11,2.87,7.53,5.92,10.07,8.99,.1,.11,.19,.22,.28,.33,2.08,2.41,3.94,5.03,5.53,7.81h0c.83,1.37,1.67,2.99,2.48,4.83,1.84,3.77,3.46,7.92,4.77,12.36,2.11,7.15,3.13,14.11,3.17,20.34,.05,1.04,.07,2.09,.07,3.14,0,.84-.01,1.68-.05,2.51Z"/><text class="cls-2" transform="translate(1297.92 460.94)"><tspan x="0" y="0">m</tspan><tspan x="416.21" y="0">i</tspan><tspan x="527.22" y="0">l</tspan><tspan x="638.21" y="0">e</tspan></text><path class="cls-3" d="M285.92,333s.07-.08,.17-.08,.17,.04,.17,.08-.07,.08-.17,.08-.17-.04-.17-.08Z"/></svg>