<?xml version="1.0" encoding="UTF-8"?><svg id="Layer_1" xmlns="http://www.w3.org/2000/svg" viewBox="0 0 492 290.97"><defs><style>.cls-1{fill:#ffe9c0;}</style></defs><path class="cls-1" d="M492,290.97H0V0H492V290.97ZM31.77,16.04c1.45,1.26,2.34,2.11,3.3,2.86,6.19,4.82,12.4,9.62,18.59,14.44,49.19,38.25,98.38,76.51,147.58,114.76,8.65,6.72,17.27,13.48,25.98,20.12,11.67,8.9,25.9,8.95,37.49,.06,12.07-9.25,24.04-18.64,36.04-27.97,29.83-23.19,59.63-46.41,89.49-69.56,18.63-14.45,37.36-28.78,56-43.22,4.59-3.56,9.02-7.33,14.1-11.49H31.77ZM460.3,274.86c-1.21-1.12-1.73-1.68-2.31-2.13-37.15-28.89-74.3-57.77-111.46-86.64-12.11-9.41-24.3-18.74-36.32-28.27-2.13-1.69-3.44-1.81-5.58-.11-9.58,7.64-19.3,15.11-28.96,22.64-18.13,14.14-40.64,14.33-58.86,.37-9.73-7.45-19.39-14.99-28.97-22.63-2.21-1.76-3.65-2.21-6.2-.2-18.48,14.6-37.13,28.99-55.73,43.43-30.56,23.74-61.12,47.47-91.67,71.22-.72,.56-1.28,1.31-2.24,2.32H460.3Zm15.5-8.55V24.77c-51.97,40.4-103.49,80.43-155.37,120.76,51.95,40.39,103.45,80.42,155.37,120.78ZM16.2,24.77v241.54c51.96-40.39,103.5-80.46,155.36-120.78C119.56,105.11,68.1,65.11,16.2,24.77Z"/></svg>