<?xml version="1.0" encoding="UTF-8"?>
<svg id="Layer_1" data-name="Layer 1" xmlns="http://www.w3.org/2000/svg" viewBox="0 0 488.92 379.25">
  <defs>
    <style>
      .folder_icon {
        fill: inherit;
        stroke-width: 0px;
      }
    </style>
  </defs>
  <path class="folder_icon" d="m488.02,184.63c-.36-1.46-.81-2.85-1.31-4.21h0s-.01-.02-.01-.03c-5.67-15.88-18.33-25.64-35.69-26.81-8.72-.58-17.49-.29-26.24-.37-4.24-.04-8.47-.01-13.15-.01v-5.82c0-19.41.04-38.83-.03-58.24-.01-3-.11-6.09-.81-8.99-3.46-14.32-15.3-22.78-31.72-22.79-57.12-.02-114.25-.04-171.37.07-3.38,0-5.45-.9-7.42-3.73-8.91-12.79-18.24-25.28-27.09-38.11C165.77,4.84,155.81-.1,142.84,0c-22.43.19-44.87.05-67.31.06C60.58.07,45.61-.11,30.66.12,12.74.4.06,12.94.05,30.51-.02,136.32-.03,242.14.16,347.96c.01,4.9,1.27,10.24,3.48,14.61,6.19,12.23,17.1,16.61,30.38,16.6,117.76-.05,235.51-.08,353.26.08,9.11.01,14.74-3.43,18.76-11.6,20.47-41.63,41.38-83.05,61.89-124.67,6.2-12.59,11.9-25.43,17.71-38.21.72-1.59,1.45-3.18,2.18-4.76t0-.02s.01-.02.01-.03c.45-1.66.78-3.56.93-5.6v-.02c.25-2.08.33-5.3-.75-9.71ZM31.65,293.89c-.67,1.42-1.35,2.83-2.61,5.45V28.98c1.59-.09,3.13-.26,4.66-.26,36.28-.01,72.56.03,108.84-.08,3.38-.01,5.55,1.01,7.51,3.8,9.11,13.03,18.55,25.84,27.63,38.9,7.04,10.11,16.48,14.74,28.76,14.71,56.65-.12,113.3-.05,169.95-.05h6.14v67.2h-6.16c-82.9,0-165.81.04-248.71-.03-15.02-.02-27.89,4.37-37.09,16.81-2.24,3.03-3.98,6.51-5.59,9.94-17.82,37.97-35.56,75.98-53.33,113.97Zm426.53-95.48c-14.06,28.32-28.17,56.61-42.26,84.92-10.56,21.2-21.13,42.38-31.62,63.61-1.15,2.3-2.23,3.64-5.23,3.64-113.14-.1-226.29-.09-339.43-.1-.63,0-1.26-.08-2.68-.18,5.41-11.62,10.55-22.69,15.71-33.74,19.38-41.45,38.88-82.85,58.03-124.4,3.42-7.44,8.45-10.37,16.35-10.36,105.98.08,211.97.05,317.95.06,1.43,0,2.86.07,4.28.25,9.47,1.21,13.12,7.8,8.9,16.3Z"/>
</svg>