<?xml version="1.0" encoding="UTF-8"?>
<svg id="Layer_1" data-name="Layer 1" xmlns="http://www.w3.org/2000/svg" viewBox="0 0 1166.36 1171.63">
  <defs>
    <style>
      .cls-1 {
        fill: #262626;
      }

      .cls-1, .cls-2 {
        stroke-width: 0px;
      }

      .cls-2 {
        fill: #25262d;
      }
    </style>
  </defs>
  <g>
    <path class="cls-2" d="m987.97,604.34c-.25-.57-.66-1.1-1.07-1.59-2.62-3.14-6.35-4.25-10.03-5.46-.15-.05-.32-.05-.48-.05-2.98.02-476.65,48.74-478.48,48.94-2.23.24-4.47.65-6.61,1.32-4.3,1.32-6.91,4.57-8.83,8.43-1.04,2.1-82.37,410.36-83.89,418.35-.46,2.42-1.04,3.01-3.55,2.97-3.89-.07-374.68,30.4-377.41,30.66-4.56.43-9.13.87-13.7,1.29-1.11.1-2.21.18-3.19.85.22.98.43,1.98-.16,2.16-.58.18-1.3,5.9,1.08,6.88,5.33,2.22,10.47,5.12,16.5,5.16.47,0,466.08,46.8,467.17,47.38h16.95c2.02-.62,358.54-30.18,363-33.48,1.26-.93,2.63-1.74,4.18-1.7,2.64.05,4.69-1.11,6.5-2.78,1.55-1.43,3.36-2.5,4.97-3.85,1.09-.91,2.36-1.27,3.8-1.28,2.57-.02,5.11.34,7.71.11,3.75-.33,6.87-1.75,9.42-4.37,2.5-2.57,4.44-5.56,5.24-9.12.66-2.98,80.89-491.59,81.56-495.32.28-1.58-.15-3.25.67-4.75v-3.87c-.15-3.16-.96-5.98-1.35-6.88Zm-22.12,17.25c-.45,2.94-.97,5.88-1.46,8.82-4.99,29.74-9.97,59.47-14.96,89.2-5.08,30.29-10.19,60.58-15.27,90.87-4.93,29.41-9.83,58.83-14.76,88.25-4.92,29.33-9.87,58.66-14.79,88-4.9,29.26-9.78,58.52-14.68,87.78-.29,1.75-.59,3.49-.91,5.24-.37,2.01-.38,2.01-2.53,1.92-.49-.02-.97-.04-1.46-.05h-.94c-8.8-.52-17.08-1.03-25.37-1.49-9.82-.54-19.65-.97-29.47-1.59-8.44-.52-16.9-.96-25.35-1.44-8.85-.5-17.7-.98-26.55-1.47-8.61-.48-17.22-.95-25.83-1.44-8.93-.51-17.87-.94-26.8-1.47-10.62-.63-21.23-1.41-31.86-1.9-8.54-.4-17.07-.9-25.59-1.45-8.69-.55-17.39-.97-26.08-1.47-8.61-.49-17.22-.97-25.84-1.45-8.85-.51-17.7-.96-26.55-1.46-8.61-.5-17.22-1.02-25.83-1.44-8.45-.41-16.91-.87-25.35-1.45-11.02-.75-22.05-1.31-33.07-1.94-8.78-.5-17.55-1.01-26.33-1.46-10.46-.55-20.92-1.24-31.38-1.83-9.58-.54-19.16-1.02-28.74-1.53-.32-.01-.64-.05-.96-.11-1.68-.32-1.88-.57-1.59-2.25.33-1.83.71-3.64,1.07-5.46,4.77-24.54,69.69-358.42,74.1-381.05.55-2.86.56-2.93,3.55-3.24,5.54-.57,452.31-42.16,458.01-42.7,2.97-.28,5.93-.59,8.91-.86.96-.08,1.93-.15,2.89-.13,1.69.02,2.02.38,1.77,2.05Z"/>
    <g>
      <path class="cls-2" d="m886.64,864.92c-.07-.13-.13-.26-.2-.38.02.41,0,.82-.03,1.25-.01.19-.03.39-.06.57.06-.11.11-.21.16-.31.08-.17.14-.34.17-.49.06-.25.05-.47-.04-.64Zm-48.53,134.2c-6.7-8.7-17.69-10.25-24.78-3.89-7.29,6.54-8.86,14.45-3.04,22.89,5.45,7.89,16.46,9.82,23.75,3.77,8.15-6.76,9.09-15,4.06-22.77Z"/>
      <path class="cls-2" d="m899.85,788.36c-.47,6.23-5.43,11.01-11.4,11.32-3.01.25-6.72-.59-9.76-1.21-58.49-12.04-113.75-4.14-164.87,27.34-61.02,37.55-95.46,92.61-105.66,163.21-.52,3.59.34,8.16-1.57,10.6-.16.2-.31.39-.47.6-1.05,6.15-6.53,10.61-12.76,10.14-6.51-.49-11.41-6.2-11.07-12.81-.02-.17-.02-.33-.02-.49.35-13.47,2.73-27.09,5.99-40.25,14.67-59.05,47.16-106.32,97.86-144.05,59.63-40.86,126.89-54.81,199.91-38.38.81.18,1.63.47,2.43.86.11,0,.23,0,.34.02,6.61.5,11.56,6.38,11.05,13.12Z"/>
      <path class="cls-2" d="m886.42,865.78c-.01.19-.03.39-.06.57-.78,6.46-6.42,11.22-12.84,10.73-1.3-.1-2.54-.41-3.67-.89t0,0c-.58-.14-1.14-.29-1.7-.43-.45-.11-.88-.22-1.3-.31-93.85-20.2-171.37,35.74-182.44,131.87-.06.48-.11.95-.18,1.41-.06.45-.13.9-.22,1.33-.23,1.3-.53,2.52-.9,3.67-.06.18-.12.36-.18.54-.1.27-.19.53-.3.8-.1.25-.21.49-.32.74-.01.04-.02.07-.05.11-.06.13-.11.26-.18.37-.16.31-.31.62-.48.91-.28.5-.59.98-.94,1.41-.12.15-.23.29-.35.44-.12.14-.24.27-.37.41-.24.27-.5.53-.79.76-.1.09-.2.17-.3.26-.18.16-.37.29-.56.42-.15.1-.3.2-.46.3-.17.12-.35.22-.52.31-.15.07-.3.16-.46.23-.34.17-.69.32-1.06.43-.18.06-.38.12-.57.17-.17.05-.36.1-.54.14-.02,0-.03.02-.05.02-.34.08-.69.15-1.05.2-.12.02-.25.04-.38.05-.12.03-.24.04-.35.04-.12,0-.26.02-.38.03-.25.03-.5.04-.76.04-.23,0-.45,0-.69,0-.46,0-.92-.03-1.41-.08-.49-.05-.96-.11-1.4-.19-.17-.03-.33-.06-.48-.09-.14-.03-.28-.06-.42-.1-.33-.07-.66-.16-.97-.27-.23-.07-.45-.15-.66-.23-.2-.08-.4-.16-.59-.24-.25-.11-.48-.23-.71-.36-.14-.07-.26-.14-.39-.22-.09-.05-.19-.11-.28-.17-.36-.23-.7-.47-1.01-.74-.14-.11-.27-.24-.41-.35-.02-.02-.03-.03-.04-.04-.07-.07-.14-.14-.21-.21,0,0-.02-.01-.03-.02-.08-.08-.15-.16-.23-.24-.02-.01-.04-.02-.04-.04-.14-.15-.27-.3-.39-.45-.17-.22-.34-.44-.5-.67-.04-.07-.09-.14-.13-.22-.15-.23-.3-.47-.43-.7t0-.01c-.13-.25-.25-.5-.37-.76-.04-.07-.07-.15-.1-.23-.12-.25-.23-.52-.32-.79-.12-.31-.22-.63-.31-.96-.08-.25-.14-.51-.2-.78-.05-.15-.07-.3-.11-.45-.05-.25-.09-.5-.13-.76-.06-.34-.11-.71-.15-1.07,0-.02,0-.05,0-.07s0-.03,0-.04c-.04-.41-.07-.84-.09-1.26,0-.08,0-.14-.01-.22-.02-.34-.02-.68-.03-1.03,0-.07,0-.13,0-.21,0-.41,0-.82.03-1.24.01-.44.04-.89.07-1.36l.03-.39c4.52-53.25,28.07-95.92,70.93-127.95,43.85-30.63,91.83-39.9,143.62-26.72,1.05.27,2.07.72,3.08,1.35.33.2.67.42,1,.66h.03c5.27,1.25,9.12,6.01,9.24,11.59h0c.02.42,0,.83-.03,1.25Z"/>
      <path class="cls-2" d="m886.68,865.55c-.03.15-.09.31-.17.49-.05.1-.1.2-.16.31.03-.19.05-.38.06-.57.03-.42.04-.84.03-1.25.07.13.13.26.2.38.08.17.09.39.04.64Z"/>
      <path class="cls-2" d="m876.21,943.58c-.33,4.4-2.91,8.09-6.49,9.97-.01,0-.02.02-.03,0-1.9,1.01-4.09,1.5-6.39,1.33-1.92-.15-3.7-.74-5.24-1.69-.07,0-.13-.02-.2-.03h0c-1.26-.26-2.54-.57-3.82-.93-49.86-13.99-90.22,15.17-92.89,67.05-.04.96-.12,1.91-.21,2.83-.01.17-.02.33-.05.5-.05.37-.08.74-.14,1.1.12.86.15,1.75.08,2.65-.33,4.4-2.91,8.09-6.49,9.97-.01,0-.02.02-.03,0-1.9,1.01-4.09,1.5-6.39,1.33-4.12-.31-7.59-2.71-9.5-6.1,0-.01-.02-.02-.02-.03-.07-.09-.14-.18-.2-.28-.55-.79-1.01-1.65-1.37-2.59-.05-.1-.09-.2-.12-.29-.06-.16-.12-.3-.16-.46-.06-.15-.11-.3-.15-.47-.1-.3-.19-.62-.27-.94,0,0,0-.01,0-.02,0-.04-.02-.08-.03-.12-.07-.26-.13-.53-.18-.81-.07-.32-.12-.62-.17-.95-.05-.32-.1-.63-.14-.97-.04-.3-.08-.6-.1-.91-.03-.3-.06-.62-.08-.93,0-.05,0-.09,0-.15-.02-.33-.03-.67-.05-1.02-.03-.68-.04-1.38-.02-2.09.54-32.52,14.07-58.41,39.62-78.32,27-17.87,55.85-22.48,86.86-12.63.41.14.82.27,1.23.41.29.11.59.21.87.32.46.18.91.35,1.35.55.25.1.49.22.73.33.31.15.61.29.91.44.4.21.79.42,1.17.65.24.14.47.28.7.43.29.18.57.37.84.56.22.15.43.31.64.47.21.16.41.32.6.5.3.25.58.52.85.8,0,.01.02.01.03.02,3,2.44,4.8,6.31,4.48,10.51Z"/>
      <path class="cls-2" d="m838.11,999.12c5.02,7.77,4.08,16-4.07,22.76-7.29,6.05-18.31,4.13-23.76-3.77-5.83-8.44-4.25-16.35,3.04-22.89,7.09-6.36,18.08-4.81,24.78,3.9Z"/>
    </g>
  </g>
  <g>
    <path class="cls-2" d="m489.23,187.87c-3.91-3.63-10.79-14.11-11.28-14.97-3.29-5.8-4.41-11.98-3.18-18.55.28-1.48.59-2.97.93-4.44.55-2.36,1.44-4.6,3.12-6.38,2.41-2.54,185.81-141.41,186.52-141.65,5.71-1.99,11.4-2.8,17.29-.44,5.36,2.15,10.8,4.08,15.65,7.31.42.28.86.62,1.33.69,2.92.48,440.38,318.9,444.73,322.66,7.24,6.25,14.1,12.92,18.8,21.51,2.79,5.1,3.37,10.47,3.19,16.07-.01.37-.11.76-.26,1.09.29,8.88-5.86,13.09-9.07,19.49-1.16,2.32-158.81,166.78-161.54,169-2.44,1.99-4.95,3.88-7.44,5.81-.3.23-.6.45-.9.69-2.74,2.15-5.89,3.15-9.27,3.9-10.74,1.3-14.26,1.3-21.38-.08-2.48-.44-4.99-.71-7.43-1.31-3.2-.79-6.13-2.34-8.88-4.11-3.7-2.37-448.9-374.41-450.92-376.29ZM692.96,13.96c-1.62.13-3.34-.02-4.85.46-2.39.75-4.69,1.84-6.57,3.62-1.78,1.68-184.32,139.96-187.59,143.6-.33.37-.59.82-.8,1.27-2.27,4.76-1.86,9.5,1.21,13.57,2.39,3.16,5.15,6.14,8.58,8.41,3.46,2.29,426.79,351.07,430.27,352.08,2.9.84,7.33,4.67,12.76,3.14,3.39.64,5.29-2.64,7.16-4.4,1.15-.45,183.12-183.66,183.82-184.69,2.67-3.9,4.04-8.12,2.72-12.86-.8-2.84-2.46-5.23-4.31-7.48-2.99-3.65-427.38-309.67-430.67-312.59-3.41-3.03-7.11-4.69-11.72-4.13Z"/>
    <g>
      <path class="cls-2" d="m1018.12,370.69c.01-.12.03-.25.04-.37-.18.3-.39.59-.62.88-.1.13-.21.26-.32.38.09-.05.18-.1.26-.15.14-.09.26-.18.36-.27.16-.15.26-.32.28-.48Zm-99.14,73.32c-.66-9.47-7.82-15.84-15.96-14.66-8.38,1.22-13.29,6.15-13.14,15.01.15,8.28,7.14,14.94,15.29,14.08,9.1-.97,13.71-6.44,13.82-14.44Z"/>
      <path class="cls-2" d="m1064.26,321.93c-3.32,4.26-9.18,5.33-13.61,2.69-2.28-1.26-4.56-3.64-6.44-5.55-36.32-36.65-79.85-57.41-131.69-59.23-61.87-2.18-113,20.94-154.12,66.86-2.09,2.33-3.66,6.04-6.2,6.87-.21.07-.41.13-.62.2-3.7,3.92-9.78,4.51-14.03,1.18-4.45-3.47-5.24-9.92-1.83-14.51.07-.13.14-.25.22-.36,6.7-9.52,14.93-18.19,23.57-26.09,38.81-35.47,84.8-53.92,139.33-56.8,62.45-.86,117.51,21.29,162.18,68.05.49.52.94,1.12,1.34,1.78.08.05.16.11.24.17,4.52,3.53,5.27,10.12,1.67,14.73Z"/>
      <path class="cls-2" d="m1017.55,371.2c-.1.13-.21.26-.32.38-3.66,4.27-9.99,5-14.38,1.58-.89-.69-1.63-1.51-2.22-2.4t0,0c-.35-.37-.68-.76-1.01-1.12-.27-.29-.53-.58-.79-.84-57.85-59.44-140.38-56.3-194.36,7.56-.27.32-.53.63-.81.93-.26.29-.53.58-.8.85-.79.82-1.59,1.56-2.41,2.21-.13.1-.26.2-.39.3-.2.15-.39.29-.6.43-.19.13-.39.26-.59.38-.03.02-.05.04-.09.06-.1.06-.2.13-.31.18-.26.15-.52.3-.78.42-.44.22-.89.42-1.35.57-.16.05-.31.1-.46.15-.16.04-.3.08-.46.11-.3.08-.62.14-.93.17-.11.01-.23.03-.34.04-.21.03-.41.03-.6.03-.16,0-.31,0-.47,0-.18,0-.35,0-.53-.03-.14-.02-.29-.03-.44-.06-.33-.04-.65-.11-.97-.2-.16-.04-.33-.09-.49-.15-.15-.05-.3-.1-.45-.16-.02,0-.03,0-.04-.01-.28-.1-.57-.23-.86-.36-.1-.05-.2-.09-.3-.15-.1-.03-.19-.09-.27-.14-.09-.05-.19-.11-.29-.16-.19-.1-.38-.21-.56-.34-.16-.11-.33-.21-.49-.33-.33-.23-.65-.47-.98-.73-.33-.27-.63-.54-.92-.81-.11-.1-.2-.2-.3-.3-.09-.09-.17-.18-.25-.27-.21-.21-.4-.43-.57-.66-.13-.16-.25-.32-.37-.48-.11-.16-.21-.31-.31-.46-.12-.2-.24-.39-.34-.6-.07-.11-.12-.23-.18-.34-.04-.08-.08-.17-.12-.26-.15-.34-.28-.67-.37-1.02-.05-.15-.08-.3-.12-.45,0-.02,0-.03-.01-.05-.02-.08-.03-.17-.05-.25,0,0,0-.02,0-.03-.02-.1-.03-.19-.05-.28,0-.02-.02-.03-.01-.05-.03-.18-.05-.35-.06-.51-.02-.24-.04-.48-.04-.72,0-.07,0-.15,0-.22,0-.24.01-.48.03-.71t0-.01c.02-.24.06-.48.1-.72,0-.07.02-.14.04-.21.03-.24.09-.48.15-.72.06-.28.15-.56.24-.84.07-.22.14-.44.23-.66.04-.13.09-.25.14-.38.09-.2.17-.4.27-.61.12-.28.26-.56.41-.84,0-.02.02-.04.03-.05s0-.02.01-.03c.16-.32.35-.63.54-.95.03-.06.06-.11.1-.16.15-.26.31-.5.48-.75.03-.05.06-.09.1-.15.2-.29.4-.59.61-.88.22-.31.46-.62.7-.94l.21-.27c28.74-36.14,66.1-55.58,112.25-58.1,46.2-1.05,85.16,15.24,116.11,49.5.63.69,1.14,1.51,1.57,2.45.14.31.28.62.4.95h.01v.02c3.2,3.42,3.69,8.69,1.11,12.76h0c-.18.31-.39.6-.62.89Z"/>
      <path class="cls-2" d="m1017.85,371.16c-.09.09-.22.18-.36.27-.08.05-.17.1-.26.15.11-.12.22-.25.32-.38.23-.29.43-.58.62-.88-.01.12-.03.25-.04.37-.02.16-.12.32-.28.48Z"/>
      <path class="cls-2" d="m972.98,422.29c-2.34,3-5.96,4.42-9.44,4.06-.01,0-.02,0-.02,0-1.85-.18-3.66-.88-5.23-2.1-1.31-1.02-2.3-2.3-2.96-3.72-.04-.04-.08-.08-.12-.12h0c-.78-.79-1.55-1.63-2.3-2.51-29.18-33.93-72.16-32.26-98.91,3.78-.49.67-1,1.32-1.51,1.93-.09.12-.18.22-.27.34-.21.25-.41.49-.62.72-.32.68-.73,1.33-1.21,1.95-2.34,3-5.96,4.42-9.44,4.06-.01,0-.02,0-.02,0-1.85-.18-3.66-.88-5.23-2.1-2.81-2.19-4.16-5.58-3.91-8.93,0-.01,0-.02,0-.03,0-.1-.01-.2,0-.29-.02-.83.07-1.67.25-2.52.01-.09.03-.18.05-.27.03-.14.06-.27.1-.41.03-.13.07-.27.11-.41.07-.26.16-.54.25-.8,0,0,0-.01,0-.02.01-.03.02-.07.03-.1.08-.22.16-.44.25-.67.1-.26.21-.51.33-.77.11-.25.23-.5.36-.76.11-.23.23-.47.37-.71.12-.24.25-.47.39-.71.02-.04.04-.07.07-.11.14-.25.3-.5.46-.76.3-.51.64-1.01.99-1.51,15.95-23.14,38.08-35.29,65.98-37.39,27.98.07,50.93,10.55,68.53,32.48.23.3.46.59.68.88.16.22.32.44.47.65.25.35.49.69.71,1.04.13.19.25.39.37.59.15.25.3.5.45.75.19.34.37.68.53,1.02.1.21.2.43.3.65.12.27.23.54.33.81.08.21.16.43.23.64.07.21.14.43.2.65.1.32.17.65.23.98,0,.01,0,.02,0,.03.99,3.19.44,6.84-1.8,9.71Z"/>
      <path class="cls-2" d="m918.99,444.01c-.1,7.99-4.72,13.47-13.82,14.43-8.14.86-15.14-5.79-15.29-14.08-.15-8.86,4.76-13.8,13.14-15.01,8.15-1.18,15.31,5.19,15.97,14.66Z"/>
    </g>
  </g>
  <g>
    <ellipse class="cls-1" cx="234.32" cy="464.63" rx="160" ry="71"/>
    <path class="cls-1" d="m394.32,484.63v51c0,39.21-71.63,71-160,71s-160-31.79-160-71v-51c0,8.99,3.77,17.59,10.64,25.5,8.42,9.72,21.52,18.4,38.07,25.5,28.8,12.38,68.04,20,111.29,20s82.49-7.62,111.29-20c16.55-7.1,29.65-15.78,38.07-25.5,6.87-7.91,10.64-16.51,10.64-25.5Z"/>
    <path class="cls-1" d="m394.32,555.59v51c0,39.21-71.63,71-160,71s-160-31.79-160-71v-51c0,8.99,3.77,17.59,10.64,25.5,8.42,9.72,21.52,18.4,38.07,25.5,28.8,12.38,68.04,20,111.29,20s82.49-7.62,111.29-20c16.55-7.1,29.65-15.78,38.07-25.5,6.87-7.91,10.64-16.51,10.64-25.5Z"/>
    <path class="cls-1" d="m394.32,626.54v51c0,39.21-71.63,71-160,71s-160-31.79-160-71v-51c0,8.99,3.77,17.59,10.64,25.5,8.42,9.72,21.52,18.4,38.07,25.5,28.8,12.38,68.04,20,111.29,20s82.49-7.62,111.29-20c16.55-7.1,29.65-15.78,38.07-25.5,6.87-7.91,10.64-16.51,10.64-25.5Z"/>
  </g>
</svg>