<?xml version="1.0" encoding="UTF-8"?>
<svg id="Layer_1" data-name="Layer 1" xmlns="http://www.w3.org/2000/svg" viewBox="0 0 1200 427.35">
  <defs>
    <style>
      .cls-1 {
        fill: #807560;
      }

      .cls-1, .cls-2 {
        stroke-width: 0px;
      }

      .cls-2 {
        fill: #25262d;
      }
    </style>
  </defs>
  <path class="cls-2" d="m873.96,273.02c-2.03,3.03-3.02,6.47-4.21,9.86-3.23,9.24-8.73,12.84-18.34,11.85-5.06-.52-10.08-1.25-15.14-.22.1-2.15.32-4.14-2.61-4.94-7.5-2.06-13.05-6.73-17.88-12.82-3.17-3.97-7.32-7.54-13.39-7.42.15,3.13,2.25,4.21,3.72,5.62,5.55,5.33,11.34,10.43,16.82,15.83,2.84,2.81,5.93,4.85,9.87,5.54-.35,5.69,3.78,8.7,7.21,12.17,5.57,5.6,7.9,12.65,7.54,20.28-.35,7.55-7.04,13.47-14.58,13.06-6.81-.38-13.78-.83-19.41-5.66-1.08-.93-2.28-2.3-3.95-1.42-1.89.99-1.45,2.91-1.33,4.59.07,1.05.44,2.09.62,3.15,1.55,9.51-1.28,12.35-10.71,14.23-10.6,2.1-18.54-3.59-27.27-7.26-1.49-.62-2.99-2.75-4.52-1.28-1.69,1.63.62,2.92,1.41,4.28,2.78,4.71,0,9.53-6.84,10.22-6.97.7-14.01,1.01-20.98-1.39-6.79-2.35-13.02-6.94-20.78-5.89-6.68-7.26-1.62-12.95,2.48-18.77,1.73-2.46,3.6-4.82,5.13-7.4,9.28-15.69,2.02-30.24-15.82-31.69-3.52-.28-5.57-1.89-6.13-5.37-.38-2.33-.81-4.64-1.16-6.97-2.06-13.81-19.56-23.66-32.51-13.83-5.83,4.42-11.16,9.34-15.69,15.13-1.87,2.39-3.67,5.09-8.13,6.59,4.6-14.51-4.28-20.43-14.46-25.27-5.59-2.66-11.14-3.06-17.26-.17-9.48,4.49-17.57,10.51-24.61,18.14-2.03,2.2-4.22,5.22-7.34,4.68-8.51-1.47-17.08-2.12-24.64-7.9-9.45-7.22-20.28-11.68-32.66-6.9.23-2.87-1.4-4.22-3.9-5.04-8.02-2.63-15.43-6.62-22.46-11.13-14.17-9.09-28.61-8.07-43.74-2.83-30.9,10.7-59.83,25.96-90.01,38.27-39.15,15.97-78.55,31.34-118.2,46.01-21.08,7.8-42.29,15.25-63.55,22.56-5.71,1.97-10.05,4.86-13.74,9.81-8.83,11.86-18.82,22.86-24.5,36.84-1.57,3.87-5.07,5.5-9.43,5.46-5.58-.03-11.16.44-16.73.47-9.93.06-17.9,5.57-26.43,9.45-4.36,1.99-8.42,2.28-13.05.99-8.71-2.45-17.21-5.41-25.53-8.87-4.55-1.88-9.01-2.53-13.78-1.07-13.58,4.17-27.4,6.68-41.34,8.28v-254.05c.98,3.22,1.73,6.52,1.6,10.1-.14,3.83,13.91,10.9,18.84,10.08,10.97-1.84,22.16-2.08,32.95-5.43,7.77-2.42,16-3.11,24.22-2.93,14.85.31,29.53-1.27,44.24-3.25,11.44-1.54,23.07,1.48,34.67.5,1.11-.09,2.66.67,3.44,1.54,6.66,7.39,15.17,5.57,23.43,4.81,27.9-2.57,55.02-9.3,81.95-16.53,39.53-10.6,79.08-21.31,118.11-33.59,14.07-4.43,27.92-9.95,42.46-11.73,12.4-1.51,24.86-4.56,37.64-2.63,9.44,1.43,18.93-.22,28.24-1.34,18.09-2.17,36.29-3.91,54.02-8.52,13.37-3.47,27.17-3.31,40.8-4.61-.45,4.16-3.38,6.75-6.78,7.77-9.8,2.93-16.02,10.48-22.98,17.01-6.21,5.83-4.71,14.63,3.04,18.55,18.73,9.45,45.49,10.5,62.1-6.59,4.58-4.71,11.38-8.36,17.91-7.32,10.91,1.74,21.3-1.19,31.91-1.21,7.12-.02,15.32-1.42,21.2,3.04,13.96,10.58,28.32,20.74,40.58,33.46,4.27,4.44,8.84,9.17,14.23,11.86,18.04,9.01,35.27,19.21,52.18,30.19,24.69,16,48.58,32.77,67.43,55.72,1.75,2.12,3.68,3.52,6.54,3.25Z"/>
  <path class="cls-1" d="m873.96,273.02c-2.85.27-4.78-1.13-6.53-3.26-18.86-22.94-42.75-39.71-67.43-55.72-16.92-10.97-34.15-21.18-52.19-30.18-5.39-2.69-9.96-7.41-14.23-11.85-12.25-12.72-26.62-22.88-40.57-33.46-5.87-4.45-14.09-3.06-21.21-3.04-10.61.03-21,2.95-31.91,1.22-6.52-1.04-13.32,2.61-17.91,7.32-16.61,17.08-43.37,16.03-62.1,6.58-7.75-3.91-9.24-12.72-3.04-18.55,6.95-6.53,13.18-14.07,22.99-17.01,3.4-1.02,6.32-3.61,6.78-7.78,6.35-6.38,13.15-12.38,18.93-19.23,5.78-6.86,13.4-8.46,20.89-6.99,13.89,2.71,26.66-1.05,39.95-3.49,14.68-2.7,28.78-8.18,44.02-8.43,7.96-.13,14.63,2.76,21.55,5.55,9.15,3.69,18.05,8.49,28.07,9,21.16,1.08,41.22,7.06,59.63,16.55,9.75,5.02,17.07,5.78,26.86,1.81,8.06-3.27,15.09-8,22.41-12.28,3.45-2.02,6.45-3.65,10.5-3.76,5.45-.15,10.97-.6,11.61-8.11.16-1.92,1.59-3.26,4-3.43,27.67-1.98,53.87-10.51,79.82-19.26,33.1-11.17,66.91-18.72,101.26-24.37,2.54-.42,5.22-.58,7.56-1.54,19.55-8,40.04-6.5,60.4-6.12,3.61.07,6.74-.61,9.66-2.73,11.56-8.41,24.96-13.18,37.93-18.72,7.52-3.21,8.23-2.4,8.23,5.81,0,77.7-.07,155.4.14,233.1.02,6.2-1.91,8.55-7.98,9.69-35.41,6.71-70.32,15.9-106,21.26-36.26,5.45-72.49,11.07-108.91,15.4-12.56,1.49-25.23,1.92-37.66,4.73-8.05,1.82-9.71.35-11.38-7.86-1.8-8.82-3.6-17.65-4.95-26.55-.68-4.49-2.85-5.91-7.15-6.43-12.9-1.55-23.63,1.74-31.96,12.17-2.92,3.66-6.67,6.65-10.05,9.95Z"/>
  <path class="cls-1" d="m526.4,275.68c12.37-4.78,23.21-.33,32.65,6.9,7.56,5.78,16.13,6.43,24.64,7.9,3.12.54,5.3-2.48,7.33-4.68,7.04-7.64,15.13-13.66,24.61-18.14,6.12-2.89,11.67-2.49,17.25.17,10.19,4.84,19.07,10.76,14.46,25.26,4.46-1.49,6.26-4.19,8.13-6.58,4.54-5.79,9.87-10.71,15.69-15.13,12.94-9.83,30.46.02,32.52,13.83.35,2.33.78,4.65,1.16,6.97.57,3.48,2.62,5.09,6.13,5.38,17.84,1.45,25.1,15.99,15.82,31.69-1.52,2.57-3.4,4.94-5.12,7.39-4.1,5.83-9.17,11.52-2.49,18.78-6.59,3.97-13.23,7.87-19.76,11.95-5.31,3.32-10.76,6.17-17.07,7.09-11.58,1.68-20.17-2.89-25.86-12.75-2.35-4.07-4.48-4.1-8.2-1.95-18.35,10.59-35.85,3.35-40.94-16.94-.87-3.48-2.7-3.72-5.05-2.36-8.9,5.13-16.56,2.48-23.48-3.72-6.28-5.62-13.95-10.41-14.36-20.24-.18-4.35-3.07-2.82-4.98-2.03-19.39,8.05-39.44-12.94-36.09-32.01.44-2.48.53-5.17,3-6.78Z"/>
  <path class="cls-1" d="m832.79,296.31c-3.94-.69-7.02-2.72-9.87-5.53-5.47-5.41-11.26-10.5-16.81-15.83-1.46-1.41-3.56-2.49-3.71-5.62,6.07-.12,10.22,3.44,13.38,7.42,4.83,6.09,10.38,10.76,17.88,12.82,2.93.81,2.72,2.78,2.62,4.94-1.16.6-2.32,1.19-3.48,1.79Z"/>
</svg>