<?xml version="1.0" encoding="UTF-8"?><svg id="Layer_1" xmlns="http://www.w3.org/2000/svg" viewBox="0 0 390.18 247.12"><defs><style>.cls-1{fill:#ff8d61;}</style></defs><path class="cls-1" d="M389.02,93.3c-2.85,15.49-6.56,29.99-11.17,43.48-12.13,35.66-32.74,72.45-61.86,110.35l-54.29-43.28c13-18.98,22.8-35.56,29.37-49.76-33.28-9.06-57.74-39.5-57.74-75.66C233.33,35.11,268.45,0,311.76,0s78.42,35.11,78.42,78.42c0,5.09-1.16,14.87-1.16,14.87Z"/><path class="cls-1" d="M155.69,93.3c-2.85,15.49-6.56,29.99-11.17,43.48-12.13,35.66-32.74,72.45-61.86,110.35l-54.29-43.28c13-18.98,22.8-35.56,29.37-49.76C24.47,145.02,0,114.58,0,78.42,0,35.11,35.11,0,78.42,0s78.42,35.11,78.42,78.42c0,5.09-1.16,14.87-1.16,14.87Z"/></svg>