<?xml version="1.0" encoding="UTF-8"?><svg id="Layer_1" xmlns="http://www.w3.org/2000/svg" viewBox="0 0 390.18 247.12"><defs><style>.cls-1{fill:#ff8d61;}</style></defs><path class="cls-1" d="M1.16,153.83c2.85-15.49,6.56-29.99,11.17-43.48C24.46,74.69,45.07,37.9,74.18,0l54.29,43.28c-13,18.98-22.8,35.56-29.37,49.76,33.28,9.06,57.74,39.5,57.74,75.66,0,43.31-35.11,78.42-78.42,78.42S0,212.01,0,168.7c0-5.09,1.16-14.87,1.16-14.87Z"/><path class="cls-1" d="M234.5,153.83c2.85-15.49,6.56-29.99,11.17-43.48,12.13-35.66,32.74-72.45,61.86-110.35l54.29,43.28c-13,18.98-22.8,35.56-29.37,49.76,33.28,9.06,57.74,39.5,57.74,75.66,0,43.31-35.11,78.42-78.42,78.42s-78.42-35.11-78.42-78.42c0-5.09,1.16-14.87,1.16-14.87Z"/></svg>