<?xml version="1.0" encoding="UTF-8"?>
<svg id="Layer_1" data-name="Layer 1" xmlns="http://www.w3.org/2000/svg" viewBox="0 0 1197.5 792.85">
  <defs>
    <style>
      .cls-1 {
        fill: #25262d;
        stroke-width: 0px;
      }
    </style>
  </defs>
  <path class="cls-1" d="m1133.75,697H0V0h1133.75v697ZM5,692h1123.75V5H5v687Z"/>
  <path class="cls-1" d="m1162.53,752.6c-.54-1.33-1.85-2.61-.95-4.58,11.8,4.85,23.55,9.68,35.92,14.76-.45-2.45-1.75-3.2-2.7-4.16-19.83-19.99-39.63-40.01-59.59-59.87-1.39-1.38-2.26-2.74-2.75-4.27h-.99v3.67c.21.67.28,1.53.27,2.64-.18,29.59-.1,59.18-.09,88.77,0,.98.1,1.95.15,2.93.21.02.42.03.64.03,5.26-12.64,10.53-25.28,16.2-38.9,4.67,11.25,8.85,21.37,13.07,31.48,3.83,9.19,3.81,9.1,12.98,5.28,2.35-.98,2.86-1.82,1.79-4.28-4.8-11.12-9.39-22.31-13.96-33.53Zm7.26,34.82c-2.22.88-2.37-.65-2.89-1.91-5.57-13.4-11.14-26.8-16.71-40.2-.4-.98-.84-1.95-1.58-3.67-4.04,9.68-7.79,18.67-11.99,28.74v-62.29c13.85,13.61,27.86,27.37,41.88,41.14-.09.18-.18.37-.27.56-8.42-3.43-16.84-6.87-26.31-10.73,4.16,10.03,7.88,19.03,11.62,28.02,2.34,5.65,4.71,11.29,7.01,16.96.48,1.19,1.46,2.5-.77,3.37Z"/>
  <path class="cls-1" d="m908.9,293.96c-64.37,0-124.88-25.06-170.39-70.57-45.51-45.51-70.57-106.02-70.57-170.39,0-1.6.01-3.2.05-4.79l4.99-.15c.22,2.59.52,5.3.92,8.29,11.59,85.74,49.05,116.65,73.84,137.1,1.85,1.53,3.63,3,5.34,4.44,2.04,1.71,7.96,6.63,7.96,6.63,24.7,21.79,70.69,43.17,117.9,41.93,34.54-.91,53.03-20.93,60.97-32.79,11.03-16.47,14.98-36.63,9.82-50.17l-.13-.48c-.19-1.07-3.9-19.92-26.61-27.12,5.27,2.46,10.37,5.79,14.54,10.28,7.57,8.15,10.92,18.76,9.97,31.54-1.22,16.44-17.01,34.72-37.54,43.45-17.27,7.35-52.59,14.41-95.1-20.83-24.25-20.1-34.26-51.66-26.77-84.42,8.65-37.85,38.02-67.3,76.65-76.87,40.53-10.04,126.09-6.47,243.68,130.26,2.13,2.47,3.97,4.86,5.63,7.31l.91,1.34-.85,1.38c-21.2,34.37-50.94,63.11-85.99,83.11-36.14,20.62-77.38,31.52-119.24,31.52Zm-231.88-197.12c20.61,109.23,116.75,192.12,231.88,192.12,81.94,0,156.62-41.41,200.11-110.86-1.31-1.83-2.75-3.65-4.36-5.53-46.45-54.01-92.3-92.09-136.29-113.18-36.74-17.62-72.16-22.98-102.41-15.48-36.79,9.11-64.75,37.13-72.98,73.13-7.06,30.88,2.32,60.58,25.09,79.45,40.48,33.55,73.73,26.98,89.96,20.08,21.42-9.12,33.58-26.63,34.51-39.22.84-11.33-2.07-20.67-8.65-27.76-14.4-15.51-41.51-15.69-42.66-15.69l-.3-4.98c54.29-6.52,62.87,29.54,63.57,33.01,5.59,14.98,1.42,36.85-10.42,54.52-8.48,12.66-28.21,34.04-65,35.01-1.35.04-2.7.05-4.05.05-47.13,0-92.56-21.42-117.24-43.19h0s-5.88-4.89-7.92-6.6c-1.7-1.43-3.47-2.89-5.31-4.41-21.11-17.41-51.18-42.23-67.54-100.47Z"/>
  <path class="cls-1" d="m483.18,605.35l-4.3-.2c-41.87-1.91-98.69-13.06-131.59-55.36-8.45-10.86-11.44-17.88-14.08-24.08-1.7-3.99-3.17-7.43-5.88-11.41-1.09-1.61-2.32-3.21-3.77-4.9-3.97-4.61-7.9-9.03-11.68-13.13-78.87-85.66-135.16-86.35-161.7-79.14-25.75,7-45.17,27.15-50.69,52.59-4.72,21.77,2.03,42.69,18.05,55.97,28.95,24,52.68,19.32,64.25,14.39,15.22-6.48,23.85-18.86,24.51-27.74.59-7.98-1.45-14.55-6.06-19.53-10.2-10.98-29.49-11.11-30.3-11.11l-.3-4.98c39.55-4.74,46.08,21.48,46.67,24.35,4.1,10.93,1.05,27-7.62,39.95-6.2,9.25-20.62,24.89-47.5,25.59-12.57.34-25.57-1.43-38.62-5.24l-.15-.05c-64.85-23.35-108.42-85.38-108.42-154.34,0-37.71,12.44-73.16,35.98-102.51,31.34-39.08,78-61.49,128.02-61.49,32.92,0,64.67,9.71,91.83,28.1,34.5,19.86,61.25,50.97,75.69,87.88,6.2-6.62,13.88-17.66,12.63-30.78-1.21-12.74-10.53-24.77-27.69-35.76-23.48-15.05-40.47-35.11-50.49-59.63-10.65-26.08-9.95-48.93-8.58-60.23,1.33-10.99,4.48-22.34,9.38-33.74l.07-.16c14.2-27.55,34.59-52.33,58.96-71.66,39.2-31.09,86.41-47.52,136.52-47.52,58.72,0,113.92,22.87,155.44,64.39,41.52,41.52,64.39,96.73,64.39,155.44,0,.33,0,.66,0,.99,4.8,72.26-26.49,140.08-79.72,172.78h0c-4.88,3-10.14,5.83-16.08,8.64l-.59.28-.66-.05c-.4-.03-.79-.05-1.18-.07-2.19-.11-4.36-.17-6.45-.17-32.41,0-63.04,12.44-86.26,35.03-24.13,23.49-37.42,54.97-37.42,88.65,0,19.76,4.52,38.64,13.44,56.1l1.96,3.83Zm-311.3-195.99c31.8,0,81.02,15.47,143.68,83.53,3.82,4.14,7.79,8.61,11.8,13.26,1.58,1.84,2.93,3.59,4.12,5.35,2.98,4.37,4.61,8.2,6.34,12.26,2.52,5.91,5.38,12.62,13.43,22.97,30.64,39.4,83.3,50.81,123.64,53.22-8.03-17.09-12.09-35.41-12.09-54.52,0-35.04,13.83-67.79,38.94-92.23,24.15-23.5,56.02-36.45,89.74-36.45,2.17,0,4.43.06,6.7.17.21,0,.41.02.62.03,5.53-2.64,10.45-5.29,15.02-8.1h0c51.71-31.76,82.06-97.82,77.34-168.3v-.12s0-.12,0-.12c0-.33,0-.64,0-.97,0-118.46-96.37-214.83-214.83-214.83-48.98,0-95.11,16.06-133.42,46.44-23.79,18.88-43.7,43.07-57.58,69.96-4.69,10.93-7.71,21.79-8.97,32.28-4.08,33.67,8.34,84.01,56.8,115.06,18.52,11.86,28.6,25.15,29.97,39.5,1.64,17.23-9.86,30.94-16.85,37.58l-2.76,2.62-1.31-3.58c-13.68-37.45-40.3-69.04-74.95-88.97l-.16-.1c-26.34-17.85-57.15-27.29-89.1-27.29-48.5,0-93.74,21.73-124.12,59.61-22.82,28.46-34.88,62.83-34.88,99.39,0,66.84,42.21,126.95,105.04,149.61,12.52,3.65,24.98,5.34,37.01,5.02,24.64-.65,37.82-14.93,43.48-23.38,7.85-11.71,10.67-26.02,7.03-35.6l-.13-.47c-.24-1.36-1.8-8.34-8.64-13.89.38.37.75.74,1.11,1.13,5.6,6.03,8.09,13.87,7.38,23.3-.9,12.12-12.48,25.57-27.53,31.98-12.62,5.37-38.41,10.54-69.4-15.15-17.48-14.5-24.86-37.25-19.74-60.88,5.91-27.27,26.7-48.87,54.26-56.36,6.17-1.68,13.87-2.95,23-2.95Z"/>
  <path class="cls-1" d="m694.28,679.48c-21.68,0-45.24-2.25-69.94-8.09-35.79-8.46-80.26-18.97-106.02-50.34-23.72-20.08-37.32-49.38-37.32-80.43,0-58.1,47.26-105.36,105.36-105.36s105.36,47.26,105.36,105.36c0,22.54-6.99,43.97-20.22,62.07,10,23.79,39.27,29.83,55.25,29.66,37.01-.45,68.04-10.75,88.12-29.13-29.62-2.83-57.43-14.17-80.73-32.99-12.85-10.38-23.85-22.68-32.7-36.55-15.58-24.38-23.82-52.64-23.82-81.71,0-83.79,68.17-151.96,151.96-151.96s151.96,68.17,151.96,151.96c0,42.2-16.87,81.38-47.52,110.39-2.45,4.6-4.11,7.3-4.65,8.1-37.36,54.78-89.58,75.46-120.78,87.82-19.18,7.59-61.06,21.21-114.32,21.21Zm-107.92-239.23c-55.34,0-100.36,45.02-100.36,100.36,0,29.66,13.02,57.63,35.72,76.76l.33.33c24.66,30.19,68.32,40.51,103.4,48.81,24.31,5.75,47.52,7.97,68.86,7.97,52.4,0,93.57-13.39,112.41-20.84,30.7-12.16,82.03-32.49,118.52-86,.56-.82,2.29-3.74,4.56-8l.19-.36.3-.28c29.82-28.08,46.25-66.09,46.25-107.03,0-81.03-65.92-146.96-146.96-146.96s-146.96,65.93-146.96,146.96c0,28.12,7.96,55.45,23.03,79.02,8.56,13.41,19.2,25.31,31.63,35.35,23.93,19.33,52.78,30.5,83.42,32.32l5.39.32-3.73,3.9c-20.77,21.73-54.71,33.97-95.56,34.47-23.52.33-51.33-10.16-60.49-34.14l-.49-1.29.83-1.1c13.12-17.46,20.06-38.28,20.06-60.2,0-55.34-45.02-100.36-100.36-100.36Z"/>
  <path class="cls-1" d="m614.04,109.29v228.52c-4.7-1.23-8.96-2.33-13.21-3.45-8.31-2.19-16.59-4.41-25.07-6.04-6.21-1.2-12.5-2.87-18.49-5.3-2.4-.97-3.03-2.12-3.02-4.66.12-30.12.07-60.25.09-90.37,0-2.38.43-4.91-3.41-4.06-1.27.28-1.58-.52-1.59-1.7-.01-1.32.61-1.78,1.74-1.56,3.36.64,3.29-1.35,3.29-3.79-.06-27.65.01-55.3-.11-82.95-.01-2.92.81-4.2,3.64-5.14,15.47-5.12,30.85-10.49,46.26-15.78.73-.25,1.43-.59,2.2-.91-1.62-1.67-3.47-2.1-5.61-2.1-67.36.03-134.73.03-202.09.05-1.01,0-2.19-.47-3.29.81,1.31,1.43,3,1.93,4.74,2.51,14.67,4.92,29.28,9.99,43.98,14.81,3.35,1.1,4.56,2.66,4.54,6.36-.19,27.37-.1,54.75-.1,82.12,0,2.07-.71,4.64,3.03,4.03,1.21-.2,1.07.9,1.11,1.71.05.97-.25,1.7-1.34,1.51-3.55-.6-2.79,1.91-2.79,3.81-.01,30.26-.05,60.52.05,90.79,0,3.11-.45,4.24-4.09,4.7-5.63.71-11.05,2.95-16.59,4.41-13.14,3.47-26.29,6.86-39.73,10.35,0-1.9,0-3.4,0-4.9,0-72.77,0-145.53,0-218.3,0-1.37-.34-2.91.16-4.08.67-1.59-.04-1.52-1.1-1.48-.85.03-1.21-.07-.94,1.29.48,2.38.22,4.92.22,7.4,0,72.49-.02,144.98.09,217.48,0,3.41-.75,4.61-4.22,4.2-3.11-.36-7.32,1.02-9.18-.56-2.2-1.87-.7-6.18-.7-9.42-.05-76.89,0-153.79-.12-230.68,0-3.67.81-4.67,4.61-4.67,82.65.12,165.31.12,247.96.01,3.62,0,4.71.71,4.71,4.57-.13,78.82-.12,157.64-.02,236.46,0,3.28-.52,4.8-4.14,4.26-3.22-.48-7.55,1.37-9.44-.75-1.6-1.79-.54-6-.54-9.14-.01-71.94,0-143.88-.03-215.83,0-1.53.42-3.18-1.44-4.57Z"/>
  <path class="cls-1" d="m876.78,456.68c0,6.46,0,12.92,0,19.38,0,13.41,0,26.83.02,40.24.02,13.22.08,26.44.11,39.65.02,7.51,0,15.02.01,22.53,0,1.03-.38,1.43-1.44,1.43-5.96.01-11.92.03-17.88.03-13.6,0-27.2-.01-40.81,0-8.2,0-16.39.03-24.59.04-2.83,0-5.66.01-8.49.02-.3,0-.6-.03-.88-.12-.59-.19-.85-.59-.84-1.26.01-9.85.03-19.7.04-29.55.02-13.87.05-27.74.07-41.62.01-5.95.02-11.89.03-17.84,0-5.65.02-11.29.03-16.94.02-11.25.05-22.5.07-33.76.01-10.78.01-21.56.02-32.34,0-10.92,0-21.84,0-32.75,0-6.56,0-13.12.02-19.67.02-5.71.06-11.41.1-17.12,0-.81.07-1.62.08-2.43,0-.48.26-.61.68-.6,6.73.17,13.46.09,20.19.1,7.26,0,14.53.01,21.79.02,6.85,0,13.7.03,20.54.03,3.9,0,7.8,0,11.7,0,5.17,0,10.33.01,15.5-.02,1.13,0,2.25-.06,3.38-.06.54,0,.72.22.71.75-.03,9.29-.04,18.59-.05,27.88,0,5.49,0,10.98-.02,16.46-.01,5.55-.06,11.09-.06,16.64,0,9.91,0,19.82,0,29.72,0,10.38,0,20.76,0,31.15h-.03Zm-89.16,93.16c-.25.47.15,1.1-.4,1.48,0,0,0,.05.02.05.43.2.08.39,0,.59-.18.41-.3.82-.09,1.25.1.21.2.44-.04.57-.32.18-.26.45-.26.72,0,6.32.02,12.64,0,18.97,0,.58.19.69.71.69,3.01-.02,6.02-.01,9.03-.03,4.55-.03,9.11-.01,13.66,0,13.21.03,26.41.03,39.62.04,7.13,0,14.25,0,21.38.01.81,0,.81,0,.81-.84-.03-7.81-.06-15.62-.08-23.42-.04-13.58-.1-27.15-.12-40.73-.02-13.74-.02-27.47,0-41.21.02-20.13.05-40.27.07-60.4,0-7.07.03-14.15.04-21.22.01-9.91.02-19.82.04-29.72.01-5.47.05-10.94.08-16.41,0-.81,0-.8-.82-.81-12.57,0-25.14,0-37.72-.01-12.28-.01-24.55-.05-36.83-.08-2.89,0-5.78-.03-8.67-.03-.8,0-.8,0-.81.77,0,.81,0,1.62,0,2.44-.02,4-.04,8-.06,12.01,0,.21.05.39.16.6.28.51.27,1.14.63,1.63,0,.01,0,.04,0,.06-.42.49.34,1.2-.31,1.64-.02.01,0,.14.03.17.54.34.39.89.4,1.37.03.63,0,1.26,0,1.88.13-.51.13-1.02.13-1.53q0-1.19,1.16-1.27c.14,0,.28-.02.41-.03.22-.02.32-.09.33-.36.02-4.38-.04-8.76.03-13.14.03-1.54,0-3.09-.02-4.63,0-.51.19-.71.67-.77,1.49-.18,2.92-.27,4.43.21,4.27,1.35,8.61,2.51,12.92,3.75,4.54,1.3,9.07,2.6,13.61,3.89,4.2,1.19,8.39,2.38,12.59,3.55.38.1.45.29.46.62.02,1.59.07,3.17.07,4.75.03,13.49.07,26.99.08,40.48,0,7.85-.02,15.69-.03,23.54-.01,12.31-.02,24.61-.04,36.92,0,.5.01.67.58.39,1.32-.65,2.33-.33,2.81.84.42,1.04.4,2.09-.07,3.11-.54,1.17-1.43,1.46-2.59.91-.23-.11-.42-.3-.74-.31,0,.18,0,.36,0,.53-.01,3.35-.02,6.7-.03,10.05-.01,5.37-.02,10.74-.03,16.11-.03,20.25-.05,40.51-.09,60.76,0,2.6.05,5.19-.05,7.79-.02.54-.26.87-.78,1.05-1.65.59-3.28,1.25-4.94,1.8-5.07,1.69-10.08,3.55-15.1,5.36-5.95,2.13-11.89,4.31-17.85,6.44-1.62.58-3.2,1.33-5.04.82-1.7-.48-1.56-.13-1.56-1.81-.01-6.64-.01-13.28.01-19.92,0-.61-.18-.8-.76-.86-.91-.1-.9-.14-1.02-1.06Zm.46-177.03c-.05.31-.09.62-.16.92-.05.19-.26.44-.2.53.3.44.15.8-.06,1.19-.02.04-.02.12.01.15.63.72-.51,1.21-.25,1.88-.4.12-.31.45-.31.73,0,4.97-.02,9.95-.03,14.92-.01,9.55-.02,19.1-.03,28.65-.01,12.43-.05,24.85-.04,37.28.01,24.55-.1,49.11-.16,73.66,0,.3-.05.59.29.77.18.1.19.28.07.46-.35.5-.18.98.09,1.44.08.14.26.26-.02.41-.11.06.28.78.4.73.48-.19.93.02,1.39.06.26.02.45.03.44-.35,0-.69.06-1.39.06-2.08,0-2.79,0-5.59.01-8.38.08-23.25.16-46.49.23-69.74.04-12.31.05-24.61.08-36.92.04-14.86.08-29.73.12-44.59,0-1.28,0-1.3-1.26-1.2-.45.03-.69-.04-.68-.53Z"/>
</svg>