<?xml version="1.0" encoding="UTF-8"?><svg id="Layer_1" xmlns="http://www.w3.org/2000/svg" viewBox="0 0 499.86 150"><defs><style>.cls-1{fill:#889589;}.cls-2{fill:none;stroke:#889589;stroke-miterlimit:10;stroke-width:4px;}</style></defs><path class="cls-1" d="M218.58,71.65c-1.03-1.08-2.35-1.62-3.96-1.62s-2.89,.55-3.94,1.64c-1.04,1.1-1.57,2.5-1.57,4.2s.52,3.18,1.56,4.27c1.03,1.09,2.34,1.63,3.93,1.63s2.9-.55,3.96-1.65c1.05-1.1,1.58-2.51,1.58-4.25s-.52-3.13-1.56-4.22Zm0,0c-1.03-1.08-2.35-1.62-3.96-1.62s-2.89,.55-3.94,1.64c-1.04,1.1-1.57,2.5-1.57,4.2s.52,3.18,1.56,4.27c1.03,1.09,2.34,1.63,3.93,1.63s2.9-.55,3.96-1.65c1.05-1.1,1.58-2.51,1.58-4.25s-.52-3.13-1.56-4.22Zm0,0c-1.03-1.08-2.35-1.62-3.96-1.62s-2.89,.55-3.94,1.64c-1.04,1.1-1.57,2.5-1.57,4.2s.52,3.18,1.56,4.27c1.03,1.09,2.34,1.63,3.93,1.63s2.9-.55,3.96-1.65c1.05-1.1,1.58-2.51,1.58-4.25s-.52-3.13-1.56-4.22Zm0,0c-1.03-1.08-2.35-1.62-3.96-1.62s-2.89,.55-3.94,1.64c-1.04,1.1-1.57,2.5-1.57,4.2s.52,3.18,1.56,4.27c1.03,1.09,2.34,1.63,3.93,1.63s2.9-.55,3.96-1.65c1.05-1.1,1.58-2.51,1.58-4.25s-.52-3.13-1.56-4.22Zm0,0c-1.03-1.08-2.35-1.62-3.96-1.62s-2.89,.55-3.94,1.64c-1.04,1.1-1.57,2.5-1.57,4.2s.52,3.18,1.56,4.27c1.03,1.09,2.34,1.63,3.93,1.63s2.9-.55,3.96-1.65c1.05-1.1,1.58-2.51,1.58-4.25s-.52-3.13-1.56-4.22Zm58.54-.08c-1.05-1.09-2.37-1.63-3.97-1.63s-2.87,.55-3.91,1.66c-1.03,1.1-1.55,2.52-1.55,4.26s.53,3.17,1.58,4.3c1.06,1.13,2.35,1.69,3.89,1.69s2.91-.56,3.96-1.66c1.05-1.11,1.57-2.56,1.57-4.35s-.52-3.18-1.57-4.27Zm0,0c-1.05-1.09-2.37-1.63-3.97-1.63s-2.87,.55-3.91,1.66c-1.03,1.1-1.55,2.52-1.55,4.26s.53,3.17,1.58,4.3c1.06,1.13,2.35,1.69,3.89,1.69s2.91-.56,3.96-1.66c1.05-1.11,1.57-2.56,1.57-4.35s-.52-3.18-1.57-4.27Zm-58.54,.08c-1.03-1.08-2.35-1.62-3.96-1.62s-2.89,.55-3.94,1.64c-1.04,1.1-1.57,2.5-1.57,4.2s.52,3.18,1.56,4.27c1.03,1.09,2.34,1.63,3.93,1.63s2.9-.55,3.96-1.65c1.05-1.1,1.58-2.51,1.58-4.25s-.52-3.13-1.56-4.22Zm216.37-1.43l-48.35-27.92H0l64.91,37.48,48.35,27.92H499.86l-64.91-37.48Zm-248.42,10c1.13,1.08,2.61,1.63,4.44,1.63,2.27,0,4.04-.77,5.3-2.32l3.99,2.73c-2.16,2.82-5.22,4.23-9.16,4.23-3.55,0-6.33-1.05-8.34-3.16-2.01-2.1-3.02-4.56-3.02-7.38,0-1.96,.49-3.76,1.47-5.4,.97-1.65,2.34-2.94,4.09-3.88s3.71-1.41,5.87-1.41c2.01,0,3.81,.4,5.4,1.2,1.6,.79,2.9,1.93,3.92,3.4l-4.22,2.32c-.79-.83-1.58-1.4-2.35-1.72-.77-.33-1.68-.49-2.72-.49-1.9,0-3.43,.57-4.6,1.7-1.17,1.13-1.76,2.58-1.76,4.34s.57,3.12,1.69,4.21Zm37.29,.98c-.95,1.66-2.24,2.95-3.87,3.89-1.63,.93-3.43,1.4-5.4,1.4-2.89,0-5.37-1.03-7.41-3.09-2.05-2.06-3.07-4.56-3.07-7.51,0-3.15,1.15-5.78,3.47-7.88,2.03-1.83,4.36-2.75,6.99-2.75,1.91,0,3.7,.48,5.37,1.43,1.68,.95,2.99,2.24,3.93,3.88,.94,1.63,1.41,3.39,1.41,5.29s-.48,3.68-1.42,5.34Zm23.46,4.77h-5.01v-8.84c0-2.41-.11-4.01-.32-4.8-.22-.79-.6-1.4-1.13-1.81-.54-.41-1.2-.62-1.99-.62-1.03,0-1.91,.34-2.64,1.03-.73,.68-1.24,1.63-1.53,2.84-.15,.63-.22,2-.22,4.1v8.1h-5.06v-20.19h5.06v2.07c1.15-.97,2.19-1.64,3.12-2.02,.94-.38,1.89-.57,2.87-.57,2,0,3.69,.7,5.09,2.1,1.17,1.18,1.76,2.94,1.76,5.27v13.34Zm13.58-15.83h-3v15.83h-5.07v-15.83h-2.6v-4.36h2.6v-7.44h5.07v7.44h3v4.36Zm22.68,15.83h-5.07v-2.14c-.99,.94-1.98,1.62-2.97,2.04-1,.41-2.08,.62-3.24,.62-2.6,0-4.86-1.01-6.76-3.04-1.9-2.02-2.86-4.53-2.86-7.54s.93-5.67,2.77-7.66c1.84-1.99,4.07-2.99,6.7-2.99,1.22,0,2.35,.23,3.42,.69,1.06,.46,2.04,1.14,2.94,2.06v-2.23h5.07v20.19Zm10.93-5.75c1.12,1.08,2.6,1.63,4.44,1.63,2.26,0,4.03-.77,5.29-2.32l4,2.73c-2.17,2.82-5.22,4.23-9.17,4.23-3.55,0-6.33-1.05-8.34-3.16-2.01-2.1-3.02-4.56-3.02-7.38,0-1.96,.49-3.76,1.47-5.4,.98-1.65,2.34-2.94,4.09-3.88s3.71-1.41,5.87-1.41c2.01,0,3.81,.4,5.4,1.2,1.6,.79,2.9,1.93,3.92,3.4l-4.22,2.32c-.79-.83-1.57-1.4-2.35-1.72-.77-.33-1.68-.49-2.72-.49-1.89,0-3.43,.57-4.6,1.7-1.17,1.13-1.75,2.58-1.75,4.34s.56,3.12,1.69,4.21Zm24.19-10.08v15.83h-5.06v-15.83h-2.6v-4.36h2.6v-7.44h5.06v7.44h2.74v4.36h-2.74Zm-45.51-.2c-1.57,0-2.87,.55-3.91,1.66-1.03,1.1-1.55,2.52-1.55,4.26s.53,3.17,1.58,4.3c1.06,1.13,2.35,1.69,3.89,1.69s2.91-.56,3.96-1.66c1.05-1.11,1.57-2.56,1.57-4.35s-.52-3.18-1.57-4.27c-1.05-1.09-2.37-1.63-3.97-1.63Zm-58.53,.09c-1.58,0-2.89,.55-3.94,1.64-1.04,1.1-1.57,2.5-1.57,4.2s.52,3.18,1.56,4.27c1.03,1.09,2.34,1.63,3.93,1.63s2.9-.55,3.96-1.65c1.05-1.1,1.58-2.51,1.58-4.25s-.52-3.13-1.56-4.22c-1.03-1.08-2.35-1.62-3.96-1.62Zm3.96,1.62c-1.03-1.08-2.35-1.62-3.96-1.62s-2.89,.55-3.94,1.64c-1.04,1.1-1.57,2.5-1.57,4.2s.52,3.18,1.56,4.27c1.03,1.09,2.34,1.63,3.93,1.63s2.9-.55,3.96-1.65c1.05-1.1,1.58-2.51,1.58-4.25s-.52-3.13-1.56-4.22Zm58.54-.08c-1.05-1.09-2.37-1.63-3.97-1.63s-2.87,.55-3.91,1.66c-1.03,1.1-1.55,2.52-1.55,4.26s.53,3.17,1.58,4.3c1.06,1.13,2.35,1.69,3.89,1.69s2.91-.56,3.96-1.66c1.05-1.11,1.57-2.56,1.57-4.35s-.52-3.18-1.57-4.27Zm0,0c-1.05-1.09-2.37-1.63-3.97-1.63s-2.87,.55-3.91,1.66c-1.03,1.1-1.55,2.52-1.55,4.26s.53,3.17,1.58,4.3c1.06,1.13,2.35,1.69,3.89,1.69s2.91-.56,3.96-1.66c1.05-1.11,1.57-2.56,1.57-4.35s-.52-3.18-1.57-4.27Zm-58.54,.08c-1.03-1.08-2.35-1.62-3.96-1.62s-2.89,.55-3.94,1.64c-1.04,1.1-1.57,2.5-1.57,4.2s.52,3.18,1.56,4.27c1.03,1.09,2.34,1.63,3.93,1.63s2.9-.55,3.96-1.65c1.05-1.1,1.58-2.51,1.58-4.25s-.52-3.13-1.56-4.22Zm0,0c-1.03-1.08-2.35-1.62-3.96-1.62s-2.89,.55-3.94,1.64c-1.04,1.1-1.57,2.5-1.57,4.2s.52,3.18,1.56,4.27c1.03,1.09,2.34,1.63,3.93,1.63s2.9-.55,3.96-1.65c1.05-1.1,1.58-2.51,1.58-4.25s-.52-3.13-1.56-4.22Zm0,0c-1.03-1.08-2.35-1.62-3.96-1.62s-2.89,.55-3.94,1.64c-1.04,1.1-1.57,2.5-1.57,4.2s.52,3.18,1.56,4.27c1.03,1.09,2.34,1.63,3.93,1.63s2.9-.55,3.96-1.65c1.05-1.1,1.58-2.51,1.58-4.25s-.52-3.13-1.56-4.22Z"/><polyline class="cls-2" points="321.4 91 321.4 107.64 321.4 116.87 321.4 118.59 321.4 133.36 321.4 150"/><line class="cls-2" x1="434.95" y1="150" x2="434.95" y2="0"/><line class="cls-2" x1="64.91" y1="150" x2="64.91" y2="0"/><line class="cls-2" x1="178.46" y1="150" x2="178.46" y2="93"/><line class="cls-2" x1="178.46" y1="50" x2="178.46" y2="0"/><polyline class="cls-2" points="321.4 0 321.4 14.1 321.4 21.93 321.4 23.38 321.4 35.9 321.4 50"/></svg>