<?xml version="1.0" encoding="UTF-8"?><svg id="Layer_1" xmlns="http://www.w3.org/2000/svg" viewBox="0 0 499.86 150"><defs><style>.cls-1{fill:#353e36;}.cls-2{fill:none;stroke:#ff8d61;stroke-miterlimit:10;stroke-width:4px;}.cls-3{fill:#ff8d61;}</style></defs><polygon class="cls-3" points="499.86 107.7 113.26 107.7 64.91 79.78 0 42.3 386.6 42.3 434.95 70.22 499.86 107.7"/><line class="cls-2" x1="321.4" y1="150" x2="321.4" y2="98"/><line class="cls-2" x1="434.95" y1="150" x2="434.95" y2="0"/><line class="cls-2" x1="64.91" y1="150" x2="64.91" y2="0"/><polyline class="cls-2" points="178.46 0 178.46 42.3 178.46 65.78"/><polyline class="cls-2" points="178.46 85.97 178.46 107.7 178.46 150"/><line class="cls-2" x1="320.99" y1="45" x2="320.99" y2="0"/><g><path class="cls-1" d="M158.69,69.39l-4.22,2.32c-.79-.83-1.58-1.4-2.35-1.73-.77-.32-1.68-.48-2.72-.48-1.9,0-3.43,.56-4.6,1.7-1.17,1.13-1.76,2.58-1.76,4.34s.56,3.12,1.69,4.21,2.61,1.63,4.44,1.63c2.27,0,4.03-.77,5.29-2.32l3.99,2.73c-2.17,2.82-5.22,4.22-9.17,4.22-3.55,0-6.33-1.05-8.34-3.15-2.01-2.1-3.01-4.56-3.01-7.38,0-1.95,.49-3.75,1.47-5.4,.98-1.65,2.34-2.94,4.09-3.88,1.75-.94,3.71-1.41,5.87-1.41,2,0,3.8,.4,5.4,1.2s2.9,1.93,3.92,3.4Z"/><path class="cls-1" d="M178.16,65.31h5.07v20.19h-5.07v-2.13c-.99,.94-1.98,1.62-2.97,2.03-1,.41-2.07,.62-3.23,.62-2.61,0-4.86-1.01-6.76-3.03-1.9-2.02-2.85-4.54-2.85-7.54s.92-5.67,2.76-7.66c1.84-1.99,4.08-2.99,6.71-2.99,1.21,0,2.35,.23,3.41,.69,1.06,.46,2.04,1.14,2.95,2.06v-2.23Zm-5.33,4.16c-1.57,0-2.87,.55-3.9,1.66-1.04,1.11-1.55,2.53-1.55,4.26s.53,3.18,1.58,4.3c1.05,1.13,2.35,1.69,3.89,1.69s2.91-.55,3.96-1.66c1.05-1.11,1.57-2.56,1.57-4.35s-.52-3.18-1.57-4.27c-1.05-1.09-2.37-1.63-3.98-1.63Z"/><path class="cls-1" d="M200.7,68.13l-3.14,3.14c-1.27-1.26-2.43-1.89-3.47-1.89-.57,0-1.01,.12-1.34,.36-.32,.24-.48,.54-.48,.9,0,.27,.1,.52,.31,.75,.2,.23,.71,.54,1.51,.94l1.86,.93c1.95,.96,3.3,1.95,4.03,2.95,.73,1,1.09,2.18,1.09,3.53,0,1.79-.66,3.29-1.98,4.49-1.32,1.2-3.08,1.8-5.3,1.8-2.94,0-5.29-1.15-7.05-3.45l3.12-3.4c.59,.69,1.29,1.25,2.09,1.68,.8,.43,1.5,.64,2.12,.64,.67,0,1.21-.16,1.61-.48,.41-.32,.61-.69,.61-1.11,0-.78-.74-1.54-2.21-2.28l-1.71-.85c-3.27-1.65-4.9-3.7-4.9-6.18,0-1.6,.62-2.96,1.85-4.09,1.23-1.13,2.8-1.7,4.72-1.7,1.31,0,2.54,.29,3.7,.86,1.16,.58,2.14,1.4,2.94,2.48Z"/><path class="cls-1" d="M225.28,76.87h-16.27c.23,1.44,.86,2.58,1.88,3.42,1.02,.85,2.32,1.27,3.91,1.27,1.89,0,3.52-.66,4.88-1.99l4.27,2c-1.06,1.51-2.34,2.63-3.82,3.35-1.48,.72-3.25,1.09-5.29,1.09-3.17,0-5.75-1-7.74-3-1.99-2-2.99-4.5-2.99-7.51s.99-5.64,2.98-7.67c1.99-2.03,4.47-3.05,7.47-3.05,3.18,0,5.76,1.02,7.76,3.05,1.99,2.04,2.99,4.72,2.99,8.06l-.02,.96Zm-5.07-3.99c-.33-1.13-.99-2.04-1.98-2.75s-2.13-1.06-3.43-1.06c-1.41,0-2.65,.4-3.72,1.19-.67,.5-1.29,1.37-1.86,2.62h10.98Z"/><path class="cls-1" d="M252.37,68.13l-3.14,3.14c-1.27-1.26-2.43-1.89-3.47-1.89-.57,0-1.01,.12-1.34,.36-.32,.24-.48,.54-.48,.9,0,.27,.1,.52,.31,.75,.2,.23,.71,.54,1.51,.94l1.86,.93c1.95,.96,3.3,1.95,4.03,2.95,.73,1,1.09,2.18,1.09,3.53,0,1.79-.66,3.29-1.98,4.49-1.32,1.2-3.08,1.8-5.3,1.8-2.94,0-5.29-1.15-7.05-3.45l3.12-3.4c.59,.69,1.29,1.25,2.09,1.68,.8,.43,1.5,.64,2.12,.64,.67,0,1.21-.16,1.61-.48,.41-.32,.61-.69,.61-1.11,0-.78-.74-1.54-2.21-2.28l-1.71-.85c-3.27-1.65-4.9-3.7-4.9-6.18,0-1.6,.62-2.96,1.85-4.09,1.23-1.13,2.8-1.7,4.72-1.7,1.31,0,2.54,.29,3.7,.86,1.16,.58,2.14,1.4,2.94,2.48Z"/><path class="cls-1" d="M257.35,57.87h5.07v7.44h3.01v4.36h-3.01v15.83h-5.07v-15.83h-2.6v-4.36h2.6v-7.44Z"/><path class="cls-1" d="M268.11,65.31h5.12v9.72c0,1.89,.13,3.21,.39,3.94,.26,.74,.68,1.31,1.26,1.72,.58,.41,1.29,.61,2.13,.61s1.56-.2,2.15-.6c.59-.4,1.03-.99,1.31-1.77,.21-.58,.32-1.82,.32-3.73v-9.89h5.07v8.55c0,3.52-.28,5.94-.83,7.24-.68,1.58-1.68,2.8-3.01,3.65-1.32,.85-3.01,1.27-5.05,1.27-2.21,0-4-.5-5.37-1.48-1.37-.99-2.33-2.37-2.89-4.14-.4-1.22-.59-3.45-.59-6.68v-8.41Z"/><path class="cls-1" d="M305.83,57.51h5.07v27.98h-5.07v-2.13c-.99,.94-1.98,1.62-2.97,2.03-1,.41-2.07,.62-3.23,.62-2.61,0-4.86-1.01-6.76-3.03-1.9-2.02-2.85-4.54-2.85-7.54s.92-5.67,2.76-7.66c1.84-1.99,4.08-2.99,6.71-2.99,1.21,0,2.35,.23,3.41,.69,1.06,.46,2.04,1.14,2.95,2.06v-10.02Zm-5.33,11.95c-1.57,0-2.87,.55-3.9,1.66-1.04,1.11-1.55,2.53-1.55,4.26s.53,3.18,1.58,4.3c1.05,1.13,2.35,1.69,3.89,1.69s2.91-.55,3.96-1.66c1.05-1.11,1.57-2.56,1.57-4.35s-.52-3.18-1.57-4.27c-1.05-1.09-2.37-1.63-3.98-1.63Z"/><path class="cls-1" d="M317.99,56.99c.89,0,1.65,.32,2.28,.96,.64,.64,.95,1.42,.95,2.34s-.31,1.67-.94,2.31c-.63,.64-1.38,.96-2.26,.96s-1.67-.32-2.3-.97c-.64-.65-.95-1.44-.95-2.37s.31-1.65,.94-2.28,1.39-.95,2.28-.95Zm-2.53,8.31h5.07v20.19h-5.07v-20.19Z"/><path class="cls-1" d="M345.35,76.87h-16.27c.23,1.44,.86,2.58,1.88,3.42,1.02,.85,2.32,1.27,3.91,1.27,1.89,0,3.52-.66,4.88-1.99l4.27,2c-1.06,1.51-2.34,2.63-3.82,3.35-1.48,.72-3.25,1.09-5.29,1.09-3.17,0-5.75-1-7.74-3-1.99-2-2.99-4.5-2.99-7.51s.99-5.64,2.98-7.67c1.99-2.03,4.47-3.05,7.47-3.05,3.18,0,5.76,1.02,7.76,3.05,1.99,2.04,2.99,4.72,2.99,8.06l-.02,.96Zm-5.07-3.99c-.33-1.13-.99-2.04-1.98-2.75s-2.13-1.06-3.43-1.06c-1.41,0-2.65,.4-3.72,1.19-.67,.5-1.29,1.37-1.86,2.62h10.98Z"/><path class="cls-1" d="M361.81,68.13l-3.14,3.14c-1.27-1.26-2.43-1.89-3.47-1.89-.57,0-1.01,.12-1.34,.36-.32,.24-.48,.54-.48,.9,0,.27,.1,.52,.31,.75,.2,.23,.71,.54,1.51,.94l1.86,.93c1.95,.96,3.3,1.95,4.03,2.95,.73,1,1.09,2.18,1.09,3.53,0,1.79-.66,3.29-1.98,4.49-1.32,1.2-3.08,1.8-5.3,1.8-2.94,0-5.29-1.15-7.05-3.45l3.12-3.4c.59,.69,1.29,1.25,2.09,1.68,.8,.43,1.5,.64,2.12,.64,.67,0,1.21-.16,1.61-.48,.41-.32,.61-.69,.61-1.11,0-.78-.74-1.54-2.21-2.28l-1.71-.85c-3.27-1.65-4.9-3.7-4.9-6.18,0-1.6,.62-2.96,1.85-4.09,1.23-1.13,2.8-1.7,4.72-1.7,1.31,0,2.54,.29,3.7,.86,1.16,.58,2.14,1.4,2.94,2.48Z"/></g></svg>