<?xml version="1.0" encoding="UTF-8"?><svg id="Layer_1" xmlns="http://www.w3.org/2000/svg" viewBox="0 0 499.86 150"><defs><style>.cls-1{fill:#6a7b6c;}.cls-2{fill:none;stroke:#6a7b6c;stroke-miterlimit:10;stroke-width:4px;}</style></defs><path class="cls-1" d="M183.25,71.65c-1.04-1.08-2.36-1.62-3.97-1.62-.28,0-.56,.02-.82,.06-1.22,.15-2.26,.69-3.11,1.58-1.05,1.1-1.57,2.5-1.57,4.2s.51,3.18,1.55,4.27c.85,.9,1.9,1.43,3.13,1.57,.26,.04,.52,.06,.8,.06,1.59,0,2.91-.55,3.96-1.65,1.05-1.1,1.58-2.51,1.58-4.25s-.52-3.13-1.55-4.22Zm0,0c-1.04-1.08-2.36-1.62-3.97-1.62-.28,0-.56,.02-.82,.06-1.22,.15-2.26,.69-3.11,1.58-1.05,1.1-1.57,2.5-1.57,4.2s.51,3.18,1.55,4.27c.85,.9,1.9,1.43,3.13,1.57,.26,.04,.52,.06,.8,.06,1.59,0,2.91-.55,3.96-1.65,1.05-1.1,1.58-2.51,1.58-4.25s-.52-3.13-1.55-4.22Zm0,0c-1.04-1.08-2.36-1.62-3.97-1.62-.28,0-.56,.02-.82,.06-1.22,.15-2.26,.69-3.11,1.58-1.05,1.1-1.57,2.5-1.57,4.2s.51,3.18,1.55,4.27c.85,.9,1.9,1.43,3.13,1.57,.26,.04,.52,.06,.8,.06,1.59,0,2.91-.55,3.96-1.65,1.05-1.1,1.58-2.51,1.58-4.25s-.52-3.13-1.55-4.22Zm0,0c-1.04-1.08-2.36-1.62-3.97-1.62-.28,0-.56,.02-.82,.06-1.22,.15-2.26,.69-3.11,1.58-1.05,1.1-1.57,2.5-1.57,4.2s.51,3.18,1.55,4.27c.85,.9,1.9,1.43,3.13,1.57,.26,.04,.52,.06,.8,.06,1.59,0,2.91-.55,3.96-1.65,1.05-1.1,1.58-2.51,1.58-4.25s-.52-3.13-1.55-4.22Zm0,0c-1.04-1.08-2.36-1.62-3.97-1.62-.28,0-.56,.02-.82,.06-1.22,.15-2.26,.69-3.11,1.58-1.05,1.1-1.57,2.5-1.57,4.2s.51,3.18,1.55,4.27c.85,.9,1.9,1.43,3.13,1.57,.26,.04,.52,.06,.8,.06,1.59,0,2.91-.55,3.96-1.65,1.05-1.1,1.58-2.51,1.58-4.25s-.52-3.13-1.55-4.22Zm42.56-.08c-1.05-1.09-2.37-1.63-3.98-1.63s-2.86,.55-3.9,1.66c-1.03,1.1-1.55,2.52-1.55,4.26s.53,3.17,1.58,4.3c1.05,1.13,2.35,1.69,3.89,1.69s2.91-.56,3.96-1.66c1.05-1.11,1.57-2.56,1.57-4.35s-.52-3.18-1.57-4.27Zm25.82,.03c-1.04-1.11-2.35-1.66-3.93-1.66s-2.92,.54-3.97,1.63c-1.05,1.09-1.58,2.51-1.58,4.27s.53,3.24,1.58,4.35c1.05,1.1,2.37,1.66,3.97,1.66s2.85-.56,3.9-1.69c1.06-1.13,1.59-2.56,1.59-4.3s-.52-3.16-1.56-4.26Zm0,0c-1.04-1.11-2.35-1.66-3.93-1.66s-2.92,.54-3.97,1.63c-1.05,1.09-1.58,2.51-1.58,4.27s.53,3.24,1.58,4.35c1.05,1.1,2.37,1.66,3.97,1.66s2.85-.56,3.9-1.69c1.06-1.13,1.59-2.56,1.59-4.3s-.52-3.16-1.56-4.26Zm-25.82-.03c-1.05-1.09-2.37-1.63-3.98-1.63s-2.86,.55-3.9,1.66c-1.03,1.1-1.55,2.52-1.55,4.26s.53,3.17,1.58,4.3c1.05,1.13,2.35,1.69,3.89,1.69s2.91-.56,3.96-1.66c1.05-1.11,1.57-2.56,1.57-4.35s-.52-3.18-1.57-4.27Zm-42.56,.08c-1.04-1.08-2.36-1.62-3.97-1.62-.28,0-.56,.02-.82,.06-1.22,.15-2.26,.69-3.11,1.58-1.05,1.1-1.57,2.5-1.57,4.2s.51,3.18,1.55,4.27c.85,.9,1.9,1.43,3.13,1.57,.26,.04,.52,.06,.8,.06,1.59,0,2.91-.55,3.96-1.65,1.05-1.1,1.58-2.51,1.58-4.25s-.52-3.13-1.55-4.22Zm0,0c-1.04-1.08-2.36-1.62-3.97-1.62-.28,0-.56,.02-.82,.06-1.22,.15-2.26,.69-3.11,1.58-1.05,1.1-1.57,2.5-1.57,4.2s.51,3.18,1.55,4.27c.85,.9,1.9,1.43,3.13,1.57,.26,.04,.52,.06,.8,.06,1.59,0,2.91-.55,3.96-1.65,1.05-1.1,1.58-2.51,1.58-4.25s-.52-3.13-1.55-4.22Zm42.56-.08c-1.05-1.09-2.37-1.63-3.98-1.63s-2.86,.55-3.9,1.66c-1.03,1.1-1.55,2.52-1.55,4.26s.53,3.17,1.58,4.3c1.05,1.13,2.35,1.69,3.89,1.69s2.91-.56,3.96-1.66c1.05-1.11,1.57-2.56,1.57-4.35s-.52-3.18-1.57-4.27Zm25.82,.03c-1.04-1.11-2.35-1.66-3.93-1.66s-2.92,.54-3.97,1.63c-1.05,1.09-1.58,2.51-1.58,4.27s.53,3.24,1.58,4.35c1.05,1.1,2.37,1.66,3.97,1.66s2.85-.56,3.9-1.69c1.06-1.13,1.59-2.56,1.59-4.3s-.52-3.16-1.56-4.26Zm24.33,.05c-1.03-1.08-2.35-1.62-3.96-1.62s-2.89,.55-3.93,1.64c-1.05,1.1-1.58,2.5-1.58,4.2s.52,3.18,1.56,4.27c1.03,1.09,2.34,1.63,3.93,1.63s2.9-.55,3.96-1.65c1.05-1.1,1.58-2.51,1.58-4.25s-.52-3.13-1.56-4.22Zm0,0c-1.03-1.08-2.35-1.62-3.96-1.62s-2.89,.55-3.93,1.64c-1.05,1.1-1.58,2.5-1.58,4.2s.52,3.18,1.56,4.27c1.03,1.09,2.34,1.63,3.93,1.63s2.9-.55,3.96-1.65c1.05-1.1,1.58-2.51,1.58-4.25s-.52-3.13-1.56-4.22Zm-24.33-.05c-1.04-1.11-2.35-1.66-3.93-1.66s-2.92,.54-3.97,1.63c-1.05,1.09-1.58,2.51-1.58,4.27s.53,3.24,1.58,4.35c1.05,1.1,2.37,1.66,3.97,1.66s2.85-.56,3.9-1.69c1.06-1.13,1.59-2.56,1.59-4.3s-.52-3.16-1.56-4.26Zm-25.82-.03c-1.05-1.09-2.37-1.63-3.98-1.63s-2.86,.55-3.9,1.66c-1.03,1.1-1.55,2.52-1.55,4.26s.53,3.17,1.58,4.3c1.05,1.13,2.35,1.69,3.89,1.69s2.91-.56,3.96-1.66c1.05-1.11,1.57-2.56,1.57-4.35s-.52-3.18-1.57-4.27Zm-42.56,.08c-1.04-1.08-2.36-1.62-3.97-1.62-.28,0-.56,.02-.82,.06-1.22,.15-2.26,.69-3.11,1.58-1.05,1.1-1.57,2.5-1.57,4.2s.51,3.18,1.55,4.27c.85,.9,1.9,1.43,3.13,1.57,.26,.04,.52,.06,.8,.06,1.59,0,2.91-.55,3.96-1.65,1.05-1.1,1.58-2.51,1.58-4.25s-.52-3.13-1.55-4.22Zm0,0c-1.04-1.08-2.36-1.62-3.97-1.62-.28,0-.56,.02-.82,.06-1.22,.15-2.26,.69-3.11,1.58-1.05,1.1-1.57,2.5-1.57,4.2s.51,3.18,1.55,4.27c.85,.9,1.9,1.43,3.13,1.57,.26,.04,.52,.06,.8,.06,1.59,0,2.91-.55,3.96-1.65,1.05-1.1,1.58-2.51,1.58-4.25s-.52-3.13-1.55-4.22Zm42.56-.08c-1.05-1.09-2.37-1.63-3.98-1.63s-2.86,.55-3.9,1.66c-1.03,1.1-1.55,2.52-1.55,4.26s.53,3.17,1.58,4.3c1.05,1.13,2.35,1.69,3.89,1.69s2.91-.56,3.96-1.66c1.05-1.11,1.57-2.56,1.57-4.35s-.52-3.18-1.57-4.27Zm25.82,.03c-1.04-1.11-2.35-1.66-3.93-1.66s-2.92,.54-3.97,1.63c-1.05,1.09-1.58,2.51-1.58,4.27s.53,3.24,1.58,4.35c1.05,1.1,2.37,1.66,3.97,1.66s2.85-.56,3.9-1.69c1.06-1.13,1.59-2.56,1.59-4.3s-.52-3.16-1.56-4.26Zm24.33,.05c-1.03-1.08-2.35-1.62-3.96-1.62s-2.89,.55-3.93,1.64c-1.05,1.1-1.58,2.5-1.58,4.2s.52,3.18,1.56,4.27c1.03,1.09,2.34,1.63,3.93,1.63s2.9-.55,3.96-1.65c1.05-1.1,1.58-2.51,1.58-4.25s-.52-3.13-1.56-4.22Zm36.5-.08c-1.05-1.09-2.37-1.63-3.98-1.63s-2.86,.55-3.9,1.66c-1.03,1.1-1.55,2.52-1.55,4.26s.53,3.17,1.58,4.3,2.35,1.69,3.89,1.69,2.91-.56,3.96-1.66c1.05-1.11,1.57-2.56,1.57-4.35s-.52-3.18-1.57-4.27Zm0,0c-1.05-1.09-2.37-1.63-3.98-1.63s-2.86,.55-3.9,1.66c-1.03,1.1-1.55,2.52-1.55,4.26s.53,3.17,1.58,4.3,2.35,1.69,3.89,1.69,2.91-.56,3.96-1.66c1.05-1.11,1.57-2.56,1.57-4.35s-.52-3.18-1.57-4.27Zm-36.5,.08c-1.03-1.08-2.35-1.62-3.96-1.62s-2.89,.55-3.93,1.64c-1.05,1.1-1.58,2.5-1.58,4.2s.52,3.18,1.56,4.27c1.03,1.09,2.34,1.63,3.93,1.63s2.9-.55,3.96-1.65c1.05-1.1,1.58-2.51,1.58-4.25s-.52-3.13-1.56-4.22Zm-24.33-.05c-1.04-1.11-2.35-1.66-3.93-1.66s-2.92,.54-3.97,1.63c-1.05,1.09-1.58,2.51-1.58,4.27s.53,3.24,1.58,4.35c1.05,1.1,2.37,1.66,3.97,1.66s2.85-.56,3.9-1.69c1.06-1.13,1.59-2.56,1.59-4.3s-.52-3.16-1.56-4.26Zm-25.82-.03c-1.05-1.09-2.37-1.63-3.98-1.63s-2.86,.55-3.9,1.66c-1.03,1.1-1.55,2.52-1.55,4.26s.53,3.17,1.58,4.3c1.05,1.13,2.35,1.69,3.89,1.69s2.91-.56,3.96-1.66c1.05-1.11,1.57-2.56,1.57-4.35s-.52-3.18-1.57-4.27Zm-42.56,.08c-1.04-1.08-2.36-1.62-3.97-1.62-.28,0-.56,.02-.82,.06-1.22,.15-2.26,.69-3.11,1.58-1.05,1.1-1.57,2.5-1.57,4.2s.51,3.18,1.55,4.27c.85,.9,1.9,1.43,3.13,1.57,.26,.04,.52,.06,.8,.06,1.59,0,2.91-.55,3.96-1.65,1.05-1.1,1.58-2.51,1.58-4.25s-.52-3.13-1.55-4.22Zm-69.99-29.35l-48.35,27.92L0,107.7H386.6l48.35-27.92,64.91-37.48H113.26Zm37.94,37.92c1.12,1.08,2.6,1.63,4.44,1.63,2.26,0,4.03-.77,5.29-2.32l4,2.73c-2.17,2.82-5.22,4.23-9.17,4.23-3.55,0-6.33-1.05-8.34-3.16-2.01-2.1-3.02-4.56-3.02-7.38,0-1.96,.49-3.76,1.47-5.4,.98-1.65,2.34-2.94,4.09-3.88s3.71-1.41,5.87-1.41c2.01,0,3.81,.4,5.4,1.2,1.6,.79,2.9,1.93,3.92,3.4l-4.22,2.32c-.79-.83-1.57-1.4-2.35-1.72-.77-.33-1.68-.49-2.72-.49-1.89,0-3.43,.57-4.6,1.7-1.17,1.13-1.75,2.58-1.75,4.34s.56,3.12,1.69,4.21Zm37.28,.98c-.95,1.66-2.23,2.95-3.87,3.89-1.63,.93-3.43,1.4-5.4,1.4-.25,0-.5-.01-.75-.03-2.57-.16-4.79-1.18-6.66-3.06-2.05-2.06-3.07-4.56-3.07-7.51,0-3.15,1.16-5.78,3.47-7.88,1.84-1.66,3.93-2.57,6.26-2.73,.24-.01,.48-.02,.73-.02,1.91,0,3.7,.48,5.38,1.43,1.67,.95,2.98,2.24,3.92,3.88,.94,1.63,1.41,3.39,1.41,5.29s-.47,3.68-1.42,5.34Zm10.07,4.77h-5.07v-27.98h5.07v27.98Zm9.11,0h-5.07v-27.98h5.07v27.98Zm24.56,0h-5.06v-2.14c-.99,.94-1.98,1.62-2.98,2.04-.99,.41-2.07,.62-3.23,.62-2.61,0-4.86-1.01-6.76-3.04-1.91-2.02-2.86-4.53-2.86-7.54s.92-5.67,2.76-7.66c1.84-1.99,4.08-2.99,6.71-2.99,1.21,0,2.35,.23,3.41,.69,1.06,.46,2.05,1.14,2.95,2.06v-2.23h5.06v20.19Zm23.16-2.52c-1.9,2.03-4.16,3.04-6.77,3.04-1.17,0-2.25-.21-3.25-.62-1-.42-2-1.1-2.99-2.04v2.14h-5.03v-27.98h5.03v10.02c.92-.92,1.91-1.6,2.97-2.06,1.07-.46,2.2-.69,3.42-.69,2.63,0,4.87,1,6.71,2.99,1.85,1.99,2.77,4.54,2.77,7.66s-.96,5.52-2.86,7.54Zm25.82-2.25c-.95,1.66-2.24,2.95-3.87,3.89-1.63,.93-3.43,1.4-5.4,1.4-2.89,0-5.36-1.03-7.41-3.09-2.05-2.06-3.07-4.56-3.07-7.51,0-3.15,1.15-5.78,3.47-7.88,2.03-1.83,4.36-2.75,6.99-2.75,1.91,0,3.7,.48,5.37,1.43,1.68,.95,2.99,2.24,3.93,3.88,.94,1.63,1.41,3.39,1.41,5.29s-.47,3.68-1.42,5.34Zm13.63-11.06c-.6-.3-1.09-.44-1.47-.44-.78,0-1.44,.48-1.97,1.44-.54,.97-.81,2.86-.81,5.68l.02,.98v8.17h-5.03v-20.19h4.34v2.54c.47-1,1.1-1.76,1.87-2.28,.78-.52,1.64-.78,2.57-.78,.65,0,1.34,.17,2.06,.52l-1.58,4.36Zm24.04,15.83h-5.06v-2.14c-.99,.94-1.98,1.62-2.98,2.04-.99,.41-2.07,.62-3.23,.62-2.61,0-4.86-1.01-6.76-3.04-1.91-2.02-2.86-4.53-2.86-7.54s.92-5.67,2.76-7.66,4.08-2.99,6.71-2.99c1.21,0,2.35,.23,3.41,.69,1.06,.46,2.05,1.14,2.95,2.06v-2.23h5.06v20.19Zm13.81-15.83h-3.01v15.83h-5.06v-15.83h-2.6v-4.36h2.6v-7.44h5.06v7.44h3.01v4.36Zm22.93,7.2h-16.27c.23,1.43,.86,2.58,1.88,3.42,1.02,.85,2.33,1.27,3.91,1.27,1.89,0,3.52-.66,4.88-1.98l4.27,2c-1.07,1.51-2.34,2.63-3.83,3.35-1.48,.72-3.24,1.09-5.28,1.09-3.17,0-5.75-1-7.74-3s-2.99-4.5-2.99-7.5,1-5.64,2.98-7.68c1.99-2.03,4.47-3.05,7.47-3.05,3.18,0,5.76,1.02,7.75,3.05,2,2.04,2.99,4.73,2.99,8.07l-.02,.96Zm-7.04-6.74c-.99-.7-2.13-1.05-3.43-1.05-1.41,0-2.65,.39-3.72,1.18-.67,.5-1.29,1.37-1.86,2.62h10.99c-.34-1.13-1-2.04-1.98-2.75Zm-40.09-.66c-1.56,0-2.86,.55-3.9,1.66-1.03,1.1-1.55,2.52-1.55,4.26s.53,3.17,1.58,4.3,2.35,1.69,3.89,1.69,2.91-.56,3.96-1.66c1.05-1.11,1.57-2.56,1.57-4.35s-.52-3.18-1.57-4.27c-1.05-1.09-2.37-1.63-3.98-1.63Zm-36.48,.09c-1.58,0-2.89,.55-3.93,1.64-1.05,1.1-1.58,2.5-1.58,4.2s.52,3.18,1.56,4.27c1.03,1.09,2.34,1.63,3.93,1.63s2.9-.55,3.96-1.65c1.05-1.1,1.58-2.51,1.58-4.25s-.52-3.13-1.56-4.22c-1.03-1.08-2.35-1.62-3.96-1.62Zm-24.3-.09c-1.6,0-2.92,.54-3.97,1.63-1.05,1.09-1.58,2.51-1.58,4.27s.53,3.24,1.58,4.35c1.05,1.1,2.37,1.66,3.97,1.66s2.85-.56,3.9-1.69c1.06-1.13,1.59-2.56,1.59-4.3s-.52-3.16-1.56-4.26c-1.04-1.11-2.35-1.66-3.93-1.66Zm-25.87,0c-1.56,0-2.86,.55-3.9,1.66-1.03,1.1-1.55,2.52-1.55,4.26s.53,3.17,1.58,4.3c1.05,1.13,2.35,1.69,3.89,1.69s2.91-.56,3.96-1.66c1.05-1.11,1.57-2.56,1.57-4.35s-.52-3.18-1.57-4.27c-1.05-1.09-2.37-1.63-3.98-1.63Zm-42.55,.09c-.28,0-.56,.02-.82,.06-1.22,.15-2.26,.69-3.11,1.58-1.05,1.1-1.57,2.5-1.57,4.2s.51,3.18,1.55,4.27c.85,.9,1.9,1.43,3.13,1.57,.26,.04,.52,.06,.8,.06,1.59,0,2.91-.55,3.96-1.65,1.05-1.1,1.58-2.51,1.58-4.25s-.52-3.13-1.55-4.22c-1.04-1.08-2.36-1.62-3.97-1.62Zm3.97,1.62c-1.04-1.08-2.36-1.62-3.97-1.62-.28,0-.56,.02-.82,.06-1.22,.15-2.26,.69-3.11,1.58-1.05,1.1-1.57,2.5-1.57,4.2s.51,3.18,1.55,4.27c.85,.9,1.9,1.43,3.13,1.57,.26,.04,.52,.06,.8,.06,1.59,0,2.91-.55,3.96-1.65,1.05-1.1,1.58-2.51,1.58-4.25s-.52-3.13-1.55-4.22Zm42.56-.08c-1.05-1.09-2.37-1.63-3.98-1.63s-2.86,.55-3.9,1.66c-1.03,1.1-1.55,2.52-1.55,4.26s.53,3.17,1.58,4.3c1.05,1.13,2.35,1.69,3.89,1.69s2.91-.56,3.96-1.66c1.05-1.11,1.57-2.56,1.57-4.35s-.52-3.18-1.57-4.27Zm25.82,.03c-1.04-1.11-2.35-1.66-3.93-1.66s-2.92,.54-3.97,1.63c-1.05,1.09-1.58,2.51-1.58,4.27s.53,3.24,1.58,4.35c1.05,1.1,2.37,1.66,3.97,1.66s2.85-.56,3.9-1.69c1.06-1.13,1.59-2.56,1.59-4.3s-.52-3.16-1.56-4.26Zm24.33,.05c-1.03-1.08-2.35-1.62-3.96-1.62s-2.89,.55-3.93,1.64c-1.05,1.1-1.58,2.5-1.58,4.2s.52,3.18,1.56,4.27c1.03,1.09,2.34,1.63,3.93,1.63s2.9-.55,3.96-1.65c1.05-1.1,1.58-2.51,1.58-4.25s-.52-3.13-1.56-4.22Zm36.5-.08c-1.05-1.09-2.37-1.63-3.98-1.63s-2.86,.55-3.9,1.66c-1.03,1.1-1.55,2.52-1.55,4.26s.53,3.17,1.58,4.3,2.35,1.69,3.89,1.69,2.91-.56,3.96-1.66c1.05-1.11,1.57-2.56,1.57-4.35s-.52-3.18-1.57-4.27Zm0,0c-1.05-1.09-2.37-1.63-3.98-1.63s-2.86,.55-3.9,1.66c-1.03,1.1-1.55,2.52-1.55,4.26s.53,3.17,1.58,4.3,2.35,1.69,3.89,1.69,2.91-.56,3.96-1.66c1.05-1.11,1.57-2.56,1.57-4.35s-.52-3.18-1.57-4.27Zm-36.5,.08c-1.03-1.08-2.35-1.62-3.96-1.62s-2.89,.55-3.93,1.64c-1.05,1.1-1.58,2.5-1.58,4.2s.52,3.18,1.56,4.27c1.03,1.09,2.34,1.63,3.93,1.63s2.9-.55,3.96-1.65c1.05-1.1,1.58-2.51,1.58-4.25s-.52-3.13-1.56-4.22Zm-24.33-.05c-1.04-1.11-2.35-1.66-3.93-1.66s-2.92,.54-3.97,1.63c-1.05,1.09-1.58,2.51-1.58,4.27s.53,3.24,1.58,4.35c1.05,1.1,2.37,1.66,3.97,1.66s2.85-.56,3.9-1.69c1.06-1.13,1.59-2.56,1.59-4.3s-.52-3.16-1.56-4.26Zm-25.82-.03c-1.05-1.09-2.37-1.63-3.98-1.63s-2.86,.55-3.9,1.66c-1.03,1.1-1.55,2.52-1.55,4.26s.53,3.17,1.58,4.3c1.05,1.13,2.35,1.69,3.89,1.69s2.91-.56,3.96-1.66c1.05-1.11,1.57-2.56,1.57-4.35s-.52-3.18-1.57-4.27Zm-42.56,.08c-1.04-1.08-2.36-1.62-3.97-1.62-.28,0-.56,.02-.82,.06-1.22,.15-2.26,.69-3.11,1.58-1.05,1.1-1.57,2.5-1.57,4.2s.51,3.18,1.55,4.27c.85,.9,1.9,1.43,3.13,1.57,.26,.04,.52,.06,.8,.06,1.59,0,2.91-.55,3.96-1.65,1.05-1.1,1.58-2.51,1.58-4.25s-.52-3.13-1.55-4.22Zm0,0c-1.04-1.08-2.36-1.62-3.97-1.62-.28,0-.56,.02-.82,.06-1.22,.15-2.26,.69-3.11,1.58-1.05,1.1-1.57,2.5-1.57,4.2s.51,3.18,1.55,4.27c.85,.9,1.9,1.43,3.13,1.57,.26,.04,.52,.06,.8,.06,1.59,0,2.91-.55,3.96-1.65,1.05-1.1,1.58-2.51,1.58-4.25s-.52-3.13-1.55-4.22Zm42.56-.08c-1.05-1.09-2.37-1.63-3.98-1.63s-2.86,.55-3.9,1.66c-1.03,1.1-1.55,2.52-1.55,4.26s.53,3.17,1.58,4.3c1.05,1.13,2.35,1.69,3.89,1.69s2.91-.56,3.96-1.66c1.05-1.11,1.57-2.56,1.57-4.35s-.52-3.18-1.57-4.27Zm25.82,.03c-1.04-1.11-2.35-1.66-3.93-1.66s-2.92,.54-3.97,1.63c-1.05,1.09-1.58,2.51-1.58,4.27s.53,3.24,1.58,4.35c1.05,1.1,2.37,1.66,3.97,1.66s2.85-.56,3.9-1.69c1.06-1.13,1.59-2.56,1.59-4.3s-.52-3.16-1.56-4.26Zm24.33,.05c-1.03-1.08-2.35-1.62-3.96-1.62s-2.89,.55-3.93,1.64c-1.05,1.1-1.58,2.5-1.58,4.2s.52,3.18,1.56,4.27c1.03,1.09,2.34,1.63,3.93,1.63s2.9-.55,3.96-1.65c1.05-1.1,1.58-2.51,1.58-4.25s-.52-3.13-1.56-4.22Zm0,0c-1.03-1.08-2.35-1.62-3.96-1.62s-2.89,.55-3.93,1.64c-1.05,1.1-1.58,2.5-1.58,4.2s.52,3.18,1.56,4.27c1.03,1.09,2.34,1.63,3.93,1.63s2.9-.55,3.96-1.65c1.05-1.1,1.58-2.51,1.58-4.25s-.52-3.13-1.56-4.22Zm-24.33-.05c-1.04-1.11-2.35-1.66-3.93-1.66s-2.92,.54-3.97,1.63c-1.05,1.09-1.58,2.51-1.58,4.27s.53,3.24,1.58,4.35c1.05,1.1,2.37,1.66,3.97,1.66s2.85-.56,3.9-1.69c1.06-1.13,1.59-2.56,1.59-4.3s-.52-3.16-1.56-4.26Zm-25.82-.03c-1.05-1.09-2.37-1.63-3.98-1.63s-2.86,.55-3.9,1.66c-1.03,1.1-1.55,2.52-1.55,4.26s.53,3.17,1.58,4.3c1.05,1.13,2.35,1.69,3.89,1.69s2.91-.56,3.96-1.66c1.05-1.11,1.57-2.56,1.57-4.35s-.52-3.18-1.57-4.27Zm-42.56,.08c-1.04-1.08-2.36-1.62-3.97-1.62-.28,0-.56,.02-.82,.06-1.22,.15-2.26,.69-3.11,1.58-1.05,1.1-1.57,2.5-1.57,4.2s.51,3.18,1.55,4.27c.85,.9,1.9,1.43,3.13,1.57,.26,.04,.52,.06,.8,.06,1.59,0,2.91-.55,3.96-1.65,1.05-1.1,1.58-2.51,1.58-4.25s-.52-3.13-1.55-4.22Zm0,0c-1.04-1.08-2.36-1.62-3.97-1.62-.28,0-.56,.02-.82,.06-1.22,.15-2.26,.69-3.11,1.58-1.05,1.1-1.57,2.5-1.57,4.2s.51,3.18,1.55,4.27c.85,.9,1.9,1.43,3.13,1.57,.26,.04,.52,.06,.8,.06,1.59,0,2.91-.55,3.96-1.65,1.05-1.1,1.58-2.51,1.58-4.25s-.52-3.13-1.55-4.22Zm42.56-.08c-1.05-1.09-2.37-1.63-3.98-1.63s-2.86,.55-3.9,1.66c-1.03,1.1-1.55,2.52-1.55,4.26s.53,3.17,1.58,4.3c1.05,1.13,2.35,1.69,3.89,1.69s2.91-.56,3.96-1.66c1.05-1.11,1.57-2.56,1.57-4.35s-.52-3.18-1.57-4.27Zm0,0c-1.05-1.09-2.37-1.63-3.98-1.63s-2.86,.55-3.9,1.66c-1.03,1.1-1.55,2.52-1.55,4.26s.53,3.17,1.58,4.3c1.05,1.13,2.35,1.69,3.89,1.69s2.91-.56,3.96-1.66c1.05-1.11,1.57-2.56,1.57-4.35s-.52-3.18-1.57-4.27Zm-42.56,.08c-1.04-1.08-2.36-1.62-3.97-1.62-.28,0-.56,.02-.82,.06-1.22,.15-2.26,.69-3.11,1.58-1.05,1.1-1.57,2.5-1.57,4.2s.51,3.18,1.55,4.27c.85,.9,1.9,1.43,3.13,1.57,.26,.04,.52,.06,.8,.06,1.59,0,2.91-.55,3.96-1.65,1.05-1.1,1.58-2.51,1.58-4.25s-.52-3.13-1.55-4.22Zm0,0c-1.04-1.08-2.36-1.62-3.97-1.62-.28,0-.56,.02-.82,.06-1.22,.15-2.26,.69-3.11,1.58-1.05,1.1-1.57,2.5-1.57,4.2s.51,3.18,1.55,4.27c.85,.9,1.9,1.43,3.13,1.57,.26,.04,.52,.06,.8,.06,1.59,0,2.91-.55,3.96-1.65,1.05-1.1,1.58-2.51,1.58-4.25s-.52-3.13-1.55-4.22Zm0,0c-1.04-1.08-2.36-1.62-3.97-1.62-.28,0-.56,.02-.82,.06-1.22,.15-2.26,.69-3.11,1.58-1.05,1.1-1.57,2.5-1.57,4.2s.51,3.18,1.55,4.27c.85,.9,1.9,1.43,3.13,1.57,.26,.04,.52,.06,.8,.06,1.59,0,2.91-.55,3.96-1.65,1.05-1.1,1.58-2.51,1.58-4.25s-.52-3.13-1.55-4.22Z"/><polyline class="cls-2" points="178.46 0 178.46 29.51 178.46 45.54 178.46 48.89 178.46 57"/><polyline class="cls-2" points="178.46 86.46 178.46 107.7 178.46 150"/><line class="cls-2" x1="64.91" y1="150" x2="64.91"/><line class="cls-2" x1="434.95" y1="150" x2="434.95"/><line class="cls-2" x1="321.4" y1="150" x2="321.4" y2="100"/><line class="cls-2" x1="321.41" y1="48" x2="321.41" y2="0"/></svg>